<svg width="26" height="26" viewBox="0 0 26 26" fill="none" xmlns="http://www.w3.org/2000/svg">
<path fill-rule="evenodd" clip-rule="evenodd" d="M22.75 13C22.75 18.3848 18.3848 22.75 13 22.75C7.61522 22.75 3.25 18.3848 3.25 13C3.25 7.61522 7.61522 3.25 13 3.25C18.3848 3.25 22.75 7.61522 22.75 13ZM14.0833 8.66667C14.0833 9.26498 13.5983 9.75 13 9.75C12.4017 9.75 11.9167 9.26498 11.9167 8.66667C11.9167 8.06836 12.4017 7.58333 13 7.58333C13.5983 7.58333 14.0833 8.06836 14.0833 8.66667ZM14 18.4167V11.9167H12V18.4167H14Z" fill="black"/>
</svg>
