<svg id="svg" version="1.1" xmlns="http://www.w3.org/2000/svg" xmlns:xlink="http://www.w3.org/1999/xlink" width="400" height="400" viewBox="0, 0, 400,400"><g id="svgg"><path id="path0" d="M190.900 0.269 C 190.185 0.369,189.600 0.619,189.600 0.825 C 189.600 1.031,189.060 1.200,188.400 1.200 C 187.740 1.200,187.200 1.380,187.200 1.600 C 187.200 1.820,186.660 2.000,186.000 2.000 C 185.340 2.000,184.800 2.180,184.800 2.400 C 184.800 2.620,184.440 2.800,184.000 2.800 C 183.560 2.800,183.200 2.980,183.200 3.200 C 183.200 3.420,182.840 3.600,182.400 3.600 C 181.960 3.600,181.600 3.780,181.600 4.000 C 181.600 4.220,181.330 4.400,181.000 4.400 C 180.670 4.400,180.400 4.580,180.400 4.800 C 180.400 5.020,180.130 5.200,179.800 5.200 C 179.470 5.200,179.200 5.380,179.200 5.600 C 179.200 5.820,179.008 6.000,178.774 6.000 C 178.540 6.000,177.471 6.900,176.400 8.000 C 175.329 9.100,174.318 10.000,174.154 10.000 C 173.811 10.000,171.856 12.087,170.400 14.007 C 169.850 14.733,169.175 15.555,168.900 15.835 C 168.625 16.114,168.400 16.611,168.400 16.938 C 168.400 17.265,168.265 17.593,168.100 17.667 C 167.668 17.859,166.000 21.172,166.000 21.838 C 166.000 22.147,165.820 22.400,165.600 22.400 C 165.380 22.400,165.200 22.839,165.200 23.376 C 165.200 23.913,165.020 24.464,164.800 24.600 C 164.580 24.736,164.400 25.341,164.400 25.944 C 164.400 26.547,164.237 27.211,164.037 27.420 C 162.834 28.678,162.834 43.722,164.037 44.980 C 164.237 45.189,164.400 45.954,164.400 46.680 C 164.400 47.406,164.580 48.000,164.800 48.000 C 165.020 48.000,165.200 48.355,165.200 48.788 C 165.200 49.221,165.560 50.217,166.000 51.000 C 166.440 51.783,166.800 52.689,166.800 53.012 C 166.800 53.335,166.946 53.600,167.125 53.600 C 167.304 53.600,167.698 54.230,168.000 55.000 C 168.302 55.770,168.696 56.400,168.875 56.400 C 169.054 56.400,169.200 56.578,169.200 56.795 C 169.200 57.587,177.229 66.000,177.985 66.000 C 178.213 66.000,178.400 66.180,178.400 66.400 C 178.400 66.620,178.670 66.800,179.000 66.800 C 179.330 66.800,179.600 66.980,179.600 67.200 C 179.600 67.420,179.855 67.600,180.167 67.600 C 180.478 67.600,180.793 67.735,180.867 67.900 C 181.083 68.387,186.048 70.800,186.833 70.800 C 187.229 70.800,187.664 70.980,187.800 71.200 C 187.936 71.420,188.476 71.600,189.000 71.600 C 189.524 71.600,190.050 71.757,190.168 71.948 C 190.982 73.265,209.018 73.265,209.832 71.948 C 209.950 71.757,210.476 71.600,211.000 71.600 C 211.524 71.600,212.064 71.420,212.200 71.200 C 212.336 70.980,212.887 70.800,213.424 70.800 C 213.961 70.800,214.400 70.620,214.400 70.400 C 214.400 70.180,214.760 70.000,215.200 70.000 C 215.640 70.000,216.000 69.820,216.000 69.600 C 216.000 69.380,216.234 69.200,216.520 69.200 C 217.256 69.200,219.193 68.259,219.197 67.900 C 219.199 67.735,219.470 67.600,219.800 67.600 C 220.130 67.600,220.400 67.420,220.400 67.200 C 220.400 66.980,220.670 66.800,221.000 66.800 C 221.330 66.800,221.600 66.620,221.600 66.400 C 221.600 66.180,221.806 66.000,222.059 66.000 C 222.561 66.000,229.200 59.387,229.200 58.886 C 229.200 58.716,229.560 58.317,230.000 58.000 C 230.440 57.683,230.800 57.193,230.800 56.912 C 230.800 56.630,230.946 56.400,231.125 56.400 C 231.304 56.400,231.698 55.770,232.000 55.000 C 232.302 54.230,232.696 53.600,232.875 53.600 C 233.054 53.600,233.200 53.240,233.200 52.800 C 233.200 52.360,233.380 52.000,233.600 52.000 C 233.820 52.000,234.000 51.651,234.000 51.224 C 234.000 50.797,234.180 50.336,234.400 50.200 C 234.620 50.064,234.800 49.513,234.800 48.976 C 234.800 48.439,234.980 48.000,235.200 48.000 C 235.420 48.000,235.600 47.381,235.600 46.624 C 235.600 45.867,235.758 45.149,235.951 45.030 C 236.863 44.467,237.208 34.373,236.458 30.200 C 236.221 28.880,235.911 27.125,235.770 26.300 C 235.628 25.475,235.352 24.800,235.156 24.800 C 234.960 24.800,234.800 24.260,234.800 23.600 C 234.800 22.940,234.620 22.400,234.400 22.400 C 234.180 22.400,234.000 22.040,234.000 21.600 C 234.000 21.160,233.820 20.800,233.600 20.800 C 233.380 20.800,233.200 20.440,233.200 20.000 C 233.200 19.560,233.065 19.199,232.900 19.197 C 232.595 19.194,231.600 17.301,231.600 16.725 C 231.600 16.423,230.765 15.306,229.700 14.184 C 229.425 13.894,229.200 13.575,229.200 13.474 C 229.200 13.295,224.796 8.897,222.800 7.083 C 222.250 6.583,221.305 5.924,220.700 5.619 C 220.095 5.314,219.600 4.915,219.600 4.732 C 219.600 4.550,219.330 4.400,219.000 4.400 C 218.670 4.400,218.400 4.220,218.400 4.000 C 218.400 3.780,218.166 3.600,217.880 3.600 C 217.144 3.600,215.207 2.659,215.203 2.300 C 215.201 2.135,214.660 2.000,214.000 2.000 C 213.340 2.000,212.800 1.820,212.800 1.600 C 212.800 1.380,212.365 1.200,211.833 1.200 C 211.302 1.200,210.792 0.975,210.700 0.700 C 210.533 0.198,193.980 -0.163,190.900 0.269 M381.000 243.466 C 365.511 243.902,343.266 246.054,329.800 248.419 C 328.480 248.650,326.410 249.002,325.200 249.200 C 322.439 249.652,319.079 250.290,317.000 250.758 C 316.120 250.956,314.770 251.239,314.000 251.387 C 311.094 251.945,300.035 254.595,296.200 255.652 C 282.274 259.490,264.127 265.835,254.488 270.236 C 253.327 270.766,252.296 271.200,252.198 271.200 C 252.100 271.200,250.891 271.717,249.510 272.349 C 248.130 272.982,244.930 274.444,242.400 275.600 C 237.141 278.002,229.962 281.551,223.000 285.191 C 211.725 291.085,209.737 292.136,208.600 292.806 C 207.458 293.478,199.579 297.744,194.000 300.711 C 192.570 301.471,190.616 302.529,189.657 303.063 C 181.127 307.807,161.646 317.566,153.100 321.375 C 151.835 321.939,149.765 322.870,148.500 323.445 C 142.844 326.016,130.740 330.685,123.600 333.050 C 121.290 333.815,119.040 334.598,118.600 334.790 C 117.882 335.103,116.098 335.659,107.200 338.341 C 99.854 340.555,79.504 345.041,70.800 346.365 C 69.150 346.616,66.810 346.989,65.600 347.195 C 62.116 347.786,52.510 348.975,46.400 349.571 C 33.389 350.841,19.396 351.603,9.088 351.601 L -0.025 351.600 0.088 374.929 C 0.196 397.356,0.230 398.287,0.971 399.029 C 2.187 400.244,397.814 400.244,399.029 399.029 C 399.784 398.273,399.802 396.694,399.904 320.729 L 400.008 243.200 392.304 243.282 C 388.067 243.327,382.980 243.410,381.000 243.466 " stroke="none" fill="#fbd6a2" fill-rule="evenodd"></path><path id="path1" d="M21.600 108.732 C 21.600 109.034,20.248 109.636,19.891 109.494 C 19.841 109.474,19.080 110.119,18.200 110.927 C 16.587 112.409,15.739 112.822,16.206 111.900 C 16.345 111.625,16.198 111.719,15.879 112.110 C 15.253 112.874,11.548 114.881,11.272 114.605 C 11.180 114.513,10.827 114.716,10.487 115.056 C 10.068 115.475,9.471 115.598,8.635 115.437 C 7.746 115.267,7.568 115.312,8.000 115.594 C 8.533 115.944,8.533 115.992,8.000 116.027 C 7.670 116.049,7.040 116.143,6.600 116.236 C 6.160 116.329,5.035 116.513,4.100 116.645 C 3.165 116.776,2.400 117.095,2.400 117.353 C 2.400 117.891,0.983 119.200,0.402 119.200 C 0.151 119.200,0.009 145.514,0.003 193.204 L -0.006 267.209 51.297 267.104 L 102.600 267.000 104.432 266.121 C 115.876 260.630,112.870 244.672,100.117 243.212 C 85.234 241.507,82.595 223.305,96.646 219.272 C 99.527 218.446,375.439 218.604,375.757 219.433 C 375.891 219.781,376.000 225.256,376.000 231.599 C 376.000 239.750,376.131 243.177,376.448 243.283 C 376.694 243.365,378.089 243.299,379.548 243.136 C 381.006 242.974,386.205 242.832,391.100 242.821 L 400.000 242.800 400.000 219.200 L 400.000 195.600 388.429 195.600 C 378.442 195.600,376.771 195.514,376.229 194.971 C 375.665 194.408,375.600 189.903,375.600 151.371 L 375.600 108.400 374.429 108.400 C 373.784 108.400,372.996 108.661,372.676 108.981 C 372.357 109.300,371.984 109.450,371.848 109.314 C 371.711 109.178,371.600 109.277,371.600 109.533 C 371.600 109.790,371.195 110.003,370.700 110.006 C 370.168 110.010,369.986 110.133,370.256 110.306 C 370.586 110.519,370.558 110.742,370.156 111.116 C 369.702 111.537,369.595 111.537,369.573 111.116 C 369.558 110.832,369.345 111.017,369.100 111.527 C 368.804 112.142,368.408 112.391,367.926 112.265 C 367.526 112.160,367.288 112.219,367.397 112.395 C 367.561 112.661,366.873 113.149,366.000 113.385 C 364.742 113.726,364.000 114.128,364.000 114.470 C 364.000 114.698,363.730 114.782,363.400 114.655 C 363.070 114.529,362.797 114.644,362.794 114.913 C 362.790 115.254,362.685 115.238,362.444 114.857 C 362.204 114.479,362.017 114.449,361.826 114.757 C 361.676 115.001,361.124 115.200,360.600 115.200 C 360.076 115.200,359.536 115.380,359.400 115.600 C 359.264 115.820,358.818 116.000,358.410 116.000 C 358.001 116.000,357.604 116.187,357.528 116.416 C 357.444 116.667,355.644 116.849,352.995 116.874 C 346.279 116.938,344.724 116.846,345.000 116.400 C 345.136 116.180,345.057 116.000,344.824 116.000 C 344.591 116.000,344.397 116.225,344.394 116.500 C 344.389 116.882,344.309 116.876,344.056 116.476 C 343.873 116.188,342.989 115.907,342.092 115.850 C 341.195 115.794,340.221 115.549,339.928 115.306 C 339.635 115.063,338.903 114.741,338.301 114.589 C 337.698 114.438,337.291 114.176,337.395 114.007 C 337.500 113.838,337.141 113.700,336.597 113.700 C 336.054 113.700,335.233 113.272,334.774 112.750 C 334.315 112.228,334.052 112.023,334.190 112.295 C 334.352 112.615,334.232 112.710,333.852 112.564 C 333.527 112.440,333.164 112.082,333.043 111.769 C 332.923 111.456,332.539 111.200,332.189 111.200 C 331.839 111.200,331.665 111.018,331.803 110.795 C 331.942 110.570,331.508 110.282,330.827 110.145 C 330.152 110.010,329.600 109.743,329.600 109.550 C 329.600 109.358,329.330 109.200,329.000 109.200 C 328.670 109.200,328.400 109.020,328.400 108.800 C 328.400 108.571,327.200 108.400,325.600 108.400 C 324.000 108.400,322.800 108.571,322.800 108.800 C 322.800 109.020,322.530 109.200,322.200 109.200 C 321.870 109.200,321.600 109.380,321.600 109.600 C 321.600 109.820,321.240 110.000,320.800 110.000 C 320.360 110.000,320.000 110.191,320.000 110.424 C 320.000 110.657,319.820 110.736,319.600 110.600 C 319.380 110.464,319.200 110.644,319.200 111.000 C 319.200 111.356,319.039 111.548,318.842 111.426 C 318.645 111.304,318.382 111.471,318.257 111.796 C 318.132 112.121,317.777 112.289,317.467 112.170 C 317.157 112.051,316.797 112.231,316.667 112.570 C 316.527 112.935,316.172 113.088,315.799 112.944 C 315.391 112.788,315.209 112.897,315.284 113.251 C 315.357 113.597,315.070 113.783,314.509 113.753 C 314.019 113.727,313.715 113.862,313.833 114.053 C 313.951 114.244,313.602 114.400,313.057 114.400 C 312.512 114.400,311.998 114.607,311.913 114.861 C 311.828 115.115,311.408 115.360,310.980 115.405 C 310.551 115.451,309.840 115.621,309.400 115.782 C 308.960 115.943,308.116 116.255,307.525 116.476 C 305.403 117.266,294.929 117.048,294.306 116.200 C 294.127 115.956,294.010 116.004,294.006 116.324 C 294.002 116.642,293.804 116.725,293.500 116.535 C 293.225 116.364,292.602 116.202,292.116 116.174 C 291.631 116.147,291.001 115.948,290.716 115.732 C 290.099 115.261,286.305 113.799,285.953 113.896 C 285.817 113.934,285.303 113.536,284.811 113.011 C 284.318 112.487,283.664 112.154,283.357 112.272 C 283.018 112.402,282.800 112.225,282.800 111.819 C 282.800 111.445,282.611 111.270,282.369 111.419 C 282.133 111.565,281.586 111.306,281.154 110.843 C 280.722 110.379,280.106 110.000,279.784 110.000 C 279.463 110.000,279.200 109.820,279.200 109.600 C 279.200 109.380,278.840 109.200,278.400 109.200 C 277.960 109.200,277.600 109.020,277.600 108.800 C 277.600 108.574,276.467 108.400,275.000 108.400 C 273.533 108.400,272.400 108.574,272.400 108.800 C 272.400 109.020,272.145 109.200,271.833 109.200 C 271.522 109.200,271.207 109.338,271.133 109.507 C 271.060 109.676,270.110 110.531,269.023 111.407 C 267.935 112.283,267.206 112.733,267.403 112.407 C 267.600 112.081,267.264 112.206,266.655 112.685 C 266.024 113.181,265.274 113.450,264.909 113.310 C 264.515 113.159,264.369 113.227,264.530 113.487 C 264.674 113.719,264.489 114.155,264.119 114.455 C 263.586 114.887,263.512 114.890,263.765 114.470 C 264.013 114.058,263.919 114.030,263.342 114.341 C 262.285 114.911,261.052 115.338,260.689 115.260 C 260.518 115.223,260.291 115.419,260.185 115.696 C 260.072 115.991,259.371 116.179,258.496 116.149 C 257.673 116.121,256.820 116.224,256.600 116.378 C 255.388 117.228,245.950 117.100,243.000 116.194 C 241.680 115.789,240.474 115.444,240.320 115.429 C 240.166 115.413,239.815 115.175,239.540 114.900 C 238.912 114.272,238.256 114.244,238.638 114.862 C 238.834 115.179,238.748 115.212,238.362 114.968 C 238.053 114.772,237.620 114.601,237.400 114.588 C 237.180 114.575,237.035 114.377,237.078 114.148 C 237.121 113.920,236.903 113.733,236.595 113.733 C 236.287 113.733,236.131 113.928,236.248 114.167 C 236.365 114.405,236.087 114.175,235.630 113.656 C 235.174 113.136,234.794 112.866,234.787 113.056 C 234.780 113.245,234.510 113.051,234.187 112.624 C 233.864 112.196,233.600 112.053,233.600 112.305 C 233.600 112.817,230.844 111.199,230.817 110.671 C 230.792 110.188,229.600 109.074,229.600 109.534 C 229.600 109.769,229.204 109.741,228.603 109.462 C 228.055 109.208,227.605 108.855,227.603 108.679 C 227.601 108.502,226.430 108.396,225.000 108.442 C 223.570 108.488,222.400 108.678,222.400 108.863 C 222.400 109.048,222.203 109.200,221.962 109.200 C 221.721 109.200,221.025 109.555,220.417 109.988 C 219.808 110.422,219.166 110.647,218.991 110.488 C 218.816 110.330,218.781 110.503,218.913 110.873 C 219.094 111.379,218.962 111.508,218.377 111.396 C 217.921 111.308,217.600 111.467,217.600 111.780 C 217.600 112.073,217.183 112.418,216.674 112.546 C 216.164 112.674,215.315 113.153,214.787 113.612 C 214.258 114.070,212.785 114.734,211.513 115.088 C 210.241 115.442,209.200 115.870,209.200 116.040 C 209.200 116.211,208.552 116.245,207.760 116.116 C 206.842 115.967,206.213 116.056,206.024 116.362 C 205.561 117.111,194.443 117.112,193.969 116.364 C 193.668 115.888,193.610 115.893,193.600 116.400 C 193.590 116.897,193.528 116.905,193.239 116.449 C 193.047 116.146,192.704 116.012,192.477 116.152 C 192.250 116.293,191.816 116.159,191.512 115.854 C 191.208 115.550,190.518 115.335,189.979 115.375 C 189.441 115.415,188.685 115.184,188.300 114.862 C 187.915 114.540,187.600 114.405,187.600 114.564 C 187.600 114.901,184.263 113.141,184.067 112.700 C 183.993 112.535,183.588 112.400,183.167 112.400 C 182.745 112.400,182.400 112.220,182.400 112.000 C 182.400 111.780,181.995 111.597,181.500 111.594 C 180.772 111.589,180.715 111.514,181.200 111.200 C 181.704 110.874,181.680 110.811,181.047 110.806 C 180.633 110.803,179.971 110.428,179.577 109.974 C 179.183 109.519,178.757 109.159,178.630 109.174 C 177.836 109.264,177.583 109.151,177.800 108.800 C 177.956 108.548,177.004 108.400,175.224 108.400 C 173.608 108.400,172.400 108.571,172.400 108.800 C 172.400 109.020,171.956 109.200,171.413 109.200 C 170.696 109.200,170.489 109.366,170.657 109.805 C 170.818 110.225,170.705 110.338,170.285 110.177 C 169.953 110.050,169.560 110.141,169.413 110.379 C 169.265 110.618,168.949 110.692,168.711 110.545 C 168.472 110.397,168.390 110.460,168.529 110.685 C 168.806 111.134,167.732 112.261,166.828 112.468 C 166.514 112.541,165.923 112.870,165.515 113.200 C 165.108 113.530,164.688 113.751,164.583 113.692 C 164.478 113.632,163.837 113.870,163.160 114.221 C 162.482 114.571,161.674 114.761,161.364 114.641 C 161.052 114.522,160.800 114.664,160.800 114.960 C 160.800 115.315,160.409 115.450,159.638 115.360 C 158.869 115.270,158.397 115.432,158.241 115.838 C 158.111 116.175,157.689 116.408,157.303 116.355 C 156.916 116.302,155.962 116.446,155.183 116.674 C 153.145 117.272,144.565 116.991,142.536 116.260 C 141.621 115.931,140.756 115.777,140.614 115.919 C 140.473 116.061,140.207 115.935,140.024 115.638 C 139.841 115.342,139.206 115.100,138.614 115.100 C 138.021 115.100,137.442 114.854,137.326 114.552 C 137.211 114.251,136.971 114.094,136.794 114.204 C 136.372 114.464,135.157 113.994,135.368 113.652 C 135.458 113.506,135.097 113.182,134.565 112.931 C 133.836 112.587,133.656 112.588,133.829 112.937 C 133.956 113.192,133.821 113.114,133.530 112.765 C 133.238 112.416,132.806 112.195,132.570 112.275 C 132.333 112.355,131.564 111.870,130.861 111.198 C 128.303 108.753,123.490 107.361,122.596 108.807 C 122.458 109.030,122.200 109.124,122.024 109.015 C 121.848 108.906,121.292 109.173,120.790 109.608 C 120.288 110.044,119.725 110.422,119.539 110.450 C 119.352 110.478,118.975 110.531,118.700 110.568 C 118.425 110.606,118.238 110.832,118.284 111.071 C 118.331 111.310,118.061 111.482,117.684 111.453 C 117.308 111.424,117.049 111.638,117.110 111.930 C 117.170 112.221,117.048 112.353,116.838 112.223 C 116.627 112.093,116.340 112.173,116.200 112.400 C 116.060 112.627,115.749 112.692,115.511 112.545 C 115.251 112.385,115.191 112.463,115.362 112.738 C 115.533 113.015,115.387 113.200,115.000 113.200 C 114.615 113.200,114.468 113.386,114.636 113.658 C 114.835 113.981,114.605 114.038,113.860 113.851 C 113.233 113.693,112.800 113.751,112.800 113.992 C 112.800 114.217,112.530 114.400,112.200 114.400 C 111.870 114.400,111.600 114.706,111.600 115.080 C 111.600 115.544,111.470 115.630,111.191 115.351 C 110.966 115.126,110.227 115.023,109.550 115.122 C 108.676 115.250,108.476 115.402,108.859 115.645 C 109.405 115.991,108.545 116.196,107.270 116.023 C 106.979 115.984,106.491 116.158,106.186 116.411 C 105.840 116.699,103.862 116.876,100.916 116.885 C 93.886 116.906,93.508 116.874,93.853 116.300 C 94.057 115.960,93.937 115.976,93.477 116.349 C 93.008 116.729,92.800 116.754,92.800 116.431 C 92.800 116.175,92.575 115.994,92.300 116.030 C 90.987 116.200,89.577 115.961,89.797 115.605 C 89.937 115.378,89.777 115.311,89.421 115.447 C 89.078 115.579,88.800 115.476,88.800 115.219 C 88.800 114.963,88.632 114.856,88.428 114.983 C 88.223 115.109,87.940 115.027,87.800 114.800 C 87.660 114.573,87.376 114.491,87.170 114.619 C 86.963 114.746,86.682 114.559,86.546 114.202 C 86.409 113.846,86.043 113.651,85.733 113.770 C 85.423 113.889,85.072 113.731,84.952 113.419 C 84.832 113.106,84.512 112.936,84.241 113.040 C 83.970 113.144,83.303 112.816,82.759 112.312 C 82.214 111.808,81.461 111.454,81.085 111.527 C 80.690 111.603,80.400 111.410,80.400 111.073 C 80.400 110.750,79.929 110.368,79.353 110.224 C 78.777 110.079,78.420 109.847,78.559 109.707 C 78.699 109.568,78.250 109.216,77.561 108.927 C 76.095 108.311,71.600 108.215,71.600 108.800 C 71.600 109.020,71.283 109.200,70.896 109.200 C 70.509 109.200,69.958 109.575,69.672 110.033 C 69.366 110.524,68.906 110.773,68.555 110.638 C 68.227 110.512,68.056 110.567,68.175 110.759 C 68.294 110.952,68.141 111.317,67.834 111.571 C 67.409 111.924,67.229 111.911,67.070 111.517 C 66.945 111.204,66.851 111.293,66.832 111.743 C 66.811 112.225,66.594 112.407,66.213 112.260 C 65.490 111.983,64.999 112.644,65.698 112.956 C 65.974 113.079,65.840 113.147,65.400 113.108 C 64.960 113.068,64.219 113.247,63.753 113.504 C 63.287 113.761,62.817 113.884,62.710 113.776 C 62.602 113.669,62.295 113.844,62.028 114.167 C 61.760 114.489,61.255 114.643,60.905 114.508 C 60.525 114.362,60.371 114.429,60.522 114.674 C 60.661 114.899,60.331 115.285,59.787 115.533 C 59.029 115.878,58.799 115.869,58.794 115.491 C 58.789 115.116,58.712 115.119,58.466 115.507 C 58.007 116.231,55.675 116.846,55.355 116.328 C 55.185 116.053,55.004 116.069,54.813 116.379 C 54.618 116.694,52.811 116.839,49.163 116.832 C 42.749 116.820,42.329 116.792,41.751 116.339 C 41.504 116.145,41.009 116.099,40.651 116.236 C 40.279 116.379,40.000 116.286,40.000 116.019 C 40.000 115.763,39.820 115.664,39.600 115.800 C 39.380 115.936,39.200 115.857,39.200 115.624 C 39.200 115.391,38.829 115.200,38.376 115.200 C 37.856 115.200,37.658 115.030,37.838 114.738 C 38.013 114.455,37.948 114.385,37.670 114.557 C 37.421 114.711,36.808 114.610,36.308 114.334 C 35.809 114.057,35.265 113.868,35.100 113.915 C 34.935 113.962,34.800 113.730,34.800 113.400 C 34.800 113.070,34.609 112.800,34.376 112.800 C 34.143 112.800,34.088 113.025,34.253 113.300 C 34.486 113.688,34.424 113.695,33.977 113.334 C 33.660 113.078,33.220 112.808,33.000 112.734 C 32.780 112.660,32.649 112.452,32.710 112.270 C 32.770 112.089,32.634 112.055,32.407 112.196 C 32.180 112.336,31.882 112.159,31.746 111.802 C 31.609 111.446,31.294 111.232,31.046 111.327 C 30.521 111.528,29.532 110.601,29.891 110.243 C 30.024 110.109,29.665 110.000,29.094 110.000 C 28.432 110.000,27.968 109.730,27.818 109.258 C 27.562 108.451,21.600 107.947,21.600 108.732 " stroke="none" fill="#39e0e9" fill-rule="evenodd"></path><path id="path2" d="M299.400 6.400 C 299.264 6.620,298.848 6.800,298.476 6.800 C 297.561 6.801,295.600 8.537,295.600 9.347 C 295.600 9.706,295.420 10.000,295.200 10.000 C 294.974 10.000,294.800 11.136,294.800 12.608 C 294.800 15.401,296.149 18.400,297.405 18.400 C 297.732 18.400,298.000 18.580,298.000 18.800 C 298.000 19.020,298.540 19.200,299.200 19.200 C 299.860 19.200,300.400 19.380,300.400 19.600 C 300.400 19.828,301.592 20.000,303.176 20.000 C 304.703 20.000,306.064 20.180,306.200 20.400 C 306.336 20.620,307.067 20.800,307.824 20.800 C 308.581 20.800,309.200 20.980,309.200 21.200 C 309.200 21.420,309.459 21.600,309.775 21.600 C 310.471 21.600,314.522 23.773,316.238 25.067 C 316.919 25.580,317.605 26.000,317.764 26.000 C 317.922 26.000,318.903 26.855,319.944 27.900 C 322.590 30.557,328.400 32.275,328.400 30.400 C 328.400 30.180,328.673 30.000,329.007 30.000 C 329.341 30.000,330.785 28.830,332.215 27.400 C 333.645 25.970,335.048 24.800,335.332 24.800 C 335.616 24.800,336.198 24.485,336.625 24.099 C 337.051 23.714,338.300 22.975,339.400 22.456 C 340.500 21.937,341.713 21.352,342.095 21.156 C 342.477 20.960,343.242 20.800,343.795 20.800 C 344.348 20.800,344.800 20.620,344.800 20.400 C 344.800 20.169,346.059 20.000,347.776 20.000 C 349.413 20.000,350.864 19.820,351.000 19.600 C 351.136 19.380,351.651 19.200,352.145 19.200 C 353.196 19.200,356.000 16.777,356.000 15.870 C 356.000 15.527,356.180 15.136,356.400 15.000 C 357.428 14.364,356.721 10.433,355.300 8.887 C 355.025 8.588,354.800 8.176,354.800 7.971 C 354.800 7.767,354.530 7.600,354.200 7.600 C 353.870 7.600,353.600 7.420,353.600 7.200 C 353.600 6.980,353.240 6.800,352.800 6.800 C 352.360 6.800,352.000 6.620,352.000 6.400 C 352.000 6.169,350.733 6.000,349.000 6.000 C 347.267 6.000,346.000 6.169,346.000 6.400 C 346.000 6.622,344.933 6.800,343.600 6.800 C 342.267 6.800,341.200 6.978,341.200 7.200 C 341.200 7.420,340.660 7.600,340.000 7.600 C 339.340 7.600,338.800 7.780,338.800 8.000 C 338.800 8.220,338.260 8.400,337.600 8.400 C 336.940 8.400,336.400 8.580,336.400 8.800 C 336.400 9.020,335.860 9.200,335.200 9.200 C 334.540 9.200,334.000 9.357,334.000 9.550 C 334.000 9.743,333.505 10.000,332.900 10.122 C 331.752 10.354,326.698 13.439,326.467 14.049 C 326.233 14.665,325.610 14.436,323.278 12.875 C 320.681 11.136,318.374 10.000,317.440 10.000 C 317.088 10.000,316.800 9.820,316.800 9.600 C 316.800 9.380,316.440 9.200,316.000 9.200 C 315.560 9.200,315.200 9.020,315.200 8.800 C 315.200 8.580,314.660 8.400,314.000 8.400 C 313.340 8.400,312.800 8.220,312.800 8.000 C 312.800 7.780,312.080 7.600,311.200 7.600 C 310.320 7.600,309.600 7.420,309.600 7.200 C 309.600 6.980,308.700 6.800,307.600 6.800 C 306.500 6.800,305.600 6.620,305.600 6.400 C 305.600 6.169,304.341 6.000,302.624 6.000 C 300.987 6.000,299.536 6.180,299.400 6.400 M46.800 42.400 C 46.800 42.620,46.612 42.800,46.383 42.800 C 43.960 42.800,42.657 49.869,44.600 52.471 C 45.896 54.205,48.161 55.200,50.814 55.200 C 52.100 55.200,53.264 55.380,53.400 55.600 C 53.536 55.820,54.357 56.000,55.224 56.000 C 56.091 56.000,56.800 56.180,56.800 56.400 C 56.800 56.620,57.340 56.800,58.000 56.800 C 58.660 56.800,59.200 56.938,59.200 57.106 C 59.200 57.407,62.101 58.800,62.727 58.800 C 62.904 58.800,63.398 59.120,63.825 59.511 C 64.251 59.902,65.230 60.662,66.000 61.200 C 66.770 61.738,68.243 63.038,69.274 64.089 C 70.776 65.620,71.415 66.000,72.494 66.000 C 73.234 66.000,74.036 66.196,74.275 66.435 C 74.588 66.748,74.785 66.748,74.978 66.435 C 75.126 66.196,75.777 66.000,76.424 66.000 C 77.071 66.000,77.600 65.820,77.600 65.600 C 77.600 65.380,77.879 65.200,78.219 65.200 C 78.560 65.200,80.081 63.940,81.600 62.400 C 83.119 60.860,84.640 59.600,84.981 59.600 C 85.321 59.600,85.600 59.420,85.600 59.200 C 85.600 58.980,85.775 58.800,85.989 58.800 C 86.203 58.800,87.328 58.375,88.489 57.856 C 92.121 56.230,92.805 56.000,93.995 56.000 C 94.632 56.000,95.264 55.820,95.400 55.600 C 95.536 55.380,96.897 55.200,98.424 55.200 C 100.008 55.200,101.200 55.028,101.200 54.800 C 101.200 54.580,101.478 54.400,101.818 54.400 C 102.492 54.400,103.908 53.065,104.700 51.683 C 106.188 49.087,104.606 42.800,102.464 42.800 C 102.209 42.800,102.000 42.620,102.000 42.400 C 102.000 42.155,100.075 42.000,97.024 42.000 C 94.137 42.000,91.943 42.168,91.800 42.400 C 91.664 42.620,90.753 42.800,89.776 42.800 C 88.799 42.800,88.000 42.980,88.000 43.200 C 88.000 43.420,87.532 43.600,86.960 43.600 C 86.389 43.600,85.264 43.889,84.460 44.242 C 81.386 45.592,79.395 46.611,79.267 46.900 C 79.193 47.065,78.961 47.200,78.750 47.200 C 78.256 47.200,76.004 48.780,75.101 49.761 C 74.715 50.180,74.400 50.315,74.400 50.061 C 74.400 49.808,74.170 49.600,73.888 49.600 C 73.607 49.600,73.117 49.240,72.800 48.800 C 72.483 48.360,71.903 48.000,71.512 48.000 C 71.120 48.000,70.800 47.839,70.800 47.642 C 70.800 47.029,64.161 44.007,62.233 43.742 C 61.225 43.604,60.400 43.336,60.400 43.146 C 60.400 42.956,59.680 42.800,58.800 42.800 C 57.920 42.800,57.200 42.620,57.200 42.400 C 57.200 42.154,55.200 42.000,52.000 42.000 C 48.800 42.000,46.800 42.154,46.800 42.400 " stroke="none" fill="#433b67" fill-rule="evenodd"></path><path id="path3" d="M96.400 219.310 C 82.584 223.532,85.383 241.525,100.117 243.212 C 112.870 244.672,115.876 260.630,104.432 266.121 L 102.600 267.000 51.300 267.104 L -0.000 267.209 -0.000 309.404 L 0.000 351.600 9.100 351.601 C 19.397 351.603,33.394 350.841,46.400 349.571 C 52.510 348.975,62.116 347.786,65.600 347.195 C 66.810 346.989,69.150 346.616,70.800 346.365 C 79.504 345.041,99.854 340.555,107.200 338.341 C 116.098 335.659,117.882 335.103,118.600 334.790 C 119.040 334.598,121.290 333.815,123.600 333.050 C 130.740 330.685,142.844 326.016,148.500 323.445 C 149.765 322.870,151.835 321.939,153.100 321.375 C 161.646 317.566,181.127 307.807,189.657 303.063 C 190.616 302.529,192.570 301.471,194.000 300.711 C 199.579 297.744,207.458 293.478,208.600 292.806 C 209.737 292.136,211.725 291.085,223.000 285.191 C 229.962 281.551,237.141 278.002,242.400 275.600 C 244.930 274.444,248.130 272.982,249.510 272.349 C 250.891 271.717,252.100 271.200,252.198 271.200 C 252.296 271.200,253.327 270.766,254.488 270.236 C 264.127 265.835,282.274 259.490,296.200 255.652 C 300.035 254.595,311.094 251.945,314.000 251.387 C 314.770 251.239,316.120 250.956,317.000 250.758 C 319.079 250.290,322.439 249.652,325.200 249.200 C 326.410 249.002,328.480 248.650,329.800 248.419 C 333.796 247.717,343.941 246.314,348.600 245.819 C 356.194 245.013,359.545 244.714,366.800 244.196 C 371.310 243.875,375.450 243.595,376.000 243.574 C 376.550 243.554,376.775 243.446,376.500 243.335 C 376.116 243.180,376.000 240.452,376.000 231.599 C 376.000 225.256,375.891 219.781,375.757 219.433 C 375.455 218.645,98.975 218.523,96.400 219.310 M379.200 243.198 C 377.990 243.345,382.130 243.381,388.400 243.277 C 394.670 243.174,399.875 243.024,399.967 242.944 C 400.260 242.691,381.487 242.920,379.200 243.198 " stroke="none" fill="#7bf3ec" fill-rule="evenodd"></path><path id="path4" d="M375.600 151.371 C 375.600 189.903,375.665 194.408,376.229 194.971 C 376.771 195.514,378.443 195.600,388.434 195.600 L 400.012 195.600 399.906 157.234 L 399.800 118.867 398.805 118.005 C 398.258 117.530,397.310 117.042,396.697 116.919 C 396.085 116.797,395.486 116.540,395.368 116.348 C 395.250 116.157,394.544 116.000,393.800 116.000 C 393.056 116.000,392.336 115.820,392.200 115.600 C 392.064 115.380,391.601 115.200,391.171 115.200 C 390.741 115.200,390.077 115.040,389.695 114.844 C 389.313 114.648,388.100 114.073,387.000 113.566 C 385.900 113.059,384.145 112.049,383.099 111.322 C 382.054 110.595,381.019 110.000,380.799 110.000 C 380.580 110.000,380.400 109.820,380.400 109.600 C 380.400 109.380,380.130 109.200,379.800 109.200 C 379.470 109.200,379.200 109.020,379.200 108.800 C 379.200 108.580,378.390 108.400,377.400 108.400 L 375.600 108.400 375.600 151.371 M119.400 110.057 L 118.600 110.867 119.700 110.369 C 120.305 110.096,120.800 109.720,120.800 109.536 C 120.800 108.989,120.254 109.193,119.400 110.057 M17.200 111.200 C 16.430 111.848,15.980 112.376,16.200 112.373 C 16.420 112.370,17.223 111.835,17.985 111.184 C 18.747 110.533,19.197 110.005,18.985 110.011 C 18.773 110.017,17.970 110.552,17.200 111.200 M68.300 110.629 C 67.695 110.957,67.200 111.405,67.200 111.625 C 67.200 111.844,67.740 111.625,68.400 111.137 C 70.117 109.867,70.077 109.665,68.300 110.629 M168.000 111.058 C 166.464 112.144,165.787 113.158,167.054 112.476 C 167.741 112.105,169.956 109.956,169.570 110.034 C 169.476 110.053,168.770 110.514,168.000 111.058 M268.900 110.846 C 268.185 111.304,267.600 111.841,267.600 112.039 C 267.600 112.238,267.465 112.364,267.300 112.321 C 266.744 112.174,265.200 112.851,265.200 113.241 C 265.200 113.457,265.597 113.408,266.100 113.129 C 266.595 112.855,267.097 112.655,267.215 112.687 C 267.333 112.718,268.143 112.133,269.015 111.387 C 270.827 109.836,270.785 109.639,268.900 110.846 M131.038 111.400 C 131.677 111.949,132.380 112.393,132.600 112.385 C 133.087 112.368,130.749 110.405,130.238 110.402 C 130.039 110.401,130.399 110.850,131.038 111.400 M230.817 110.713 C 230.842 111.133,233.600 112.825,233.600 112.421 C 233.600 112.233,232.970 111.707,232.200 111.253 C 231.430 110.799,230.808 110.556,230.817 110.713 M367.656 112.013 C 367.136 112.446,366.472 112.800,366.179 112.800 C 365.887 112.800,365.546 112.964,365.422 113.165 C 365.152 113.601,365.748 113.486,367.489 112.766 C 368.198 112.473,368.868 112.000,368.977 111.716 C 369.257 110.985,368.755 111.098,367.656 112.013 M115.266 112.593 C 113.789 113.407,113.316 114.000,114.144 114.000 C 114.531 114.000,114.736 113.820,114.600 113.600 C 114.464 113.380,114.611 113.200,114.927 113.200 C 115.243 113.200,115.726 112.930,116.000 112.600 C 116.579 111.903,116.520 111.902,115.266 112.593 M284.962 113.142 C 285.809 114.095,286.000 114.182,286.000 113.614 C 286.000 113.402,285.595 113.016,285.100 112.756 C 284.205 112.286,284.204 112.288,284.962 113.142 M164.584 113.227 C 164.160 113.913,164.539 113.980,165.377 113.367 C 166.026 112.893,166.046 112.800,165.500 112.800 C 165.141 112.800,164.729 112.992,164.584 113.227 M184.800 113.331 C 185.350 113.620,186.227 114.087,186.748 114.368 C 187.270 114.650,187.581 114.693,187.440 114.465 C 187.138 113.977,184.871 112.799,184.239 112.802 C 183.997 112.804,184.250 113.042,184.800 113.331 M214.056 113.613 C 213.536 114.046,212.782 114.400,212.379 114.400 C 211.977 114.400,211.536 114.580,211.400 114.800 C 210.893 115.620,214.031 114.426,215.043 113.415 C 215.927 112.530,215.174 112.682,214.056 113.613 M235.212 113.051 C 235.205 113.299,235.470 113.726,235.800 114.000 C 236.130 114.274,236.400 114.364,236.400 114.200 C 236.400 114.036,236.715 114.149,237.100 114.451 C 237.733 114.948,237.748 114.934,237.255 114.304 C 236.955 113.922,236.561 113.701,236.379 113.813 C 236.198 113.925,235.864 113.698,235.637 113.308 C 235.410 112.919,235.219 112.803,235.212 113.051 M335.200 113.153 C 335.200 113.348,335.570 113.604,336.023 113.722 C 336.698 113.898,336.761 113.835,336.374 113.369 C 335.846 112.732,335.200 112.614,335.200 113.153 M263.380 113.961 C 263.171 114.160,262.640 114.412,262.200 114.522 C 261.760 114.631,261.995 114.700,262.723 114.674 C 264.019 114.627,265.555 113.600,264.329 113.600 C 264.016 113.600,263.589 113.763,263.380 113.961 M10.232 114.748 C 10.114 114.940,9.444 115.211,8.744 115.351 C 8.045 115.491,7.556 115.689,7.659 115.792 C 7.969 116.102,10.800 115.191,10.800 114.781 C 10.800 114.305,10.516 114.289,10.232 114.748 M39.200 115.624 C 39.200 115.857,39.365 115.945,39.566 115.821 C 39.767 115.697,40.012 115.821,40.111 116.098 C 40.210 116.374,40.423 116.477,40.585 116.327 C 40.747 116.176,40.761 115.861,40.616 115.627 C 40.275 115.075,39.200 115.072,39.200 115.624 M89.257 115.644 C 89.964 116.091,90.800 116.095,90.800 115.650 C 90.800 115.458,90.331 115.300,89.757 115.300 C 89.021 115.300,88.874 115.401,89.257 115.644 M208.812 115.584 C 208.488 115.789,208.363 116.096,208.533 116.267 C 208.704 116.437,208.969 116.384,209.122 116.148 C 209.275 115.913,209.670 115.617,210.000 115.492 C 210.533 115.289,210.533 115.260,210.000 115.238 C 209.670 115.224,209.135 115.380,208.812 115.584 M259.200 115.576 C 259.200 116.247,259.909 116.413,260.146 115.798 C 260.285 115.435,260.144 115.200,259.787 115.200 C 259.464 115.200,259.200 115.369,259.200 115.576 M290.400 115.386 C 290.400 115.488,290.756 115.762,291.191 115.995 C 291.836 116.341,291.939 116.306,291.748 115.809 C 291.541 115.269,290.400 114.911,290.400 115.386 M340.145 115.478 C 340.577 115.911,341.600 115.971,341.600 115.565 C 341.600 115.364,341.210 115.200,340.733 115.200 C 340.257 115.200,339.992 115.325,340.145 115.478 M41.865 116.506 C 41.980 116.691,42.282 116.767,42.537 116.675 C 42.791 116.583,43.360 116.693,43.800 116.920 C 44.512 117.286,44.540 117.259,44.058 116.673 C 43.519 116.020,41.468 115.863,41.865 116.506 M55.367 116.346 C 55.566 116.669,57.600 116.493,57.600 116.153 C 57.600 116.069,57.049 116.000,56.376 116.000 C 55.703 116.000,55.249 116.156,55.367 116.346 M105.000 116.400 C 104.864 116.620,105.023 116.800,105.353 116.800 C 105.683 116.800,106.064 116.620,106.200 116.400 C 106.336 116.180,106.177 116.000,105.847 116.000 C 105.517 116.000,105.136 116.180,105.000 116.400 M143.000 116.400 C 144.101 116.873,144.492 116.873,144.200 116.400 C 144.064 116.180,143.558 116.013,143.076 116.028 C 142.231 116.055,142.229 116.069,143.000 116.400 M242.800 116.153 C 242.800 116.238,243.250 116.393,243.800 116.498 C 244.350 116.603,244.800 116.534,244.800 116.345 C 244.800 116.155,244.350 116.000,243.800 116.000 C 243.250 116.000,242.800 116.069,242.800 116.153 M306.000 116.400 C 306.000 116.906,306.817 116.906,307.600 116.400 C 308.068 116.098,307.957 116.011,307.100 116.006 C 306.495 116.003,306.000 116.180,306.000 116.400 M356.400 116.400 C 355.915 116.714,355.972 116.789,356.700 116.794 C 357.195 116.797,357.600 116.620,357.600 116.400 C 357.600 115.899,357.176 115.899,356.400 116.400 M1.244 118.044 C 0.158 119.211,0.478 119.531,1.644 118.444 C 2.138 117.985,2.438 117.505,2.311 117.378 C 2.184 117.251,1.704 117.551,1.244 118.044 " stroke="none" fill="#24acfc" fill-rule="evenodd"></path></g></svg>