<svg width="26" height="26" viewBox="0 0 26 26" fill="none" xmlns="http://www.w3.org/2000/svg">
<path d="M17.3334 8.66667V7.58333C17.3334 5.1901 15.3933 3.25 13 3.25V3.25C10.6068 3.25 8.66669 5.1901 8.66669 7.58333V8.66667" stroke="black" stroke-width="2" stroke-linecap="round"/>
<path fill-rule="evenodd" clip-rule="evenodd" d="M4.12868 8.46218C3.25 9.34086 3.25 10.7551 3.25 13.5835V15.8335C3.25 19.6047 3.25 21.4904 4.42157 22.6619C5.59315 23.8335 7.47876 23.8335 11.25 23.8335H14.75C18.5212 23.8335 20.4069 23.8335 21.5784 22.6619C22.75 21.4904 22.75 19.6047 22.75 15.8335V13.5835C22.75 10.7551 22.75 9.34086 21.8713 8.46218C20.9926 7.5835 19.5784 7.5835 16.75 7.5835H9.25C6.42157 7.5835 5.00736 7.5835 4.12868 8.46218ZM13 16.4168C13.6904 16.4168 14.25 15.8572 14.25 15.1668C14.25 14.4765 13.6904 13.9168 13 13.9168C12.3096 13.9168 11.75 14.4765 11.75 15.1668C11.75 15.8572 12.3096 16.4168 13 16.4168ZM16.25 15.1668C16.25 16.6128 15.3056 17.8383 14 18.2601V20.5835H12V18.2601C10.6944 17.8383 9.75 16.6128 9.75 15.1668C9.75 13.3719 11.2051 11.9168 13 11.9168C14.7949 11.9168 16.25 13.3719 16.25 15.1668Z" fill="black"/>
</svg>
