<svg id="svg" version="1.1" xmlns="http://www.w3.org/2000/svg" xmlns:xlink="http://www.w3.org/1999/xlink" width="400" height="400" viewBox="0, 0, 400,400"><g id="svgg"><path id="path0" d="M38.400 62.000 L 38.400 74.000 63.800 74.000 L 89.200 74.000 89.200 62.262 L 89.200 50.524 83.737 50.262 C 80.732 50.118,69.302 50.000,58.337 50.000 L 38.400 50.000 38.400 62.000 M233.843 57.033 C 233.709 57.381,233.600 85.281,233.600 119.033 L 233.600 180.400 269.800 180.400 L 306.000 180.400 306.000 118.663 L 306.000 56.927 297.900 56.665 C 279.904 56.081,234.107 56.345,233.843 57.033 M249.092 72.786 C 252.075 74.140,252.397 75.134,252.397 83.000 C 252.397 90.602,252.110 91.613,249.504 93.202 C 246.523 95.019,243.237 94.048,241.231 90.758 C 240.150 88.984,239.976 77.581,241.000 75.601 C 242.584 72.537,245.958 71.363,249.092 72.786 M273.170 73.046 C 276.091 74.772,277.505 87.327,275.202 91.104 C 272.847 94.967,267.153 94.967,264.798 91.104 C 263.552 89.060,263.604 77.413,264.869 75.162 C 266.505 72.253,270.222 71.305,273.170 73.046 M297.298 73.270 C 299.380 74.753,299.600 75.718,299.600 83.391 L 299.600 90.421 297.811 92.211 C 295.140 94.881,291.523 94.719,288.800 91.807 C 287.301 90.204,287.021 77.231,288.436 74.941 C 290.188 72.106,294.517 71.290,297.298 73.270 M24.181 86.905 C 24.074 87.183,24.035 92.538,24.094 98.805 L 24.200 110.200 63.900 110.302 L 103.600 110.404 103.600 98.402 L 103.600 86.400 63.987 86.400 C 32.452 86.400,24.335 86.503,24.181 86.905 M250.856 107.514 L 252.400 109.169 252.400 116.211 C 252.400 123.658,252.269 124.304,250.437 125.908 C 247.345 128.615,242.879 127.646,240.990 123.859 C 239.992 121.860,240.158 110.843,241.216 108.768 C 243.114 105.049,247.968 104.417,250.856 107.514 M273.104 106.398 C 275.691 107.976,275.997 109.025,275.999 116.346 C 276.000 124.725,274.468 127.600,270.000 127.600 C 265.532 127.600,264.000 124.725,264.001 116.346 C 264.003 107.817,265.240 105.603,270.000 105.603 C 271.092 105.603,272.313 105.916,273.104 106.398 M296.540 106.204 C 299.225 107.492,299.600 108.758,299.600 116.540 C 299.600 123.927,299.597 123.940,297.372 126.265 C 294.809 128.943,288.487 126.801,287.776 123.013 C 287.174 119.805,287.771 108.914,288.600 107.984 C 290.670 105.660,293.896 104.937,296.540 106.204 M12.000 255.400 L 12.000 388.000 32.200 388.000 L 52.400 388.000 52.400 355.800 L 52.400 323.600 40.795 323.600 C 27.571 323.600,27.613 323.609,25.631 320.358 C 24.576 318.628,24.576 316.572,25.631 314.842 C 27.613 311.591,27.571 311.600,40.795 311.600 L 52.400 311.600 52.400 302.800 L 52.400 294.000 40.954 294.000 C 30.038 294.000,29.439 293.961,28.002 293.153 C 25.090 291.516,24.007 287.905,25.631 285.242 C 27.590 282.029,27.676 282.010,40.800 281.897 L 52.200 281.800 52.308 273.100 L 52.416 264.400 40.867 264.400 C 29.517 264.400,29.295 264.384,27.969 263.490 C 24.149 260.916,23.733 257.032,26.942 253.911 C 27.571 253.300,28.111 252.762,28.142 252.715 C 28.174 252.668,33.600 252.533,40.200 252.415 L 52.200 252.200 52.200 243.600 L 52.200 235.000 40.528 234.800 C 29.480 234.611,28.796 234.555,27.728 233.763 C 23.210 230.413,24.092 224.554,29.349 222.993 C 30.899 222.533,33.776 222.400,42.212 222.400 L 53.079 222.400 53.784 220.835 C 56.135 215.621,61.748 213.825,70.200 215.581 C 71.300 215.809,73.190 216.168,74.400 216.378 C 75.610 216.588,77.635 216.949,78.900 217.180 C 82.562 217.849,85.081 218.297,90.000 219.155 C 92.530 219.596,96.220 220.250,98.200 220.608 C 100.180 220.967,102.880 221.427,104.200 221.631 C 105.520 221.835,107.680 222.196,109.000 222.433 C 113.440 223.230,115.208 223.459,115.404 223.262 C 115.512 223.155,115.600 217.154,115.600 209.928 C 115.600 196.214,115.606 196.162,117.400 194.065 C 118.263 193.056,120.436 192.000,121.649 192.000 C 122.356 192.000,122.400 191.579,122.400 184.880 C 122.400 177.297,122.281 176.800,120.458 176.800 C 119.918 176.800,118.873 176.341,118.137 175.779 C 115.489 173.759,115.600 174.992,115.600 147.620 L 115.600 122.800 63.800 122.800 L 12.000 122.800 12.000 255.400 M66.885 134.073 C 70.601 135.186,72.345 139.613,70.380 142.944 C 68.616 145.933,69.651 145.800,48.169 145.800 L 28.938 145.800 27.500 144.703 C 23.488 141.643,24.041 136.446,28.600 134.352 C 30.583 133.441,63.964 133.198,66.885 134.073 M98.440 134.054 C 103.992 135.910,103.992 143.972,98.440 145.635 C 95.597 146.487,86.026 145.961,84.494 144.868 C 80.744 142.194,81.162 136.491,85.255 134.464 C 87.262 133.471,95.892 133.203,98.440 134.054 M249.192 139.501 C 252.058 140.940,252.400 142.039,252.400 149.800 C 252.400 158.821,250.984 161.190,245.918 160.644 C 241.400 160.158,240.400 158.193,240.400 149.800 C 240.400 140.370,243.558 136.670,249.192 139.501 M272.746 139.619 C 275.654 141.256,276.000 142.330,276.000 149.733 C 276.000 154.862,275.865 156.548,275.376 157.529 C 273.297 161.695,266.703 161.695,264.624 157.529 C 263.529 155.334,263.729 143.446,264.889 141.753 C 266.787 138.983,270.044 138.098,272.746 139.619 M296.392 139.501 C 299.248 140.935,299.600 142.053,299.600 149.679 C 299.600 154.706,299.456 156.717,299.038 157.520 C 296.913 161.604,291.140 161.867,288.500 158.000 C 287.112 155.966,287.122 143.628,288.514 141.559 C 290.224 139.018,293.650 138.123,296.392 139.501 M67.738 164.013 C 71.941 165.989,72.362 172.033,68.480 174.667 C 67.470 175.352,66.152 175.400,48.169 175.400 L 28.938 175.400 27.469 174.279 C 23.375 171.157,24.044 165.921,28.800 163.869 C 31.283 162.798,65.421 162.924,67.738 164.013 M98.600 163.766 C 103.489 165.460,104.026 172.932,99.400 174.892 C 97.043 175.890,86.049 175.578,84.494 174.468 C 80.785 171.823,81.181 166.199,85.221 164.132 C 87.394 163.021,95.785 162.791,98.600 163.766 M66.883 193.329 C 71.783 195.035,72.819 201.135,68.706 204.068 L 67.400 205.000 48.169 205.000 L 28.938 205.000 27.468 203.879 C 23.375 200.757,24.045 195.521,28.800 193.469 C 30.722 192.640,64.547 192.515,66.883 193.329 M98.372 193.287 C 103.963 195.195,104.053 203.237,98.501 204.779 C 96.840 205.240,88.450 205.350,86.388 204.938 C 81.665 203.993,80.331 196.840,84.386 194.200 C 86.531 192.803,95.280 192.232,98.372 193.287 M279.300 353.894 C 280.345 353.976,282.055 353.976,283.100 353.894 C 284.145 353.812,283.290 353.744,281.200 353.744 C 279.110 353.744,278.255 353.812,279.300 353.894 M285.383 371.200 C 285.383 380.550,285.436 384.375,285.500 379.700 C 285.564 375.025,285.564 367.375,285.500 362.700 C 285.436 358.025,285.383 361.850,285.383 371.200 M279.300 388.294 C 280.345 388.376,282.055 388.376,283.100 388.294 C 284.145 388.212,283.290 388.144,281.200 388.144 C 279.110 388.144,278.255 388.212,279.300 388.294 " stroke="none" fill="#faad3d" fill-rule="evenodd"></path><path id="path1" d="M152.000 13.634 C 142.612 16.059,136.736 24.162,137.955 33.000 C 138.887 39.755,132.928 43.143,128.054 38.629 C 125.695 36.444,124.822 36.000,122.888 36.000 C 116.236 36.000,114.525 45.213,120.687 47.849 C 123.182 48.917,181.261 48.636,183.513 47.545 C 190.064 44.374,187.117 36.000,179.451 36.000 C 175.232 36.000,172.807 33.858,172.795 30.120 C 172.764 20.129,161.481 11.184,152.000 13.634 M152.616 17.807 C 160.656 19.855,167.440 26.688,168.797 34.105 C 169.513 38.014,171.539 40.000,174.811 40.000 C 177.499 40.000,183.200 44.659,183.200 46.856 C 183.200 47.727,120.799 47.254,119.562 46.373 C 118.923 45.918,118.400 45.288,118.400 44.973 C 118.400 44.658,118.220 44.400,118.000 44.400 C 117.780 44.400,117.600 43.472,117.600 42.338 C 117.600 36.979,123.239 35.060,127.323 39.029 C 130.724 42.335,134.616 42.344,137.433 39.053 L 138.800 37.456 138.800 32.422 C 138.800 20.761,143.731 15.544,152.616 17.807 M350.828 71.076 C 350.918 72.115,351.544 72.996,351.572 72.124 C 351.587 71.642,351.420 71.136,351.200 71.000 C 350.980 70.864,350.813 70.898,350.828 71.076 M336.267 71.467 C 336.120 71.613,336.011 72.108,336.025 72.567 C 336.049 73.333,336.082 73.323,336.434 72.442 C 336.826 71.463,336.744 70.989,336.267 71.467 M351.615 73.600 C 351.631 74.440,352.833 75.788,354.439 76.767 C 355.757 77.571,356.312 77.597,371.900 77.599 L 388.000 77.600 388.000 232.754 L 388.000 387.909 377.100 388.180 C 371.105 388.329,358.010 388.394,348.000 388.325 L 329.800 388.200 329.600 287.800 C 329.430 202.321,329.316 187.251,328.835 186.400 C 327.647 184.297,326.543 183.088,324.965 182.161 C 322.679 180.818,322.266 180.957,324.422 182.344 C 326.242 183.514,327.341 184.634,328.400 186.400 C 328.928 187.281,329.012 199.364,329.103 287.563 C 329.178 360.770,329.327 387.871,329.654 388.265 C 330.024 388.711,335.163 388.787,359.151 388.703 L 388.200 388.600 388.301 232.900 L 388.401 77.200 372.101 77.199 C 353.889 77.197,354.189 77.241,352.398 74.304 C 351.961 73.587,351.608 73.270,351.615 73.600 M335.077 74.645 C 333.468 76.796,332.737 76.986,325.220 77.200 L 318.200 77.400 318.098 128.975 C 318.018 169.972,318.100 180.616,318.498 180.869 C 318.774 181.044,319.720 181.178,320.600 181.166 C 322.446 181.140,321.459 180.478,319.500 180.428 L 318.400 180.400 318.400 129.000 L 318.400 77.600 325.016 77.600 C 332.272 77.600,334.021 77.161,335.448 74.982 C 336.311 73.666,336.012 73.395,335.077 74.645 M352.300 89.099 C 354.995 89.168,359.405 89.168,362.100 89.099 C 364.795 89.030,362.590 88.973,357.200 88.973 C 351.810 88.973,349.605 89.030,352.300 89.099 M345.216 90.248 C 341.926 93.016,342.303 97.874,345.967 99.934 C 347.977 101.063,365.911 101.280,367.999 100.200 C 371.567 98.355,372.394 93.689,369.662 90.817 C 368.816 89.928,367.871 89.207,367.562 89.216 C 367.253 89.225,367.479 89.492,368.063 89.810 C 371.813 91.846,371.618 98.230,367.757 99.844 C 365.289 100.875,347.237 100.482,345.728 99.364 C 342.575 97.028,342.693 92.314,345.959 90.115 C 346.707 89.612,347.125 89.200,346.890 89.200 C 346.654 89.200,345.901 89.672,345.216 90.248 M347.725 126.269 C 344.721 126.688,341.790 131.441,343.206 133.600 C 343.486 134.028,343.529 133.834,343.354 132.921 C 343.032 131.242,344.383 128.419,345.953 127.491 C 346.980 126.885,348.381 126.800,357.409 126.800 L 367.694 126.800 369.295 128.401 C 371.572 130.678,371.442 134.163,369.003 136.272 C 368.158 137.003,367.632 137.600,367.833 137.600 C 370.300 137.596,372.110 132.120,370.606 129.212 C 369.147 126.390,368.402 126.206,358.200 126.146 C 353.140 126.116,348.426 126.172,347.725 126.269 M343.600 134.715 C 343.600 135.285,345.944 137.600,346.520 137.600 C 346.772 137.600,346.589 137.328,346.114 136.995 C 345.639 136.662,344.879 135.918,344.425 135.341 C 343.971 134.764,343.600 134.483,343.600 134.715 M347.600 138.000 C 348.343 138.480,365.483 138.480,366.600 138.000 C 367.075 137.796,363.262 137.647,357.200 137.634 C 350.477 137.620,347.205 137.744,347.600 138.000 M167.197 146.750 C 162.818 148.187,160.428 151.079,159.556 156.000 C 158.742 160.588,156.865 162.400,152.927 162.400 C 149.353 162.400,147.997 166.593,151.307 167.408 C 154.172 168.115,194.471 167.391,195.032 166.624 C 196.924 164.036,193.377 160.752,191.247 163.119 C 186.452 168.449,180.685 165.569,180.594 157.800 C 180.501 149.848,174.028 144.509,167.197 146.750 M171.253 149.323 C 175.749 150.875,177.988 153.567,178.018 157.454 C 178.051 161.941,179.138 164.411,181.800 166.056 C 182.981 166.785,182.747 166.797,167.180 166.799 C 150.391 166.800,150.400 166.801,150.400 164.891 C 150.400 163.365,151.312 162.800,153.777 162.800 C 156.759 162.800,158.128 162.035,159.147 159.800 C 159.447 159.140,159.852 158.287,160.047 157.905 C 160.241 157.523,160.400 156.486,160.400 155.600 C 160.400 153.961,160.846 152.870,162.100 151.445 C 162.485 151.007,162.800 150.521,162.800 150.364 C 162.800 148.649,167.593 148.059,171.253 149.323 M347.262 163.699 C 345.935 164.134,343.600 166.127,343.600 166.825 C 343.600 167.025,344.216 166.516,344.969 165.694 L 346.337 164.200 356.551 164.081 C 367.903 163.948,368.516 164.059,370.016 166.519 C 372.251 170.185,369.995 174.443,365.522 175.002 C 360.868 175.584,347.113 175.063,345.920 174.261 C 344.395 173.235,343.044 170.295,343.354 168.679 C 343.529 167.766,343.486 167.572,343.206 168.000 C 341.561 170.509,344.748 174.936,348.541 175.410 C 353.926 176.083,367.319 175.457,368.706 174.468 C 372.386 171.844,371.995 166.104,368.000 164.102 C 366.300 163.250,349.622 162.926,347.262 163.699 M192.200 166.400 C 192.752 166.637,192.195 166.740,190.400 166.732 C 188.520 166.724,188.077 166.632,188.800 166.400 C 190.117 165.978,191.219 165.978,192.200 166.400 M346.200 201.544 C 342.581 203.780,341.862 207.781,344.548 210.738 C 346.352 212.724,346.881 212.806,357.280 212.714 L 367.000 212.627 357.000 212.414 C 345.246 212.163,344.729 211.997,343.584 208.127 C 342.934 205.929,344.238 203.053,346.394 201.927 C 348.404 200.878,365.700 200.830,367.887 201.868 C 370.015 202.878,370.874 204.531,370.698 207.277 C 370.618 208.529,370.698 209.463,370.876 209.353 C 372.550 208.319,370.518 202.702,367.999 201.400 C 366.085 200.410,347.841 200.531,346.200 201.544 M369.780 210.432 C 369.633 210.670,368.947 211.210,368.256 211.631 C 367.565 212.052,367.222 212.398,367.494 212.399 C 368.006 212.400,370.813 210.032,370.324 210.012 C 370.172 210.005,369.927 210.195,369.780 210.432 M64.597 227.268 C 64.486 227.561,64.441 263.890,64.497 308.000 L 64.600 388.200 75.200 388.200 L 85.800 388.200 86.019 358.200 C 86.163 338.369,86.384 327.725,86.671 326.800 C 87.831 323.060,88.600 321.158,90.071 318.400 C 103.664 292.917,143.782 294.596,154.820 321.110 C 157.802 328.274,158.000 330.841,158.000 362.442 L 158.000 388.400 168.401 388.400 L 178.802 388.400 178.701 317.922 L 178.600 247.443 175.000 246.720 C 169.888 245.694,165.079 244.819,135.600 239.549 C 133.070 239.097,130.100 238.555,129.000 238.345 C 127.900 238.135,126.010 237.800,124.800 237.600 C 123.590 237.400,121.700 237.065,120.600 236.855 C 119.500 236.645,116.440 236.089,113.800 235.619 C 111.160 235.149,108.055 234.593,106.900 234.383 C 105.745 234.172,103.855 233.836,102.700 233.635 C 101.545 233.434,100.150 233.180,99.600 233.070 C 97.508 232.651,94.110 232.021,91.800 231.623 C 90.480 231.396,87.420 230.849,85.000 230.409 C 82.580 229.968,77.540 229.061,73.800 228.394 C 70.060 227.727,66.505 227.081,65.900 226.958 C 65.183 226.814,64.729 226.922,64.597 227.268 M352.500 238.299 C 355.085 238.368,359.315 238.368,361.900 238.299 C 364.485 238.229,362.370 238.172,357.200 238.172 C 352.030 238.172,349.915 238.229,352.500 238.299 M345.800 239.137 C 343.599 240.483,342.263 243.548,343.115 245.297 C 343.509 246.106,343.532 246.067,343.332 244.921 C 343.007 243.064,344.422 240.376,346.297 239.290 C 347.124 238.810,347.620 238.415,347.400 238.411 C 347.180 238.406,346.460 238.733,345.800 239.137 M368.070 239.271 C 372.056 241.582,371.664 247.520,367.400 249.404 C 366.538 249.786,366.412 249.944,366.953 249.967 C 368.638 250.040,371.200 246.703,371.200 244.433 C 371.200 241.454,369.015 238.355,366.953 238.409 C 366.759 238.414,367.262 238.802,368.070 239.271 M97.518 246.442 C 99.777 247.852,100.200 249.336,100.200 255.844 L 100.200 261.947 99.000 263.209 C 93.847 268.629,88.736 265.345,88.466 256.442 C 88.199 247.622,92.247 243.150,97.518 246.442 M125.303 246.873 C 127.675 248.562,128.723 258.758,126.899 262.394 C 125.022 266.137,119.582 266.511,117.035 263.072 C 116.038 261.725,115.577 252.192,116.380 249.511 C 117.425 246.019,122.144 244.624,125.303 246.873 M152.319 246.642 C 155.102 248.463,156.127 259.985,153.779 263.063 C 151.238 266.394,146.449 266.325,144.170 262.923 C 143.344 261.691,142.856 254.087,143.379 250.600 C 143.988 246.539,148.864 244.381,152.319 246.642 M343.613 246.669 C 343.648 247.590,346.549 250.018,347.554 249.967 C 347.909 249.949,347.639 249.689,346.953 249.388 C 346.267 249.087,345.232 248.278,344.653 247.590 C 344.074 246.902,343.606 246.487,343.613 246.669 M345.754 276.491 C 344.557 277.414,343.635 278.426,343.613 278.838 C 343.606 278.969,344.328 278.384,345.217 277.538 L 346.834 276.000 357.126 276.000 L 367.418 276.000 369.009 277.234 L 370.600 278.469 369.033 277.034 L 367.467 275.600 357.187 275.600 C 347.171 275.600,346.878 275.623,345.754 276.491 M96.920 277.859 C 99.827 279.356,100.200 280.442,100.200 287.400 C 100.200 294.785,98.877 296.954,94.372 296.954 C 89.511 296.954,86.505 288.563,88.857 281.560 C 90.077 277.926,93.764 276.234,96.920 277.859 M124.841 278.108 C 127.167 279.662,127.599 281.074,127.599 287.140 C 127.600 294.742,126.285 296.971,121.800 296.971 C 117.315 296.971,116.000 294.742,116.001 287.140 C 116.001 279.767,117.499 277.200,121.800 277.200 C 122.883 277.200,123.966 277.524,124.841 278.108 M151.599 277.800 C 154.415 279.256,154.800 280.403,154.800 287.338 L 154.800 293.600 153.255 295.145 C 150.118 298.282,145.315 297.422,143.799 293.454 C 142.729 290.652,143.056 281.482,144.287 279.756 C 145.949 277.426,149.197 276.557,151.599 277.800 M370.717 280.877 C 371.245 286.367,369.130 287.293,356.456 287.126 C 351.186 287.057,347.082 287.132,347.337 287.294 C 348.176 287.827,366.245 287.653,367.481 287.100 C 370.438 285.779,372.769 280.217,370.860 279.037 C 370.673 278.922,370.609 279.749,370.717 280.877 M342.949 280.660 C 342.479 282.534,344.717 286.800,346.171 286.800 C 346.402 286.800,346.079 286.324,345.452 285.743 C 343.959 284.359,343.086 282.229,343.409 280.759 C 343.728 279.307,343.311 279.218,342.949 280.660 M117.800 312.000 C 117.068 312.186,118.627 312.305,121.800 312.305 C 124.973 312.305,126.532 312.186,125.800 312.000 C 125.140 311.832,123.340 311.695,121.800 311.695 C 120.260 311.695,118.460 311.832,117.800 312.000 M113.200 312.882 C 107.683 315.241,104.116 317.857,101.999 321.097 C 100.839 322.871,100.831 322.908,101.878 321.636 C 105.533 317.193,108.991 314.774,114.000 313.154 C 115.334 312.723,115.806 312.445,115.200 312.449 C 114.650 312.452,113.750 312.647,113.200 312.882 M128.521 312.838 C 136.975 314.828,143.847 322.483,145.542 331.800 L 145.905 333.800 145.942 332.200 C 146.124 324.340,135.102 312.169,128.047 312.440 C 127.210 312.472,127.305 312.552,128.521 312.838 M346.900 313.082 C 346.405 313.178,346.000 313.419,346.000 313.618 C 346.000 313.827,346.434 313.815,347.026 313.590 C 348.928 312.867,366.264 313.098,367.887 313.868 C 371.825 315.737,371.799 321.876,367.845 323.752 C 366.574 324.355,365.200 324.425,356.666 324.320 L 346.936 324.200 345.542 323.136 C 342.951 321.158,342.688 317.458,344.949 314.800 L 345.800 313.800 344.759 314.714 C 342.241 316.925,342.380 320.660,345.078 323.276 L 346.443 324.600 356.121 324.730 C 362.374 324.814,366.324 324.704,367.279 324.420 C 372.140 322.975,372.608 315.820,367.992 313.501 C 366.658 312.830,349.931 312.499,346.900 313.082 M99.023 326.206 C 98.115 328.380,98.276 328.911,99.216 326.840 C 99.655 325.873,99.932 324.998,99.831 324.897 C 99.730 324.796,99.366 325.385,99.023 326.206 M97.856 329.684 C 97.721 330.188,97.631 331.410,97.656 332.400 C 97.697 334.024,97.734 333.947,98.035 331.618 C 98.378 328.971,98.293 328.054,97.856 329.684 M146.097 361.658 L 146.000 387.916 139.900 388.184 C 136.545 388.331,125.672 388.395,115.738 388.326 C 105.804 388.257,97.760 388.335,97.862 388.500 C 98.232 389.098,145.454 388.858,145.954 388.256 C 146.282 387.860,146.377 380.547,146.300 361.556 L 146.194 335.400 146.097 361.658 M258.261 353.500 C 258.159 353.665,264.017 353.748,271.278 353.684 C 280.867 353.600,284.633 353.696,285.040 354.033 C 285.742 354.616,285.888 387.791,285.190 388.137 C 284.964 388.249,285.010 388.294,285.290 388.237 C 285.989 388.095,286.247 354.579,285.555 353.746 C 285.055 353.144,258.630 352.905,258.261 353.500 M258.536 388.494 C 258.791 388.656,263.230 388.755,268.400 388.716 C 278.417 388.639,277.212 388.477,265.336 388.305 C 261.341 388.247,258.281 388.332,258.536 388.494 " stroke="none" fill="#187acb" fill-rule="evenodd"></path><path id="path2" d="M143.794 18.849 C 139.959 22.383,138.800 25.534,138.800 32.422 L 138.800 37.456 137.433 39.053 C 134.616 42.344,130.724 42.335,127.323 39.029 C 123.239 35.060,117.600 36.979,117.600 42.338 C 117.600 43.472,117.780 44.400,118.000 44.400 C 118.220 44.400,118.400 44.658,118.400 44.973 C 118.400 45.288,118.923 45.918,119.562 46.373 C 120.799 47.254,183.200 47.727,183.200 46.856 C 183.200 44.659,177.499 40.000,174.811 40.000 C 171.539 40.000,169.513 38.014,168.797 34.105 C 166.728 22.797,150.351 12.804,143.794 18.849 M336.429 72.500 C 335.117 76.978,333.725 77.600,325.016 77.600 L 318.400 77.600 318.400 129.000 L 318.400 180.400 319.300 180.404 C 323.031 180.422,326.794 182.789,328.835 186.400 C 329.316 187.251,329.430 202.321,329.600 287.800 L 329.800 388.200 348.000 388.325 C 358.010 388.394,371.105 388.329,377.100 388.180 L 388.000 387.909 388.000 232.754 L 388.000 77.600 371.900 77.599 C 352.762 77.597,352.825 77.612,351.288 72.502 L 350.776 70.800 343.851 70.800 L 336.927 70.800 336.429 72.500 M367.760 89.358 C 372.263 91.239,372.411 97.919,367.999 100.200 C 365.911 101.280,347.977 101.063,345.967 99.934 C 341.643 97.503,342.141 91.107,346.800 89.249 C 348.438 88.596,366.157 88.688,367.760 89.358 M368.706 127.132 C 372.919 130.137,371.813 136.451,366.811 137.950 C 363.716 138.877,348.472 138.517,346.421 137.468 C 341.382 134.890,342.297 127.025,347.725 126.269 C 352.495 125.605,367.426 126.219,368.706 127.132 M164.100 149.223 C 163.385 149.693,162.800 150.207,162.800 150.364 C 162.800 150.521,162.485 151.007,162.100 151.445 C 160.846 152.870,160.400 153.961,160.400 155.600 C 160.400 156.486,160.241 157.523,160.047 157.905 C 159.852 158.287,159.447 159.140,159.147 159.800 C 158.128 162.035,156.759 162.800,153.777 162.800 C 151.312 162.800,150.400 163.365,150.400 164.891 C 150.400 166.801,150.391 166.800,167.180 166.799 C 182.747 166.797,182.981 166.785,181.800 166.056 C 179.138 164.411,178.051 161.941,178.018 157.454 C 177.973 151.497,168.845 146.098,164.100 149.223 M368.000 164.102 C 371.995 166.104,372.386 171.844,368.706 174.468 C 367.319 175.457,353.926 176.083,348.541 175.410 C 341.944 174.586,340.980 165.758,347.262 163.699 C 349.622 162.926,366.300 163.250,368.000 164.102 M188.800 166.400 C 188.077 166.632,188.520 166.724,190.400 166.732 C 192.195 166.740,192.752 166.637,192.200 166.400 C 191.219 165.978,190.117 165.978,188.800 166.400 M367.999 201.400 C 372.411 203.681,372.263 210.361,367.760 212.242 C 365.829 213.049,348.033 213.046,346.480 212.238 C 341.899 209.855,341.753 204.291,346.200 201.544 C 347.841 200.531,366.085 200.410,367.999 201.400 M367.913 238.855 C 371.740 240.707,372.480 245.225,369.453 248.253 L 367.705 250.000 357.377 250.000 C 347.326 250.000,347.014 249.976,345.726 249.100 C 341.712 246.371,342.185 240.780,346.600 238.752 C 349.191 237.562,365.404 237.640,367.913 238.855 M369.411 277.389 C 372.608 280.587,371.687 285.220,367.481 287.100 C 365.952 287.783,348.515 287.803,346.919 287.124 C 342.246 285.134,341.585 279.374,345.700 276.500 C 346.955 275.623,347.255 275.600,357.305 275.600 L 367.621 275.600 369.411 277.389 M114.000 313.154 C 107.423 315.281,102.604 319.433,99.861 325.336 C 97.803 329.768,97.800 329.814,97.800 360.000 L 97.800 388.200 115.800 388.324 C 125.700 388.392,136.545 388.328,139.900 388.182 L 146.000 387.916 145.992 361.258 C 145.983 330.518,145.974 330.408,143.065 324.400 C 138.514 315.004,124.751 309.678,114.000 313.154 M367.992 313.501 C 372.608 315.820,372.140 322.975,367.279 324.420 C 366.324 324.704,362.374 324.814,356.121 324.730 L 346.443 324.600 345.078 323.276 C 341.721 320.021,342.853 314.161,347.046 313.086 C 349.408 312.481,366.640 312.821,367.992 313.501 M258.480 354.080 C 257.656 354.904,257.804 387.839,258.633 388.157 C 259.469 388.478,272.312 388.465,279.500 388.136 L 285.200 387.876 285.200 371.000 L 285.200 354.124 279.500 353.864 C 269.900 353.425,259.024 353.536,258.480 354.080 " stroke="none" fill="#c4f0fb" fill-rule="evenodd"></path><path id="path3" d="M266.961 16.838 C 265.442 18.419,263.840 20.101,263.400 20.577 C 262.960 21.053,261.520 22.604,260.200 24.025 C 256.240 28.287,249.167 35.944,245.286 40.170 C 243.280 42.354,241.731 44.289,241.843 44.470 C 242.152 44.969,297.497 44.891,297.806 44.391 C 298.031 44.026,295.359 40.983,286.211 31.191 C 284.665 29.536,282.590 27.281,281.600 26.179 C 276.029 19.979,270.552 14.185,270.165 14.082 C 269.921 14.018,268.479 15.258,266.961 16.838 M38.191 62.100 L 38.200 74.200 63.900 74.303 L 89.600 74.406 89.600 62.203 L 89.600 50.000 85.700 50.083 L 81.800 50.166 85.500 50.298 L 89.200 50.430 89.200 62.215 L 89.200 74.000 63.806 74.000 L 38.412 74.000 38.297 62.000 L 38.182 50.000 38.191 62.100 M300.500 56.699 L 306.000 56.823 306.000 118.609 L 306.000 180.396 269.800 180.501 L 233.600 180.606 269.900 180.603 L 306.200 180.600 306.301 118.500 L 306.403 56.400 300.701 56.488 L 295.000 56.575 300.500 56.699 M245.000 72.287 C 241.369 73.169,240.400 75.444,240.401 83.080 C 240.403 89.616,240.648 90.705,242.538 92.595 C 244.691 94.748,248.898 94.423,250.998 91.941 L 251.794 91.000 250.797 91.850 C 247.433 94.718,243.297 94.069,241.386 90.372 C 240.522 88.703,240.552 77.420,241.424 75.671 C 242.437 73.641,244.137 72.686,246.742 72.685 C 248.247 72.684,248.733 72.579,248.200 72.370 C 247.312 72.022,246.210 71.993,245.000 72.287 M267.400 72.774 C 266.520 73.220,265.552 73.994,265.250 74.493 C 264.784 75.262,264.881 75.230,265.888 74.285 C 268.896 71.461,273.263 72.210,275.150 75.874 C 275.884 77.298,275.747 89.355,274.981 90.838 C 273.020 94.628,266.878 94.501,265.042 90.632 C 264.450 89.385,264.366 88.173,264.474 82.421 C 264.543 78.709,264.468 75.881,264.306 76.136 C 263.565 77.306,263.974 89.752,264.798 91.104 C 267.153 94.967,272.847 94.967,275.202 91.104 C 276.471 89.023,276.399 76.998,275.106 75.025 C 273.345 72.339,270.117 71.396,267.400 72.774 M291.800 72.354 C 291.247 72.581,291.706 72.684,293.283 72.685 C 295.890 72.686,297.230 73.374,298.418 75.322 C 299.669 77.375,299.586 89.022,298.306 90.975 C 295.644 95.036,289.779 94.364,288.050 89.800 L 287.595 88.600 287.827 89.800 C 288.652 94.064,294.536 95.485,297.811 92.211 L 299.600 90.421 299.600 83.391 C 299.600 75.718,299.380 74.753,297.298 73.270 C 296.032 72.368,292.995 71.863,291.800 72.354 M250.318 74.087 C 251.043 74.851,251.792 75.998,251.983 76.637 C 252.229 77.459,252.341 77.566,252.364 77.000 C 252.409 75.900,251.037 73.752,249.921 73.175 C 249.186 72.796,249.266 72.980,250.318 74.087 M289.931 73.215 C 289.107 73.696,287.588 76.095,287.632 76.847 C 287.650 77.151,287.883 76.909,288.149 76.309 C 288.415 75.709,289.154 74.674,289.791 74.009 C 291.007 72.740,291.037 72.569,289.931 73.215 M23.869 86.265 C 23.721 86.412,23.600 91.900,23.600 98.459 L 23.600 110.385 24.500 110.602 C 24.995 110.722,43.040 110.770,64.600 110.710 L 103.800 110.600 103.800 98.400 L 103.800 86.200 63.969 86.098 C 42.061 86.042,24.016 86.117,23.869 86.265 M103.600 98.402 L 103.600 110.404 63.900 110.302 L 24.200 110.200 24.094 98.805 C 24.035 92.538,24.074 87.183,24.181 86.905 C 24.335 86.503,32.452 86.400,63.987 86.400 L 103.600 86.400 103.600 98.402 M243.344 106.369 C 242.163 107.089,241.285 108.000,241.772 108.000 C 241.892 108.000,242.358 107.685,242.807 107.300 C 243.256 106.915,244.203 106.389,244.912 106.130 C 245.808 105.804,245.957 105.652,245.400 105.632 C 244.960 105.616,244.035 105.948,243.344 106.369 M248.052 106.035 C 249.725 106.521,251.315 108.069,251.919 109.800 C 252.282 110.842,252.341 110.879,252.368 110.085 C 252.416 108.694,249.707 106.040,248.000 105.806 L 246.600 105.614 248.052 106.035 M266.896 106.398 C 262.395 109.142,262.787 126.623,267.354 126.787 C 267.549 126.794,267.230 126.424,266.646 125.965 C 264.635 124.383,264.400 123.380,264.400 116.400 C 264.400 108.303,264.658 107.673,268.600 106.130 C 269.499 105.778,269.600 105.654,269.000 105.632 C 268.560 105.616,267.613 105.961,266.896 106.398 M271.989 106.329 C 275.224 107.569,275.600 108.605,275.600 116.279 C 275.600 123.390,275.371 124.378,273.354 125.965 C 272.770 126.424,272.451 126.794,272.646 126.787 C 277.213 126.623,277.605 109.142,273.104 106.398 C 272.387 105.961,271.440 105.612,271.000 105.623 C 270.552 105.635,270.987 105.945,271.989 106.329 M291.200 106.018 C 290.762 106.315,290.924 106.352,291.800 106.156 C 293.271 105.827,293.590 105.598,292.567 105.606 C 292.145 105.609,291.530 105.795,291.200 106.018 M295.000 106.130 C 298.904 107.658,299.200 108.394,299.199 116.561 C 299.197 124.801,298.464 126.282,293.952 127.168 C 292.797 127.395,292.555 127.527,293.240 127.556 C 294.442 127.607,296.811 126.851,297.409 126.227 C 299.592 123.945,299.600 123.909,299.600 116.540 C 299.600 108.106,298.378 105.472,294.540 105.630 C 294.047 105.651,294.201 105.818,295.000 106.130 M289.103 107.500 C 288.528 108.105,287.953 109.140,287.826 109.800 L 287.595 111.000 288.048 109.800 C 288.296 109.140,288.961 108.105,289.525 107.500 C 290.088 106.895,290.460 106.400,290.350 106.400 C 290.240 106.400,289.679 106.895,289.103 107.500 M240.865 109.417 C 240.208 110.859,240.237 122.518,240.900 123.705 C 242.260 126.138,244.557 127.650,246.749 127.554 C 247.637 127.515,247.583 127.462,246.400 127.209 C 243.506 126.591,242.543 125.930,241.300 123.705 C 240.660 122.560,240.603 110.715,241.232 109.539 C 241.470 109.095,241.589 108.656,241.497 108.564 C 241.405 108.472,241.121 108.856,240.865 109.417 M252.029 122.400 C 252.010 122.730,251.737 123.495,251.421 124.100 C 251.106 124.705,250.995 125.200,251.175 125.200 C 251.653 125.200,252.517 122.931,252.272 122.320 C 252.119 121.940,252.054 121.961,252.029 122.400 M11.786 122.899 C 11.681 123.174,11.641 182.980,11.698 255.800 L 11.800 388.200 32.200 388.200 L 52.600 388.200 52.604 355.900 L 52.607 323.600 52.501 355.800 L 52.395 388.000 32.198 388.000 L 12.000 388.000 12.000 255.400 L 12.000 122.800 63.800 122.800 L 115.600 122.800 115.600 147.620 C 115.600 174.992,115.489 173.759,118.137 175.779 C 118.873 176.341,119.909 176.792,120.438 176.782 C 121.187 176.769,119.055 175.683,118.127 175.606 C 118.087 175.603,117.637 175.015,117.127 174.300 L 116.200 173.000 116.000 147.800 L 115.800 122.600 63.888 122.499 C 22.569 122.418,11.937 122.499,11.786 122.899 M287.793 123.200 C 287.954 123.750,288.344 124.470,288.660 124.800 C 289.077 125.235,289.048 125.016,288.556 124.000 C 287.689 122.212,287.422 121.933,287.793 123.200 M249.000 126.427 C 248.340 126.850,247.980 127.196,248.200 127.195 C 248.420 127.195,249.140 126.837,249.800 126.400 C 250.460 125.963,250.820 125.617,250.600 125.632 C 250.380 125.647,249.660 126.004,249.000 126.427 M290.200 126.400 C 290.860 126.837,291.580 127.195,291.800 127.196 C 292.020 127.196,291.611 126.838,290.890 126.399 C 289.192 125.363,288.636 125.364,290.200 126.400 M268.538 127.294 C 268.792 127.456,269.450 127.588,270.000 127.588 C 270.550 127.588,271.208 127.456,271.462 127.294 C 271.716 127.132,271.058 127.000,270.000 127.000 C 268.942 127.000,268.284 127.132,268.538 127.294 M29.515 133.928 C 29.138 134.078,37.456 134.200,48.000 134.200 C 58.544 134.200,66.862 134.078,66.485 133.928 C 66.108 133.779,57.790 133.656,48.000 133.656 C 38.210 133.656,29.892 133.779,29.515 133.928 M85.255 134.464 C 83.674 135.247,81.991 137.184,82.011 138.200 C 82.015 138.420,82.394 137.952,82.853 137.160 C 84.394 134.503,85.381 134.200,92.486 134.200 C 95.944 134.200,98.464 134.078,98.086 133.928 C 96.248 133.200,87.032 133.585,85.255 134.464 M26.707 135.567 C 25.988 136.209,25.490 136.813,25.600 136.909 C 25.710 137.005,26.390 136.480,27.111 135.742 C 28.725 134.091,28.478 133.984,26.707 135.567 M67.820 134.706 C 68.029 134.874,68.740 135.459,69.400 136.005 L 70.600 136.997 69.425 135.699 C 68.779 134.984,68.068 134.400,67.845 134.400 C 67.594 134.400,67.584 134.516,67.820 134.706 M100.277 135.500 C 100.963 136.105,101.716 136.960,101.950 137.400 C 102.184 137.840,102.381 137.981,102.388 137.714 C 102.404 137.079,100.048 134.400,99.474 134.400 C 99.230 134.400,99.591 134.895,100.277 135.500 M70.600 139.798 C 70.600 141.186,70.735 142.238,70.900 142.137 C 71.065 142.036,71.200 140.984,71.200 139.800 C 71.200 138.616,71.065 137.564,70.900 137.461 C 70.735 137.359,70.600 138.411,70.600 139.798 M25.067 137.867 C 24.700 138.233,24.729 141.509,25.100 141.737 C 25.265 141.838,25.400 140.948,25.400 139.760 C 25.400 138.572,25.385 137.600,25.367 137.600 C 25.348 137.600,25.213 137.720,25.067 137.867 M243.543 139.663 C 239.014 142.289,238.881 157.581,243.366 159.982 C 243.934 160.286,244.519 160.414,244.666 160.267 C 244.813 160.120,244.667 160.000,244.342 160.000 C 243.681 160.000,241.938 158.268,241.249 156.926 C 240.392 155.259,240.666 143.625,241.598 142.096 C 243.549 138.896,248.166 138.225,250.413 140.815 C 250.788 141.247,251.236 141.600,251.409 141.600 C 252.064 141.600,250.145 139.866,248.913 139.345 C 247.090 138.573,245.233 138.683,243.543 139.663 M267.000 139.790 C 266.120 140.332,265.531 140.781,265.690 140.788 C 265.850 140.794,266.570 140.441,267.290 140.001 C 269.840 138.447,273.138 139.367,274.802 142.096 C 275.776 143.694,276.011 155.679,275.100 157.301 C 274.423 158.506,272.736 159.992,272.000 160.031 C 271.598 160.053,271.563 160.129,271.894 160.263 C 272.627 160.559,274.661 158.961,275.376 157.529 C 276.476 155.324,276.270 143.602,275.100 141.813 C 273.189 138.892,269.823 138.051,267.000 139.790 M293.635 139.165 C 298.290 139.818,299.197 141.543,299.199 149.746 C 299.200 156.883,298.707 158.553,296.237 159.771 C 295.249 160.259,295.166 160.384,295.825 160.391 C 296.682 160.400,298.372 158.843,299.151 157.326 C 300.093 155.494,299.732 143.116,298.692 141.559 C 297.550 139.849,295.469 138.786,293.400 138.854 L 291.800 138.907 293.635 139.165 M290.412 139.712 C 289.284 140.282,287.594 142.604,287.611 143.559 C 287.617 143.912,288.036 143.390,288.541 142.400 C 289.047 141.410,289.855 140.402,290.337 140.160 C 291.206 139.723,291.888 139.195,291.567 139.206 C 291.475 139.209,290.955 139.437,290.412 139.712 M82.007 141.320 C 81.979 142.671,84.749 145.600,86.056 145.600 C 86.348 145.600,85.960 145.266,85.194 144.858 C 84.427 144.450,83.398 143.415,82.907 142.558 C 82.415 141.701,82.010 141.144,82.007 141.320 M264.623 142.089 C 263.957 143.040,263.663 156.544,264.300 156.939 C 264.465 157.041,264.543 154.079,264.474 150.357 C 264.373 144.970,264.469 143.345,264.943 142.394 C 265.647 140.983,265.497 140.841,264.623 142.089 M101.531 142.792 C 100.238 145.044,99.194 145.378,92.620 145.640 L 86.600 145.880 92.672 145.840 C 98.146 145.804,98.853 145.719,99.848 144.975 C 101.087 144.049,102.642 142.108,102.366 141.832 C 102.266 141.733,101.891 142.165,101.531 142.792 M251.844 143.000 C 252.173 144.471,252.402 144.790,252.394 143.767 C 252.391 143.345,252.205 142.730,251.982 142.400 C 251.685 141.962,251.648 142.124,251.844 143.000 M25.600 142.664 C 25.600 142.882,26.095 143.497,26.700 144.030 L 27.800 145.000 26.800 143.800 C 26.250 143.140,25.755 142.525,25.700 142.433 C 25.645 142.342,25.600 142.445,25.600 142.664 M68.885 144.100 L 67.585 145.400 48.693 145.619 L 29.800 145.838 48.600 145.819 C 69.029 145.798,68.811 145.821,70.030 143.543 C 70.586 142.506,70.378 142.606,68.885 144.100 M252.046 155.720 C 251.899 158.008,249.846 159.868,246.853 160.424 L 245.000 160.769 246.946 160.628 C 249.811 160.422,252.789 157.674,252.278 155.710 C 252.103 155.039,252.090 155.039,252.046 155.720 M287.600 156.041 C 287.599 158.107,291.072 160.837,293.594 160.753 C 294.895 160.709,294.862 160.683,293.147 160.393 C 290.685 159.977,289.429 159.093,288.428 157.072 C 287.973 156.153,287.600 155.688,287.600 156.041 M264.800 157.904 C 264.800 158.574,267.489 160.510,268.087 160.269 C 268.428 160.132,268.382 160.053,267.947 160.032 C 267.589 160.014,266.734 159.426,266.047 158.724 C 265.361 158.022,264.800 157.653,264.800 157.904 M269.300 160.676 C 269.685 160.776,270.315 160.776,270.700 160.676 C 271.085 160.575,270.770 160.493,270.000 160.493 C 269.230 160.493,268.915 160.575,269.300 160.676 M29.738 163.506 C 29.484 163.668,37.792 163.800,48.200 163.800 C 58.608 163.800,66.916 163.668,66.662 163.506 C 66.408 163.344,58.100 163.212,48.200 163.212 C 38.300 163.212,29.992 163.344,29.738 163.506 M86.538 163.506 C 86.284 163.668,88.832 163.800,92.200 163.800 C 95.568 163.800,98.116 163.668,97.862 163.506 C 97.608 163.344,95.060 163.212,92.200 163.212 C 89.340 163.212,86.792 163.344,86.538 163.506 M26.831 165.036 C 26.154 165.605,25.601 166.280,25.602 166.536 C 25.603 166.791,26.008 166.524,26.502 165.943 C 26.996 165.361,27.760 164.692,28.200 164.455 C 28.640 164.218,28.789 164.019,28.531 164.012 C 28.273 164.005,27.508 164.466,26.831 165.036 M67.635 164.100 C 67.728 164.155,68.426 164.740,69.187 165.400 C 69.947 166.060,70.306 166.240,69.985 165.800 C 69.263 164.813,68.320 164.030,67.833 164.013 C 67.632 164.006,67.543 164.045,67.635 164.100 M83.900 164.846 C 83.295 165.297,82.806 165.877,82.813 166.133 C 82.820 166.411,83.023 166.349,83.313 165.982 C 83.581 165.642,84.245 165.057,84.789 164.682 C 85.333 164.307,85.603 164.006,85.389 164.013 C 85.175 164.020,84.505 164.395,83.900 164.846 M99.200 164.125 C 99.200 164.193,99.785 164.672,100.500 165.188 L 101.800 166.127 100.830 165.063 C 100.002 164.155,99.200 163.693,99.200 164.125 M70.600 169.398 C 70.600 170.785,70.735 171.838,70.900 171.737 C 71.285 171.500,71.281 167.946,70.894 167.337 C 70.732 167.083,70.600 168.010,70.600 169.398 M25.067 167.467 C 24.061 168.472,25.146 172.336,26.845 173.801 C 27.614 174.464,27.587 174.373,26.686 173.269 C 25.387 171.677,25.025 170.431,25.326 168.578 C 25.557 167.157,25.523 167.011,25.067 167.467 M82.007 170.920 C 81.979 172.271,84.749 175.200,86.056 175.200 C 86.348 175.200,85.960 174.866,85.194 174.458 C 84.427 174.050,83.398 173.015,82.907 172.158 C 82.415 171.301,82.010 170.744,82.007 170.920 M101.398 172.546 C 100.957 173.236,99.967 174.115,99.198 174.499 C 97.707 175.246,98.132 175.487,99.689 174.778 C 100.577 174.373,102.683 171.737,102.358 171.437 C 102.271 171.357,101.839 171.856,101.398 172.546 M69.000 173.600 C 68.368 174.260,67.569 174.814,67.225 174.832 C 66.851 174.850,66.791 174.941,67.076 175.057 C 67.680 175.303,69.508 174.118,70.030 173.143 C 70.590 172.098,70.327 172.215,69.000 173.600 M38.900 175.500 C 43.905 175.563,52.095 175.563,57.100 175.500 C 62.105 175.436,58.010 175.384,48.000 175.384 C 37.990 175.384,33.895 175.436,38.900 175.500 M89.700 175.497 C 91.185 175.574,93.615 175.574,95.100 175.497 C 96.585 175.420,95.370 175.357,92.400 175.357 C 89.430 175.357,88.215 175.420,89.700 175.497 M119.519 192.545 C 118.220 193.121,116.399 194.771,116.402 195.370 C 116.403 195.606,116.808 195.302,117.302 194.693 C 117.796 194.084,119.100 193.237,120.200 192.811 C 121.300 192.386,121.840 192.044,121.400 192.051 C 120.960 192.059,120.114 192.281,119.519 192.545 M222.448 192.942 C 222.117 193.341,222.025 219.208,222.099 290.842 L 222.200 388.200 234.200 388.200 L 246.200 388.200 246.400 368.400 L 246.600 348.600 247.669 346.800 C 248.897 344.731,249.698 343.990,252.088 342.714 C 254.380 341.490,288.611 341.259,291.229 342.450 C 293.489 343.478,295.420 345.418,296.449 347.697 L 297.400 349.800 297.524 369.107 L 297.649 388.414 307.724 388.307 L 317.800 388.200 317.901 290.842 C 317.975 219.208,317.883 193.341,317.552 192.942 C 317.178 192.492,309.139 192.400,270.000 192.400 C 230.861 192.400,222.822 192.492,222.448 192.942 M29.738 193.106 C 29.484 193.268,37.702 193.400,48.000 193.400 C 58.298 193.400,66.515 193.268,66.262 193.106 C 66.008 192.944,57.790 192.812,48.000 192.812 C 38.210 192.812,29.992 192.944,29.738 193.106 M86.715 193.128 C 86.338 193.278,88.796 193.400,92.177 193.400 C 95.558 193.400,98.116 193.268,97.862 193.106 C 97.285 192.739,87.647 192.758,86.715 193.128 M26.831 194.636 C 26.154 195.205,25.606 195.880,25.614 196.136 C 25.622 196.391,26.027 196.130,26.514 195.557 C 27.001 194.983,27.760 194.313,28.200 194.069 C 28.640 193.824,28.789 193.619,28.531 193.612 C 28.273 193.605,27.508 194.066,26.831 194.636 M67.635 193.700 C 67.728 193.755,68.433 194.340,69.202 195.000 L 70.600 196.200 69.425 194.900 C 68.779 194.185,68.074 193.600,67.858 193.600 C 67.643 193.600,67.543 193.645,67.635 193.700 M82.572 196.187 C 82.216 196.730,81.987 197.336,82.062 197.534 C 82.138 197.732,82.492 197.288,82.849 196.547 C 83.614 194.962,83.484 194.794,82.572 196.187 M115.788 196.500 C 115.686 196.775,115.556 202.940,115.501 210.200 L 115.400 223.400 114.000 223.285 C 113.230 223.221,111.790 223.005,110.800 222.804 C 107.188 222.070,100.734 220.982,97.800 220.611 C 95.338 220.300,97.907 220.976,101.400 221.558 C 102.940 221.814,105.100 222.193,106.200 222.400 C 113.724 223.814,115.319 224.041,115.620 223.740 C 115.917 223.443,116.379 195.999,116.087 196.000 C 116.026 196.000,115.891 196.225,115.788 196.500 M70.644 197.400 C 70.973 198.871,71.202 199.190,71.194 198.167 C 71.191 197.745,71.005 197.130,70.782 196.800 C 70.485 196.362,70.448 196.524,70.644 197.400 M25.067 197.067 C 24.061 198.072,25.146 201.936,26.845 203.401 C 27.614 204.064,27.587 203.973,26.686 202.869 C 25.387 201.277,25.025 200.031,25.326 198.178 C 25.557 196.757,25.523 196.611,25.067 197.067 M70.854 199.938 C 70.794 200.976,69.607 203.200,69.114 203.200 C 68.941 203.200,68.800 203.402,68.800 203.649 C 68.800 204.338,69.954 203.249,70.651 201.902 C 70.979 201.266,71.172 200.353,71.079 199.873 C 70.916 199.035,70.907 199.038,70.854 199.938 M82.016 200.815 C 82.007 201.153,82.495 201.973,83.100 202.637 C 83.705 203.301,83.998 203.564,83.750 203.222 C 83.503 202.880,83.015 202.060,82.666 201.400 C 82.317 200.740,82.025 200.477,82.016 200.815 M101.516 202.017 C 101.148 202.659,100.251 203.546,99.523 203.990 C 98.115 204.849,98.264 205.115,99.718 204.337 C 100.824 203.745,101.352 203.210,101.969 202.057 C 102.701 200.691,102.298 200.656,101.516 202.017 M249.734 201.553 C 252.205 203.182,252.400 204.006,252.400 212.830 C 252.400 218.930,252.266 221.097,251.838 221.920 C 249.583 226.253,243.662 226.294,241.501 221.992 C 240.547 220.094,240.456 205.826,241.386 204.028 C 242.969 200.966,247.021 199.764,249.734 201.553 M273.032 201.554 C 275.406 203.002,275.659 204.226,275.522 213.602 L 275.400 221.988 273.929 223.459 C 271.089 226.297,266.497 225.567,264.701 221.992 C 263.742 220.084,263.656 205.826,264.592 204.015 C 266.147 201.008,270.199 199.827,273.032 201.554 M296.401 201.464 C 299.282 203.166,300.750 218.452,298.402 222.304 C 295.952 226.322,290.343 226.112,288.162 221.920 C 287.111 219.900,287.372 205.137,288.489 203.433 C 290.181 200.851,293.827 199.944,296.401 201.464 M39.127 205.100 C 44.258 205.163,52.538 205.163,57.527 205.100 C 62.517 205.036,58.320 204.984,48.200 204.984 C 38.080 204.984,33.997 205.036,39.127 205.100 M89.282 205.096 C 90.758 205.173,93.278 205.173,94.882 205.097 C 96.487 205.021,95.280 204.958,92.200 204.958 C 89.120 204.957,87.807 205.019,89.282 205.096 M60.400 215.218 C 59.962 215.515,60.124 215.552,61.000 215.356 C 62.471 215.027,62.790 214.798,61.767 214.806 C 61.345 214.809,60.730 214.995,60.400 215.218 M66.200 215.200 C 67.892 215.631,69.344 215.631,68.000 215.200 C 67.450 215.024,66.550 214.883,66.000 214.887 C 65.102 214.894,65.122 214.926,66.200 215.200 M70.600 216.000 C 71.040 216.189,71.760 216.344,72.200 216.344 L 73.000 216.344 72.200 216.000 C 71.760 215.811,71.040 215.656,70.600 215.656 L 69.800 215.656 70.600 216.000 M56.199 217.655 C 55.413 218.345,54.587 219.290,54.364 219.755 C 54.106 220.292,54.326 220.162,54.967 219.400 C 55.522 218.740,56.477 217.796,57.088 217.302 C 57.700 216.808,58.071 216.403,57.914 216.402 C 57.757 216.401,56.985 216.965,56.199 217.655 M75.000 216.800 C 76.692 217.231,78.144 217.231,76.800 216.800 C 76.250 216.624,75.350 216.483,74.800 216.487 C 73.902 216.494,73.922 216.526,75.000 216.800 M79.600 217.600 C 80.150 217.776,80.960 217.920,81.400 217.920 C 82.033 217.920,81.992 217.854,81.200 217.600 C 80.650 217.424,79.840 217.280,79.400 217.280 C 78.767 217.280,78.808 217.346,79.600 217.600 M83.800 218.400 C 84.240 218.589,85.050 218.738,85.600 218.732 L 86.600 218.720 85.600 218.400 C 85.050 218.224,84.240 218.074,83.800 218.068 L 83.000 218.056 83.800 218.400 M88.600 219.190 C 89.364 219.528,91.914 219.757,91.567 219.456 C 91.475 219.376,90.590 219.204,89.600 219.073 C 88.398 218.914,88.066 218.953,88.600 219.190 M92.800 219.980 C 93.799 220.320,96.282 220.532,95.967 220.251 C 95.875 220.169,94.900 219.999,93.800 219.872 C 92.451 219.716,92.126 219.751,92.800 219.980 M53.412 221.564 C 53.157 222.366,52.859 222.391,41.875 222.500 L 30.600 222.613 41.886 222.706 C 52.964 222.798,53.180 222.785,53.618 221.966 C 53.864 221.507,53.977 221.043,53.869 220.936 C 53.761 220.828,53.555 221.110,53.412 221.564 M26.831 224.236 C 26.154 224.805,25.606 225.480,25.613 225.736 C 25.620 225.991,25.887 225.854,26.206 225.432 C 26.526 225.010,27.285 224.336,27.894 223.935 C 28.502 223.534,28.789 223.204,28.531 223.203 C 28.273 223.201,27.508 223.666,26.831 224.236 M25.067 226.667 C 23.553 228.180,26.664 234.406,28.931 234.399 C 29.189 234.398,28.813 234.039,28.096 233.602 C 26.074 232.369,25.125 230.557,25.319 228.300 C 25.492 226.291,25.485 226.248,25.067 226.667 M40.800 234.787 L 52.200 235.000 52.200 243.680 C 52.200 248.455,52.339 252.222,52.508 252.052 C 52.678 251.883,52.768 247.886,52.708 243.172 L 52.600 234.600 41.000 234.587 L 29.400 234.575 40.800 234.787 M250.300 238.488 C 252.270 240.329,252.400 241.015,252.400 249.600 C 252.400 258.617,252.241 259.291,249.755 260.828 C 246.777 262.668,242.823 261.556,241.440 258.488 C 240.340 256.049,240.645 241.340,241.828 239.728 C 243.764 237.093,248.123 236.455,250.300 238.488 M273.500 238.488 C 275.470 240.329,275.600 241.015,275.600 249.600 C 275.600 258.449,275.436 259.208,273.179 260.815 C 270.500 262.723,266.977 261.856,264.878 258.772 C 263.543 256.810,263.663 241.587,265.028 239.728 C 266.964 237.093,271.323 236.455,273.500 238.488 M295.992 237.901 C 298.937 239.380,299.200 240.314,299.200 249.275 C 299.200 256.313,299.112 257.403,298.438 258.716 C 296.436 262.615,290.680 262.774,288.448 258.992 C 287.370 257.164,287.142 242.440,288.162 240.480 C 289.729 237.469,292.993 236.394,295.992 237.901 M28.100 252.888 C 27.605 253.127,27.200 253.461,27.200 253.630 C 27.200 253.884,29.385 253.022,29.967 252.538 C 30.348 252.222,28.931 252.487,28.100 252.888 M26.200 254.561 C 23.764 257.484,24.747 261.961,28.200 263.669 C 28.640 263.887,28.411 263.584,27.692 262.997 C 25.151 260.923,24.516 258.127,26.023 255.655 C 26.845 254.306,26.950 253.661,26.200 254.561 M40.815 264.297 L 52.430 264.412 52.315 273.206 C 52.252 278.043,52.338 282.001,52.508 282.000 C 52.677 282.000,52.767 277.995,52.708 273.100 L 52.600 264.200 40.900 264.191 L 29.200 264.182 40.815 264.297 M249.092 273.586 C 252.172 274.984,252.397 275.773,252.397 285.200 C 252.397 292.678,252.327 293.515,251.602 294.704 C 249.194 298.654,243.554 298.480,241.501 294.392 C 240.403 292.208,240.465 278.224,241.582 276.035 C 243.006 273.244,246.110 272.232,249.092 273.586 M272.292 273.586 C 275.372 274.984,275.597 275.773,275.597 285.200 C 275.597 292.678,275.527 293.515,274.802 294.704 C 272.394 298.654,266.754 298.480,264.701 294.392 C 263.540 292.081,263.668 278.100,264.869 275.962 C 266.438 273.172,269.336 272.244,272.292 273.586 M295.887 273.642 C 298.898 275.100,299.200 276.180,299.199 285.484 C 299.197 294.322,298.980 295.170,296.304 296.802 C 293.672 298.407,290.073 297.452,288.398 294.704 C 287.181 292.708,287.190 277.677,288.410 275.677 C 289.957 273.140,293.089 272.287,295.887 273.642 M28.600 282.400 C 28.308 282.873,28.699 282.873,29.800 282.400 C 30.571 282.069,30.569 282.055,29.724 282.028 C 29.242 282.013,28.736 282.180,28.600 282.400 M25.671 285.159 C 24.206 287.766,24.987 291.352,27.330 292.773 C 28.072 293.222,28.045 293.131,27.149 292.150 C 24.977 289.774,24.616 287.563,26.023 285.255 C 26.474 284.515,26.775 283.842,26.693 283.759 C 26.610 283.677,26.150 284.306,25.671 285.159 M40.792 293.897 L 52.385 294.012 52.504 302.806 L 52.623 311.600 52.612 302.700 L 52.600 293.800 40.900 293.791 L 29.200 293.782 40.792 293.897 M249.206 309.941 C 252.192 311.527,252.400 312.288,252.400 321.600 C 252.400 329.544,252.363 329.937,251.492 331.241 C 248.974 335.010,243.049 334.609,241.355 330.553 C 240.374 328.207,240.578 314.403,241.623 312.354 C 243.025 309.607,246.498 308.501,249.206 309.941 M272.406 309.941 C 275.392 311.527,275.600 312.288,275.600 321.600 C 275.600 329.544,275.563 329.937,274.692 331.241 C 272.152 335.042,266.307 334.624,264.591 330.518 C 263.542 328.007,263.751 314.351,264.869 312.362 C 266.422 309.600,269.752 308.530,272.406 309.941 M296.651 310.270 C 300.463 312.768,300.496 330.484,296.693 332.976 C 294.061 334.701,290.284 333.900,288.508 331.241 C 287.347 329.503,287.097 314.532,288.194 312.412 C 289.708 309.483,293.850 308.435,296.651 310.270 M28.661 311.900 C 28.559 312.065,32.463 312.153,37.338 312.096 C 51.759 311.928,52.993 311.766,40.524 311.680 C 34.102 311.636,28.764 311.735,28.661 311.900 M25.671 314.759 C 24.535 316.781,24.572 318.623,25.790 320.600 C 26.332 321.480,26.781 322.069,26.788 321.910 C 26.794 321.750,26.441 321.030,26.001 320.310 C 24.977 318.629,24.985 316.558,26.023 314.855 C 26.474 314.115,26.775 313.442,26.693 313.359 C 26.610 313.277,26.150 313.906,25.671 314.759 M28.661 323.300 C 28.764 323.465,34.102 323.564,40.524 323.520 C 52.993 323.434,51.759 323.272,37.338 323.104 C 32.463 323.047,28.559 323.135,28.661 323.300 " stroke="none" fill="#e64040" fill-rule="evenodd"></path><path id="path4" d="M264.600 1.335 C 262.904 2.252,260.973 4.067,259.000 6.598 C 258.340 7.445,256.000 9.954,253.800 12.173 C 251.600 14.393,249.170 17.016,248.400 18.002 C 247.630 18.989,246.100 20.722,245.000 21.854 C 243.900 22.986,241.920 25.117,240.600 26.590 C 239.280 28.063,236.265 31.238,233.900 33.647 C 231.535 36.055,229.600 38.178,229.600 38.365 C 229.600 38.552,228.025 40.317,226.100 42.288 C 222.335 46.143,221.600 47.140,221.600 48.395 C 221.600 48.838,221.420 49.200,221.200 49.200 C 220.935 49.200,220.800 71.267,220.800 114.600 L 220.800 180.000 218.800 180.000 C 217.700 180.000,216.800 180.180,216.800 180.400 C 216.800 180.620,216.440 180.800,216.000 180.800 C 215.560 180.800,215.200 180.980,215.200 181.200 C 215.200 181.420,214.924 181.600,214.587 181.600 C 213.791 181.600,211.200 184.191,211.200 184.987 C 211.200 185.324,211.020 185.600,210.800 185.600 C 210.580 185.600,210.400 185.949,210.400 186.376 C 210.400 186.803,210.220 187.264,210.000 187.400 C 209.093 187.961,209.490 395.816,210.401 397.603 C 210.842 398.466,211.550 399.359,211.975 399.587 C 212.500 399.868,242.384 400.000,305.356 400.000 L 397.964 400.000 398.984 398.980 L 400.004 397.960 399.902 234.913 C 399.821 104.904,399.699 71.833,399.300 71.700 C 399.025 71.608,398.800 71.274,398.800 70.956 C 398.800 70.187,395.386 66.800,394.611 66.800 C 394.275 66.800,394.000 66.620,394.000 66.400 C 394.000 66.180,393.640 66.000,393.200 66.000 C 392.760 66.000,392.400 65.820,392.400 65.600 C 392.400 65.339,385.729 65.200,373.187 65.200 L 353.973 65.200 352.587 66.587 C 351.824 67.349,351.200 68.249,351.200 68.587 C 351.200 68.924,351.020 69.200,350.800 69.200 C 350.165 69.200,350.336 70.690,351.000 70.945 C 351.330 71.071,351.601 71.586,351.601 72.087 C 351.604 73.414,352.994 75.486,354.496 76.402 C 355.741 77.161,356.541 77.197,372.101 77.199 L 388.401 77.200 388.301 232.900 L 388.200 388.600 359.151 388.703 C 335.163 388.787,330.024 388.711,329.654 388.265 C 329.327 387.871,329.178 360.770,329.103 287.563 C 329.012 199.364,328.928 187.281,328.400 186.400 C 326.527 183.278,323.506 181.203,320.822 181.194 C 319.820 181.191,318.774 181.044,318.498 180.869 C 318.100 180.616,318.018 169.972,318.098 128.975 L 318.200 77.400 325.200 77.200 C 329.647 77.073,332.512 76.821,333.057 76.509 C 334.405 75.736,336.000 73.628,336.000 72.618 C 336.000 72.112,336.270 71.474,336.600 71.200 C 337.699 70.288,337.187 68.841,334.940 66.508 L 333.680 65.200 326.440 65.200 L 319.200 65.200 319.200 57.000 C 319.200 51.800,319.054 48.800,318.800 48.800 C 318.580 48.800,318.400 48.358,318.400 47.818 C 318.400 47.133,317.656 46.135,315.939 44.518 C 311.693 40.517,308.800 37.544,308.800 37.179 C 308.800 36.741,307.057 34.769,303.300 30.956 C 301.705 29.337,300.400 27.914,300.400 27.794 C 300.400 27.673,298.420 25.606,296.000 23.200 C 293.580 20.794,291.600 18.627,291.600 18.384 C 291.600 18.141,291.375 17.700,291.100 17.402 C 281.855 7.409,275.691 1.200,275.015 1.200 C 274.677 1.200,274.400 1.020,274.400 0.800 C 274.400 -0.048,266.347 0.391,264.600 1.335 M148.600 1.600 C 148.464 1.820,147.733 2.000,146.976 2.000 C 146.219 2.000,145.600 2.180,145.600 2.400 C 145.600 2.620,145.276 2.800,144.880 2.800 C 143.986 2.800,142.007 3.694,142.003 4.100 C 142.001 4.265,141.640 4.400,141.200 4.400 C 140.760 4.400,140.400 4.580,140.400 4.800 C 140.400 5.020,140.112 5.200,139.760 5.200 C 139.409 5.200,138.617 5.740,138.000 6.400 C 137.383 7.060,136.666 7.600,136.407 7.600 C 135.544 7.600,130.000 13.663,130.000 14.607 C 130.000 14.933,129.856 15.200,129.680 15.200 C 129.282 15.200,127.600 18.606,127.600 19.411 C 127.600 19.735,127.420 20.000,127.200 20.000 C 126.980 20.000,126.800 20.414,126.800 20.920 C 126.800 23.608,126.161 23.993,121.700 23.997 C 119.235 23.999,117.600 24.160,117.600 24.400 C 117.600 24.620,117.144 24.800,116.587 24.800 C 115.232 24.800,112.085 26.433,110.600 27.908 C 108.247 30.243,106.800 32.036,106.800 32.613 C 106.800 32.936,106.620 33.200,106.400 33.200 C 106.180 33.200,106.000 33.549,106.000 33.976 C 106.000 34.403,105.820 34.864,105.600 35.000 C 105.380 35.136,105.200 35.867,105.200 36.624 C 105.200 37.381,105.020 38.000,104.800 38.000 C 104.559 38.000,104.400 39.667,104.400 42.200 C 104.400 44.733,104.559 46.400,104.800 46.400 C 105.020 46.400,105.200 46.940,105.200 47.600 C 105.200 48.260,105.380 48.800,105.600 48.800 C 105.820 48.800,106.000 49.216,106.000 49.725 C 106.000 50.233,106.360 51.036,106.800 51.508 C 107.240 51.980,107.600 52.562,107.600 52.801 C 107.600 54.074,113.269 58.800,114.796 58.800 C 115.212 58.800,115.664 58.980,115.800 59.200 C 115.936 59.420,116.577 59.600,117.224 59.600 C 117.871 59.600,118.400 59.780,118.400 60.000 C 118.400 60.263,129.867 60.400,152.000 60.400 C 174.133 60.400,185.600 60.263,185.600 60.000 C 185.600 59.780,186.140 59.600,186.800 59.600 C 187.460 59.600,188.000 59.443,188.000 59.250 C 188.000 59.058,188.542 58.792,189.204 58.659 C 191.232 58.254,194.831 55.294,195.968 53.097 C 196.280 52.494,196.685 52.000,196.868 52.000 C 197.050 52.000,197.200 51.640,197.200 51.200 C 197.200 50.760,197.380 50.400,197.600 50.400 C 197.820 50.400,198.000 50.051,198.000 49.624 C 198.000 49.197,198.161 48.748,198.358 48.626 C 199.132 48.148,199.962 38.800,199.230 38.800 C 198.994 38.800,198.800 38.080,198.800 37.200 C 198.800 36.320,198.620 35.600,198.400 35.600 C 198.180 35.600,198.000 35.240,198.000 34.800 C 198.000 34.360,197.820 34.000,197.600 34.000 C 197.380 34.000,197.200 33.640,197.200 33.200 C 197.200 32.760,197.020 32.400,196.800 32.400 C 196.580 32.400,196.400 32.126,196.400 31.791 C 196.400 30.110,189.553 24.800,187.386 24.800 C 186.844 24.800,186.400 24.620,186.400 24.400 C 186.400 24.180,186.076 24.000,185.680 24.000 C 184.641 24.000,184.000 23.206,184.000 21.920 C 184.000 21.304,183.820 20.800,183.600 20.800 C 183.380 20.800,183.200 20.361,183.200 19.824 C 183.200 19.287,183.020 18.736,182.800 18.600 C 182.580 18.464,182.400 18.003,182.400 17.576 C 182.400 17.149,182.220 16.800,182.000 16.800 C 181.780 16.800,181.600 16.564,181.600 16.275 C 181.600 15.987,181.240 15.364,180.800 14.892 C 180.360 14.420,180.000 13.862,180.000 13.653 C 180.000 13.133,173.726 6.800,173.211 6.800 C 172.985 6.800,172.800 6.620,172.800 6.400 C 172.800 6.180,172.530 6.000,172.200 6.000 C 171.870 6.000,171.600 5.820,171.600 5.600 C 171.600 5.380,171.375 5.196,171.100 5.191 C 170.825 5.186,170.150 4.830,169.600 4.400 C 169.050 3.970,168.195 3.614,167.700 3.609 C 167.205 3.604,166.800 3.420,166.800 3.200 C 166.800 2.980,166.440 2.800,166.000 2.800 C 165.560 2.800,165.200 2.620,165.200 2.400 C 165.200 2.180,164.480 2.000,163.600 2.000 C 162.720 2.000,162.000 1.820,162.000 1.600 C 162.000 1.350,159.541 1.200,155.424 1.200 C 151.471 1.200,148.749 1.360,148.600 1.600 M63.197 10.811 C 62.868 11.018,62.105 11.191,61.500 11.194 C 60.895 11.197,60.400 11.380,60.400 11.600 C 60.400 11.820,60.207 12.000,59.971 12.000 C 59.334 12.000,58.400 13.053,58.400 13.771 C 58.400 14.117,58.220 14.400,58.000 14.400 C 57.743 14.400,57.600 18.467,57.600 25.800 L 57.600 37.200 46.024 37.200 C 38.737 37.200,34.356 37.348,34.200 37.600 C 34.064 37.820,33.511 38.000,32.971 38.000 C 31.757 38.000,29.574 39.227,28.344 40.600 C 25.299 43.998,25.200 44.624,25.200 60.473 L 25.200 74.000 21.800 74.000 C 19.800 74.000,18.400 74.165,18.400 74.400 C 18.400 74.620,18.034 74.800,17.586 74.800 C 16.099 74.800,12.800 77.407,12.800 78.582 C 12.800 78.922,12.620 79.200,12.400 79.200 C 12.180 79.200,12.000 79.549,12.000 79.976 C 12.000 80.403,11.820 80.864,11.600 81.000 C 11.346 81.157,11.200 86.404,11.200 95.424 L 11.200 109.600 9.224 109.600 C 8.137 109.600,7.150 109.757,7.032 109.948 C 6.914 110.140,6.294 110.401,5.655 110.529 C 5.010 110.658,3.539 111.691,2.346 112.852 L 0.200 114.943 0.098 256.451 L -0.004 397.959 1.016 398.980 L 2.036 400.000 95.376 400.000 L 188.715 400.000 190.058 398.746 L 191.400 397.492 191.400 320.166 C 191.400 258.839,191.297 242.737,190.900 242.340 C 190.625 242.065,190.400 241.602,190.400 241.311 C 190.400 240.577,186.155 236.400,185.409 236.400 C 185.074 236.400,184.800 236.220,184.800 236.000 C 184.800 235.780,184.260 235.600,183.600 235.600 C 182.940 235.600,182.400 235.420,182.400 235.200 C 182.400 234.978,181.333 234.800,180.000 234.800 C 178.667 234.800,177.600 234.622,177.600 234.400 C 177.600 234.180,176.700 234.000,175.600 234.000 C 174.500 234.000,173.600 233.820,173.600 233.600 C 173.600 233.380,172.610 233.200,171.400 233.200 C 170.190 233.200,169.200 233.020,169.200 232.800 C 169.200 232.580,168.311 232.400,167.224 232.400 C 166.137 232.400,165.136 232.220,165.000 232.000 C 164.864 231.780,163.773 231.600,162.576 231.600 C 161.379 231.600,160.400 231.420,160.400 231.200 C 160.400 230.980,159.511 230.800,158.424 230.800 C 157.337 230.800,156.336 230.620,156.200 230.400 C 156.064 230.180,155.074 230.000,154.000 230.000 C 152.926 230.000,151.936 229.820,151.800 229.600 C 151.664 229.380,150.674 229.200,149.600 229.200 C 148.526 229.200,147.536 229.020,147.400 228.800 C 147.264 228.580,146.274 228.400,145.200 228.400 C 144.126 228.400,143.136 228.220,143.000 228.000 C 142.864 227.780,141.899 227.600,140.856 227.600 C 139.813 227.600,138.789 227.437,138.580 227.239 C 138.371 227.040,137.390 226.778,136.400 226.657 C 131.627 226.072,129.269 225.690,128.855 225.434 C 128.529 225.232,128.400 221.028,128.400 210.576 C 128.400 201.125,128.259 196.000,128.000 196.000 C 127.780 196.000,127.594 195.685,127.587 195.300 C 127.555 193.503,123.341 190.942,122.131 191.983 C 121.949 192.140,120.947 192.582,119.905 192.965 C 116.179 194.336,116.218 194.167,116.080 209.800 C 116.014 217.280,115.807 223.553,115.620 223.740 C 115.433 223.926,113.688 223.786,111.740 223.428 C 109.793 223.069,107.300 222.610,106.200 222.406 C 105.100 222.203,103.030 221.835,101.600 221.588 C 100.170 221.341,98.190 220.987,97.200 220.800 C 96.210 220.613,94.230 220.254,92.800 220.002 C 91.370 219.750,89.840 219.457,89.400 219.351 C 88.960 219.245,87.520 218.990,86.200 218.783 C 84.880 218.577,82.900 218.234,81.800 218.022 C 80.700 217.810,77.820 217.285,75.400 216.856 C 72.980 216.427,69.317 215.772,67.260 215.401 C 60.793 214.233,55.936 216.487,53.691 221.700 L 53.217 222.800 41.671 222.800 C 30.432 222.800,30.080 222.824,28.405 223.710 C 24.435 225.809,24.145 231.040,27.862 233.478 C 28.841 234.120,30.273 234.222,40.781 234.400 L 52.600 234.600 52.600 243.400 L 52.600 252.200 41.200 252.400 C 28.317 252.626,27.640 252.768,26.066 255.569 C 24.533 258.297,25.140 260.998,27.729 262.973 L 29.059 263.988 40.830 264.094 L 52.600 264.200 52.708 273.083 L 52.815 281.965 41.308 282.083 C 28.290 282.215,27.653 282.344,26.066 285.169 C 24.608 287.762,25.059 290.217,27.394 292.400 L 28.463 293.400 40.532 293.600 L 52.600 293.800 52.708 302.571 C 52.791 309.322,52.699 311.417,52.308 311.665 C 52.029 311.843,46.787 311.991,40.660 311.994 C 27.076 312.001,25.200 312.682,25.200 317.600 C 25.200 322.518,27.076 323.199,40.660 323.206 C 46.787 323.209,52.026 323.356,52.302 323.531 C 52.700 323.784,52.783 330.550,52.702 356.025 L 52.600 388.200 32.200 388.200 L 11.800 388.200 11.800 255.400 L 11.800 122.600 63.800 122.600 L 115.800 122.600 116.000 147.800 L 116.200 173.000 117.090 174.247 C 117.579 174.933,118.569 175.711,119.290 175.977 C 120.010 176.242,121.215 176.760,121.967 177.129 C 123.007 177.638,123.374 177.679,123.500 177.299 C 123.592 177.025,124.012 176.800,124.433 176.800 C 124.855 176.800,125.200 176.620,125.200 176.400 C 125.200 176.180,125.430 176.000,125.711 176.000 C 126.371 176.000,127.600 174.566,127.600 173.795 C 127.600 173.468,127.780 173.200,128.000 173.200 C 128.263 173.200,128.400 163.667,128.400 145.400 C 128.400 127.133,128.263 117.600,128.000 117.600 C 127.780 117.600,127.600 117.060,127.600 116.400 C 127.600 115.740,127.420 115.200,127.200 115.200 C 126.980 115.200,126.800 114.930,126.800 114.600 C 126.800 114.270,126.620 114.000,126.400 114.000 C 126.180 114.000,126.000 113.807,126.000 113.571 C 126.000 112.686,122.874 110.400,121.662 110.400 C 121.214 110.400,120.736 110.220,120.600 110.000 C 120.464 109.780,119.373 109.600,118.176 109.600 L 116.000 109.600 116.000 94.800 C 116.000 85.200,115.859 80.000,115.600 80.000 C 115.380 80.000,115.200 79.680,115.200 79.288 C 115.200 78.897,114.840 78.317,114.400 78.000 C 113.960 77.683,113.600 77.193,113.600 76.912 C 113.600 76.630,113.448 76.400,113.261 76.400 C 113.075 76.400,112.507 76.040,112.000 75.600 C 111.493 75.160,110.745 74.800,110.339 74.800 C 109.932 74.800,109.600 74.620,109.600 74.400 C 109.600 74.161,108.067 74.000,105.800 74.000 L 102.000 74.000 102.000 59.438 C 102.000 45.116,101.985 44.847,101.100 43.144 C 100.033 41.093,97.877 38.800,97.013 38.800 C 96.676 38.800,96.400 38.620,96.400 38.400 C 96.400 38.180,95.680 38.000,94.800 38.000 C 93.920 38.000,93.200 37.820,93.200 37.600 C 93.200 37.343,89.200 37.200,82.000 37.200 L 70.800 37.200 70.800 26.824 C 70.800 20.337,70.650 16.355,70.400 16.200 C 70.180 16.064,70.000 15.531,70.000 15.016 C 70.000 13.576,67.410 11.200,65.840 11.200 C 65.136 11.200,64.387 11.027,64.177 10.817 C 63.936 10.576,63.572 10.573,63.197 10.811 M159.148 13.781 C 166.887 15.841,172.773 22.887,172.795 30.120 C 172.807 33.858,175.232 36.000,179.451 36.000 C 187.117 36.000,190.064 44.374,183.513 47.545 C 181.261 48.636,123.182 48.917,120.687 47.849 C 114.525 45.213,116.236 36.000,122.888 36.000 C 124.822 36.000,125.695 36.444,128.054 38.629 C 132.928 43.143,138.887 39.755,137.955 33.000 C 136.344 21.326,147.950 10.801,159.148 13.781 M275.204 19.188 C 277.732 21.931,280.610 25.077,281.600 26.179 C 282.590 27.281,284.665 29.536,286.211 31.191 C 295.359 40.983,298.031 44.026,297.806 44.391 C 297.497 44.891,242.152 44.969,241.843 44.470 C 241.731 44.289,243.280 42.354,245.286 40.170 C 249.167 35.944,256.240 28.287,260.200 24.025 C 261.520 22.604,262.960 21.053,263.400 20.577 C 267.148 16.524,269.794 13.984,270.165 14.082 C 270.409 14.147,272.677 16.445,275.204 19.188 M89.600 62.203 L 89.600 74.406 63.900 74.303 L 38.200 74.200 38.094 62.100 L 37.988 50.000 63.794 50.000 L 89.600 50.000 89.600 62.203 M306.301 118.500 L 306.200 180.600 269.900 180.702 L 233.600 180.804 233.600 118.602 L 233.600 56.400 270.001 56.400 L 306.403 56.400 306.301 118.500 M245.205 72.696 C 241.672 73.351,240.800 75.408,240.800 83.081 C 240.800 91.251,242.044 93.600,246.372 93.600 C 250.824 93.600,252.151 91.450,252.329 83.952 C 252.542 74.996,250.468 71.720,245.205 72.696 M268.185 72.813 C 267.517 73.014,266.437 73.735,265.785 74.415 L 264.600 75.650 264.474 82.410 C 264.304 91.491,265.344 93.597,270.000 93.597 C 274.586 93.597,275.600 91.699,275.599 83.120 C 275.596 74.105,273.514 71.209,268.185 72.813 M292.000 72.689 C 288.709 73.273,287.493 76.391,287.668 83.803 C 287.847 91.388,289.163 93.600,293.497 93.600 C 298.074 93.600,299.200 91.527,299.199 83.106 C 299.196 74.183,297.490 71.715,292.000 72.689 M103.800 98.400 L 103.800 110.600 64.600 110.710 C 43.040 110.770,24.995 110.722,24.500 110.602 L 23.600 110.385 23.600 98.459 C 23.600 91.900,23.721 86.412,23.869 86.265 C 24.016 86.117,42.061 86.042,63.969 86.098 L 103.800 86.200 103.800 98.400 M345.959 90.115 C 342.693 92.314,342.575 97.028,345.728 99.364 C 347.237 100.482,365.289 100.875,367.757 99.844 C 371.663 98.212,371.807 91.768,367.981 89.790 C 365.833 88.679,347.695 88.947,345.959 90.115 M244.926 106.134 C 241.359 107.439,240.800 108.859,240.800 116.624 C 240.800 123.925,241.310 125.367,244.341 126.633 C 249.432 128.760,252.126 125.589,252.332 117.230 C 252.540 108.815,251.600 106.874,246.800 105.803 C 246.470 105.729,245.627 105.878,244.926 106.134 M268.600 106.134 C 264.652 107.666,264.400 108.289,264.400 116.521 C 264.400 125.931,267.741 129.682,273.034 126.214 C 275.746 124.437,276.972 112.055,274.790 108.476 C 273.600 106.525,270.559 105.374,268.600 106.134 M292.000 106.072 C 286.322 107.659,285.436 123.337,290.852 126.381 C 293.568 127.907,296.743 127.025,298.418 124.278 C 299.514 122.480,299.543 110.484,298.456 108.631 C 297.288 106.642,294.258 105.441,292.000 106.072 M345.887 127.511 C 342.886 129.370,342.552 133.446,345.186 136.080 L 346.706 137.600 357.086 137.600 L 367.467 137.600 369.003 136.272 C 371.442 134.163,371.572 130.678,369.295 128.401 L 367.694 126.800 357.347 126.811 C 348.263 126.820,346.864 126.905,345.887 127.511 M29.605 134.295 C 25.982 134.971,24.033 139.735,26.108 142.841 C 28.002 145.676,27.592 145.627,48.729 145.507 L 67.658 145.400 69.275 143.667 C 72.399 140.316,70.602 135.001,66.092 134.256 C 64.394 133.975,31.127 134.011,29.605 134.295 M86.200 134.419 C 81.317 136.007,80.694 142.464,85.194 144.858 C 87.187 145.919,97.105 145.948,99.192 144.899 C 103.119 142.926,103.503 137.694,99.908 135.134 C 98.455 134.100,88.741 133.593,86.200 134.419 M164.600 134.400 C 164.464 134.620,163.823 134.800,163.176 134.800 C 162.529 134.800,162.000 134.980,162.000 135.200 C 162.000 135.420,161.550 135.600,161.000 135.600 C 160.450 135.600,160.000 135.780,160.000 136.000 C 160.000 136.220,159.680 136.400,159.288 136.400 C 158.897 136.400,158.317 136.760,158.000 137.200 C 157.683 137.640,157.190 138.000,156.904 138.000 C 156.295 138.000,151.200 142.995,151.200 143.593 C 151.200 143.817,151.020 144.000,150.800 144.000 C 150.580 144.000,150.400 144.270,150.400 144.600 C 150.400 144.930,150.265 145.201,150.100 145.203 C 149.694 145.207,148.800 147.186,148.800 148.080 C 148.800 148.476,148.620 148.800,148.400 148.800 C 148.180 148.800,148.000 149.160,148.000 149.600 C 148.000 150.133,147.733 150.400,147.200 150.400 C 146.760 150.400,146.400 150.580,146.400 150.800 C 146.400 151.020,146.040 151.200,145.600 151.200 C 145.160 151.200,144.800 151.380,144.800 151.600 C 144.800 151.820,144.485 152.005,144.100 152.012 C 143.715 152.019,142.950 152.571,142.400 153.240 C 141.850 153.908,140.815 155.067,140.100 155.814 C 139.385 156.562,138.800 157.449,138.800 157.787 C 138.800 158.124,138.620 158.400,138.400 158.400 C 138.180 158.400,138.000 158.839,138.000 159.376 C 138.000 159.913,137.820 160.464,137.600 160.600 C 137.375 160.739,137.200 162.671,137.200 165.024 C 137.200 167.541,137.359 169.200,137.600 169.200 C 137.820 169.200,138.000 169.740,138.000 170.400 C 138.000 171.060,138.180 171.600,138.400 171.600 C 138.620 171.600,138.800 171.920,138.800 172.312 C 138.800 172.703,139.160 173.283,139.600 173.600 C 140.040 173.917,140.400 174.325,140.400 174.506 C 140.400 174.881,142.240 176.800,142.599 176.800 C 142.728 176.800,143.220 177.160,143.692 177.600 C 144.164 178.040,144.877 178.400,145.275 178.400 C 145.674 178.400,146.000 178.580,146.000 178.800 C 146.000 179.020,146.630 179.200,147.400 179.200 C 148.170 179.200,148.800 179.380,148.800 179.600 C 148.800 179.862,157.000 180.000,172.600 180.000 C 188.200 180.000,196.400 179.862,196.400 179.600 C 196.400 179.380,196.940 179.200,197.600 179.200 C 198.260 179.200,198.800 179.020,198.800 178.800 C 198.800 178.580,199.072 178.400,199.405 178.400 C 201.823 178.400,207.600 171.918,207.600 169.205 C 207.600 168.850,207.795 168.365,208.033 168.127 C 208.784 167.376,207.979 159.200,207.155 159.200 C 206.960 159.200,206.800 158.840,206.800 158.400 C 206.800 157.960,206.620 157.600,206.400 157.600 C 206.180 157.600,206.000 157.326,206.000 156.991 C 206.000 156.657,205.014 155.397,203.809 154.191 C 202.603 152.986,201.343 152.000,201.009 152.000 C 200.674 152.000,200.400 151.820,200.400 151.600 C 200.400 151.380,200.040 151.200,199.600 151.200 C 199.160 151.200,198.800 151.020,198.800 150.800 C 198.800 150.580,198.080 150.400,197.200 150.400 C 196.320 150.400,195.600 150.220,195.600 150.000 C 195.600 149.780,194.723 149.600,193.651 149.600 L 191.702 149.600 191.454 148.050 C 191.318 147.198,190.579 145.623,189.812 144.550 C 189.045 143.478,188.104 142.121,187.721 141.535 C 187.338 140.949,186.520 140.171,185.902 139.806 C 185.284 139.441,184.341 138.705,183.807 138.171 C 183.273 137.637,182.558 137.200,182.218 137.200 C 181.878 137.200,181.600 137.020,181.600 136.800 C 181.600 136.580,181.240 136.400,180.800 136.400 C 180.360 136.400,180.000 136.220,180.000 136.000 C 180.000 135.780,179.640 135.600,179.200 135.600 C 178.760 135.600,178.400 135.420,178.400 135.200 C 178.400 134.980,177.680 134.800,176.800 134.800 C 175.920 134.800,175.200 134.620,175.200 134.400 C 175.200 134.154,173.208 134.000,170.024 134.000 C 167.004 134.000,164.744 134.167,164.600 134.400 M243.696 139.998 C 241.126 141.565,240.803 142.649,240.801 149.720 C 240.800 157.921,241.763 159.922,245.887 160.282 C 250.531 160.688,252.144 158.336,252.340 150.870 C 252.600 140.987,249.163 136.665,243.696 139.998 M267.111 140.081 C 264.726 141.464,264.400 142.623,264.400 149.734 C 264.400 156.472,264.552 157.247,266.198 158.890 C 268.734 161.423,273.236 160.619,275.100 157.301 C 276.011 155.679,275.776 143.694,274.802 142.096 C 273.103 139.309,269.894 138.468,267.111 140.081 M290.621 139.950 C 286.152 142.572,286.288 157.236,290.804 159.658 C 296.309 162.610,299.201 159.195,299.199 149.746 C 299.196 140.538,295.946 136.826,290.621 139.950 M175.328 147.737 C 179.124 149.962,180.534 152.654,180.594 157.800 C 180.685 165.569,186.452 168.449,191.247 163.119 C 193.377 160.752,196.924 164.036,195.032 166.624 C 194.471 167.391,154.172 168.115,151.307 167.408 C 147.997 166.593,149.353 162.400,152.927 162.400 C 156.865 162.400,158.742 160.588,159.556 156.000 C 160.971 148.022,168.808 143.916,175.328 147.737 M29.096 164.172 C 24.250 165.901,23.832 172.186,28.408 174.506 C 29.689 175.155,31.312 175.203,48.729 175.106 L 67.658 175.000 69.275 173.267 C 72.281 170.043,70.799 164.964,66.565 163.982 C 63.921 163.369,30.877 163.536,29.096 164.172 M86.187 164.003 C 81.375 165.489,80.747 172.092,85.194 174.458 C 87.187 175.519,97.105 175.548,99.192 174.499 C 103.119 172.526,103.503 167.294,99.908 164.734 C 98.467 163.708,88.811 163.193,86.187 164.003 M346.567 164.388 C 342.795 165.914,342.402 171.894,345.920 174.261 C 347.113 175.063,360.868 175.584,365.522 175.002 C 371.190 174.294,372.922 167.145,368.038 164.619 C 366.701 163.928,348.197 163.728,346.567 164.388 M317.552 192.942 C 317.883 193.341,317.975 219.208,317.901 290.842 L 317.800 388.200 307.724 388.307 L 297.649 388.414 297.524 369.107 L 297.400 349.800 296.449 347.697 C 295.420 345.418,293.489 343.478,291.229 342.450 C 288.611 341.259,254.380 341.490,252.088 342.714 C 249.698 343.990,248.897 344.731,247.669 346.800 L 246.600 348.600 246.400 368.400 L 246.200 388.200 234.200 388.200 L 222.200 388.200 222.099 290.842 C 222.025 219.208,222.117 193.341,222.448 192.942 C 222.822 192.492,230.861 192.400,270.000 192.400 C 309.139 192.400,317.178 192.492,317.552 192.942 M29.015 193.800 C 24.433 195.432,23.892 201.439,28.096 204.002 C 29.580 204.907,65.124 205.265,67.404 204.398 C 72.319 202.530,71.882 195.058,66.773 193.592 C 64.467 192.931,30.937 193.115,29.015 193.800 M86.187 193.606 C 81.524 195.034,80.739 201.467,84.916 204.014 C 86.849 205.193,97.565 205.184,99.504 204.002 C 103.314 201.679,103.322 196.179,99.518 194.128 C 98.010 193.316,88.370 192.938,86.187 193.606 M243.216 201.848 C 240.942 203.761,240.800 204.412,240.801 212.880 C 240.801 219.432,240.907 220.811,241.501 221.992 C 243.662 226.294,249.583 226.253,251.838 221.920 C 252.800 220.070,252.635 205.206,251.634 203.560 C 249.855 200.635,245.669 199.784,243.216 201.848 M266.492 201.840 C 264.151 203.685,264.000 204.354,264.001 212.880 C 264.001 219.432,264.107 220.811,264.701 221.992 C 266.497 225.567,271.089 226.297,273.929 223.459 L 275.400 221.988 275.522 213.602 C 275.659 204.226,275.406 203.002,273.032 201.554 C 271.160 200.413,268.135 200.545,266.492 201.840 M290.389 201.450 C 287.841 203.032,287.600 204.016,287.600 212.814 C 287.600 218.928,287.734 221.097,288.162 221.920 C 290.343 226.112,295.952 226.322,298.402 222.304 C 299.638 220.276,299.608 205.834,298.362 203.618 C 296.863 200.950,292.919 199.878,290.389 201.450 M346.394 201.927 C 342.437 203.992,342.487 209.777,346.479 211.841 C 348.567 212.920,366.743 212.628,368.435 211.488 C 371.900 209.153,371.585 203.623,367.887 201.868 C 365.700 200.830,348.404 200.878,346.394 201.927 M73.800 228.394 C 77.540 229.061,82.580 229.968,85.000 230.409 C 87.420 230.849,90.480 231.396,91.800 231.623 C 94.110 232.021,97.508 232.651,99.600 233.070 C 100.150 233.180,101.545 233.434,102.700 233.635 C 103.855 233.836,105.745 234.172,106.900 234.383 C 108.055 234.593,111.160 235.149,113.800 235.619 C 116.440 236.089,119.500 236.645,120.600 236.855 C 121.700 237.065,123.590 237.400,124.800 237.600 C 126.010 237.800,127.900 238.135,129.000 238.345 C 130.100 238.555,133.070 239.097,135.600 239.549 C 165.079 244.819,169.888 245.694,175.000 246.720 L 178.600 247.443 178.701 317.922 L 178.802 388.400 168.401 388.400 L 158.000 388.400 158.000 362.442 C 158.000 330.841,157.802 328.274,154.820 321.110 C 143.782 294.596,103.664 292.917,90.071 318.400 C 88.600 321.158,87.831 323.060,86.671 326.800 C 86.384 327.725,86.163 338.369,86.019 358.200 L 85.800 388.200 75.200 388.200 L 64.600 388.200 64.497 308.000 C 64.387 221.445,64.297 226.635,65.900 226.958 C 66.505 227.081,70.060 227.727,73.800 228.394 M244.028 237.876 C 241.166 239.386,241.014 239.917,240.876 248.909 C 240.735 258.055,241.016 259.327,243.519 260.873 C 246.249 262.561,250.396 261.514,251.810 258.781 C 252.645 257.167,252.668 242.075,251.838 240.480 C 250.330 237.582,246.811 236.409,244.028 237.876 M267.228 237.876 C 264.353 239.393,264.214 239.890,264.078 249.137 C 263.944 258.292,264.077 258.850,266.898 260.940 C 269.286 262.709,273.566 261.573,275.006 258.788 C 275.844 257.167,275.871 242.080,275.038 240.480 C 273.530 237.582,270.011 236.409,267.228 237.876 M291.400 237.486 C 288.250 238.248,287.600 240.314,287.600 249.557 C 287.600 259.764,288.538 261.725,293.425 261.731 C 298.189 261.737,299.200 259.557,299.200 249.275 C 299.200 238.667,297.450 236.023,291.400 237.486 M346.297 239.290 C 342.112 241.715,342.571 247.524,347.097 249.415 C 349.082 250.244,365.281 250.260,367.251 249.435 C 371.682 247.579,372.131 241.570,368.012 239.255 C 365.658 237.932,348.592 237.959,346.297 239.290 M92.600 245.864 C 87.363 247.251,86.562 261.920,91.569 264.734 C 94.236 266.234,96.582 265.752,99.000 263.209 L 100.200 261.947 100.200 255.844 C 100.200 247.383,97.962 244.445,92.600 245.864 M120.200 245.870 C 114.725 247.317,113.967 262.253,119.235 264.881 C 124.451 267.483,127.598 264.023,127.599 255.687 C 127.600 247.671,125.239 244.538,120.200 245.870 M147.314 245.864 C 144.123 246.542,143.026 249.584,143.266 257.082 C 143.463 263.228,145.116 265.600,149.204 265.600 C 153.430 265.600,154.800 263.190,154.799 255.762 C 154.796 247.397,152.761 244.706,147.314 245.864 M244.082 273.651 C 241.113 275.120,240.800 276.232,240.801 285.284 C 240.801 291.832,240.907 293.211,241.501 294.392 C 243.554 298.480,249.194 298.654,251.602 294.704 C 252.819 292.708,252.810 277.677,251.590 275.677 C 250.039 273.133,246.861 272.275,244.082 273.651 M267.369 273.608 C 264.342 275.106,264.000 276.290,264.001 285.254 C 264.001 291.830,264.107 293.210,264.701 294.392 C 266.754 298.480,272.394 298.654,274.802 294.704 C 276.019 292.708,276.010 277.677,274.790 275.677 C 273.261 273.169,270.060 272.276,267.369 273.608 M290.908 273.586 C 287.828 274.984,287.603 275.773,287.603 285.200 C 287.603 294.354,287.804 295.161,290.496 296.802 C 293.128 298.407,296.727 297.452,298.402 294.704 C 299.599 292.740,299.608 278.368,298.413 276.026 C 296.996 273.248,293.883 272.235,290.908 273.586 M345.272 277.500 C 342.573 280.094,342.855 283.970,345.906 286.200 C 347.648 287.474,365.218 287.650,367.760 286.419 C 371.327 284.692,371.972 279.894,368.984 277.311 L 367.467 276.000 357.150 276.000 L 346.834 276.000 345.272 277.500 M91.800 277.944 C 87.393 280.666,86.823 292.426,90.937 295.756 C 93.708 297.999,98.353 296.961,99.692 293.800 C 100.246 292.490,100.412 282.953,99.911 281.174 C 99.002 277.949,94.618 276.203,91.800 277.944 M118.759 278.108 C 116.433 279.662,116.001 281.074,116.001 287.140 C 116.000 294.742,117.315 296.971,121.800 296.971 C 126.285 296.971,127.600 294.742,127.599 287.140 C 127.599 279.767,126.101 277.200,121.800 277.200 C 120.717 277.200,119.634 277.524,118.759 278.108 M146.487 277.865 C 142.441 279.859,141.617 293.358,145.390 295.830 C 148.163 297.647,151.000 297.400,153.255 295.145 L 154.800 293.600 154.800 287.338 C 154.800 278.491,151.907 275.194,146.487 277.865 M244.123 309.979 C 241.167 311.321,240.800 312.604,240.800 321.597 C 240.800 330.042,241.056 331.274,243.121 332.744 C 245.883 334.711,249.622 334.040,251.492 331.241 C 252.888 329.151,252.895 314.043,251.500 312.000 C 249.705 309.370,247.060 308.645,244.123 309.979 M267.369 310.008 C 264.354 311.501,264.000 312.707,264.000 321.506 C 264.000 329.919,264.288 331.296,266.357 332.770 C 269.084 334.711,272.833 334.024,274.692 331.241 C 276.088 329.151,276.095 314.043,274.700 312.000 C 272.895 309.355,270.179 308.617,267.369 310.008 M291.800 309.476 C 288.137 310.471,287.600 312.036,287.600 321.721 C 287.600 332.106,288.844 334.468,293.974 333.819 C 298.571 333.238,299.197 331.809,299.199 321.884 C 299.201 311.110,297.330 307.973,291.800 309.476 M126.800 312.157 C 135.725 313.768,142.345 319.583,145.290 328.400 C 146.420 331.785,146.973 387.426,145.885 388.329 C 145.451 388.690,139.493 388.781,121.555 388.703 L 97.800 388.600 97.687 359.800 C 97.569 329.644,97.575 329.515,99.337 325.600 C 103.981 315.284,114.795 309.990,126.800 312.157 M346.600 313.761 C 342.847 315.417,342.259 320.630,345.542 323.136 L 346.936 324.200 356.666 324.320 C 365.200 324.425,366.574 324.355,367.845 323.752 C 371.799 321.876,371.825 315.737,367.887 313.868 C 366.028 312.986,348.555 312.898,346.600 313.761 M285.520 353.680 C 286.126 354.286,286.219 387.817,285.616 388.190 C 285.050 388.540,260.341 388.972,259.077 388.655 L 258.000 388.385 258.000 371.059 C 258.000 361.530,258.120 353.613,258.267 353.467 C 258.780 352.953,284.999 353.159,285.520 353.680 " stroke="none" fill="#050404" fill-rule="evenodd"></path></g></svg>