<svg width="25" height="25" viewBox="0 0 25 25" fill="none" xmlns="http://www.w3.org/2000/svg">
<path fill-rule="evenodd" clip-rule="evenodd" d="M12.6666 24.6667C19.294 24.6667 24.6666 19.2941 24.6666 12.6667C24.6666 6.03927 19.294 0.666687 12.6666 0.666687C6.03921 0.666687 0.666626 6.03927 0.666626 12.6667C0.666626 19.2941 6.03921 24.6667 12.6666 24.6667ZM15.7843 10.8665C15.0761 9.63979 11.2882 7.58012 9.73337 6.77158C9.41655 6.60682 9.04381 6.82202 9.02809 7.17878C8.9509 8.92953 8.84068 13.2398 9.54894 14.4665C10.2572 15.6933 14.0451 17.753 15.5999 18.5615C15.9167 18.7263 16.2895 18.5111 16.3052 18.1543C16.3824 16.4035 16.4926 12.0933 15.7843 10.8665Z" fill="#00B4D8"/>
</svg>
