<svg width="36" height="36" viewBox="0 0 36 36" fill="none" xmlns="http://www.w3.org/2000/svg">
<path fill-rule="evenodd" clip-rule="evenodd" d="M18 33C26.2843 33 33 26.2843 33 18C33 9.71573 26.2843 3 18 3C9.71573 3 3 9.71573 3 18C3 26.2843 9.71573 33 18 33ZM21.8972 15.7498C20.9858 14.1711 15.9943 11.489 14.169 10.5458C13.8517 10.3819 13.477 10.5982 13.4603 10.9549C13.3645 13.0073 13.1915 18.6711 14.103 20.2498C15.0144 21.8285 20.0059 24.5106 21.8312 25.4538C22.1485 25.6177 22.5232 25.4014 22.5399 25.0447C22.6357 22.9923 22.8087 17.3285 21.8972 15.7498Z" fill="#00B4D8"/>
</svg>
