<?xml version="1.0" standalone="no"?>
<!DOCTYPE svg PUBLIC "-//W3C//DTD SVG 20010904//EN"
 "http://www.w3.org/TR/2001/REC-SVG-20010904/DTD/svg10.dtd">
<svg version="1.0" xmlns="http://www.w3.org/2000/svg"
 width="29.000000pt" height="30.000000pt" viewBox="0 0 29.000000 30.000000"
 preserveAspectRatio="xMidYMid meet">

<g transform="translate(0.000000,30.000000) scale(0.100000,-0.100000)"
fill="#000000" stroke="none">
<path d="M72 258 l-73 -42 3 -101 3 -100 44 -3 c50 -4 61 6 61 56 0 30 2 32
34 32 34 0 35 -1 38 -42 l3 -43 44 -3 c28 -2 47 1 52 10 5 7 9 52 9 100 l0 88
-37 23 c-21 13 -54 33 -74 45 l-35 21 -72 -41z"/>
</g>
</svg>
