<svg width="25" height="25" viewBox="0 0 25 25" fill="none" xmlns="http://www.w3.org/2000/svg">
<path fill-rule="evenodd" clip-rule="evenodd" d="M0.970505 8.16567C0.5 9.05806 0.5 10.0733 0.5 12.1037V18.445C0.5 21.2648 0.5 22.6747 1.50421 23.5507C2.4935 24.4138 4.0768 24.4266 7.21423 24.4268V16.9496C7.21423 15.4475 8.56209 14.4542 9.92852 14.4542H15.0714C16.4378 14.4542 17.7857 15.4475 17.7857 16.9496V24.4268C20.9232 24.4266 22.5065 24.4138 23.4958 23.5507C24.5 22.6747 24.5 21.2648 24.5 18.445V12.1037C24.5 10.0733 24.5 9.05806 24.0295 8.16567C23.559 7.27328 22.6754 6.61258 20.9081 5.29119L19.1939 4.00938C15.9996 1.62096 14.4025 0.426758 12.5 0.426758C10.5975 0.426758 9.0004 1.62096 5.80615 4.00938L4.09186 5.29119C2.32463 6.61258 1.44101 7.27328 0.970505 8.16567ZM15.7857 24.4268V16.9496C15.7857 16.8608 15.7467 16.7509 15.6262 16.6458C15.5036 16.5389 15.3105 16.4542 15.0714 16.4542H9.92852C9.6894 16.4542 9.49626 16.5389 9.3737 16.6458C9.25315 16.7509 9.21423 16.8608 9.21423 16.9496V24.4268H15.7857Z" fill="#00B4D8"/>
</svg>
