<svg id="svg" version="1.1" xmlns="http://www.w3.org/2000/svg" xmlns:xlink="http://www.w3.org/1999/xlink" width="400" height="400" viewBox="0, 0, 400,400"><g id="svgg"><path id="path0" d="M162.980 47.570 C 162.771 47.773,161.250 48.032,159.600 48.144 C 155.547 48.421,153.078 48.809,152.620 49.241 C 152.411 49.438,151.646 49.600,150.920 49.600 C 150.194 49.600,149.600 49.780,149.600 50.000 C 149.600 50.220,148.970 50.400,148.200 50.400 C 147.430 50.400,146.800 50.580,146.800 50.800 C 146.800 51.020,146.350 51.200,145.800 51.200 C 145.250 51.200,144.800 51.380,144.800 51.600 C 144.800 51.820,144.476 52.000,144.080 52.000 C 143.186 52.000,141.207 52.894,141.203 53.300 C 141.201 53.465,140.840 53.600,140.400 53.600 C 139.960 53.600,139.600 53.780,139.600 54.000 C 139.600 54.220,139.184 54.400,138.675 54.400 C 138.167 54.400,137.364 54.760,136.892 55.200 C 136.420 55.640,135.756 56.000,135.417 56.000 C 135.078 56.000,134.800 56.180,134.800 56.400 C 134.800 56.620,134.480 56.800,134.088 56.800 C 133.697 56.800,133.117 57.160,132.800 57.600 C 132.483 58.040,131.994 58.400,131.713 58.400 C 131.170 58.400,127.672 60.791,126.000 62.305 C 122.874 65.135,117.600 70.509,117.600 70.864 C 117.600 71.092,117.060 71.783,116.400 72.400 C 115.740 73.017,115.200 73.769,115.200 74.072 C 115.200 74.375,114.840 74.883,114.400 75.200 C 113.960 75.517,113.600 75.924,113.600 76.105 C 113.600 76.286,113.240 76.820,112.800 77.292 C 112.360 77.764,112.000 78.387,112.000 78.675 C 112.000 78.964,111.820 79.200,111.600 79.200 C 111.380 79.200,111.200 79.560,111.200 80.000 C 111.200 80.440,111.042 80.800,110.849 80.800 C 110.655 80.800,110.274 81.385,110.002 82.100 C 109.729 82.815,109.257 83.967,108.953 84.660 C 108.649 85.354,108.400 86.209,108.400 86.560 C 108.400 86.912,108.220 87.200,108.000 87.200 C 107.780 87.200,107.600 87.740,107.600 88.400 C 107.600 89.060,107.420 89.600,107.200 89.600 C 106.980 89.600,106.800 90.140,106.800 90.800 C 106.800 91.460,106.620 92.000,106.400 92.000 C 106.180 92.000,106.000 92.630,106.000 93.400 C 106.000 94.170,105.820 94.800,105.600 94.800 C 105.380 94.800,105.200 95.520,105.200 96.400 C 105.200 97.280,105.020 98.000,104.800 98.000 C 104.580 98.000,104.400 98.979,104.400 100.176 C 104.400 101.373,104.220 102.464,104.000 102.600 C 103.751 102.754,103.600 106.604,103.600 112.824 C 103.600 119.208,103.744 122.800,104.000 122.800 C 104.220 122.800,104.400 123.689,104.400 124.776 C 104.400 125.863,104.580 126.864,104.800 127.000 C 105.020 127.136,105.200 128.047,105.200 129.024 C 105.200 130.001,105.380 130.800,105.600 130.800 C 105.820 130.800,106.000 131.325,106.000 131.967 C 106.000 132.608,106.225 133.214,106.500 133.312 C 106.775 133.410,106.874 133.627,106.719 133.793 C 106.413 134.122,105.200 133.084,105.200 132.492 C 105.200 131.772,95.442 122.400,94.692 122.400 C 94.488 122.400,93.817 121.860,93.200 121.200 C 92.583 120.540,91.881 120.000,91.640 120.000 C 91.398 120.000,91.200 119.850,91.200 119.668 C 91.200 119.485,90.705 119.080,90.100 118.768 C 89.495 118.455,88.651 117.885,88.225 117.500 C 87.798 117.115,87.213 116.800,86.925 116.800 C 86.636 116.800,86.400 116.620,86.400 116.400 C 86.400 116.180,86.040 116.000,85.600 116.000 C 85.160 116.000,84.800 115.820,84.800 115.600 C 84.800 115.380,84.440 115.200,84.000 115.200 C 83.560 115.200,83.200 115.020,83.200 114.800 C 83.200 114.580,82.840 114.400,82.400 114.400 C 81.960 114.400,81.600 114.220,81.600 114.000 C 81.600 113.780,81.240 113.600,80.800 113.600 C 80.360 113.600,80.000 113.420,80.000 113.200 C 80.000 112.980,79.640 112.800,79.200 112.800 C 78.760 112.800,78.400 112.620,78.400 112.400 C 78.400 112.180,77.875 112.000,77.233 112.000 C 76.592 112.000,76.007 111.865,75.933 111.699 C 75.860 111.534,74.630 111.014,73.200 110.543 C 68.750 109.079,67.507 108.835,62.900 108.523 C 61.085 108.400,59.600 108.142,59.600 107.950 C 59.600 107.757,56.540 107.600,52.800 107.600 C 49.060 107.600,46.000 107.761,46.000 107.958 C 46.000 108.154,44.515 108.422,42.700 108.553 C 38.274 108.872,37.717 108.950,37.367 109.300 C 37.202 109.465,36.477 109.600,35.757 109.600 C 35.037 109.600,34.336 109.780,34.200 110.000 C 34.064 110.220,33.524 110.400,33.000 110.400 C 32.476 110.400,31.936 110.580,31.800 110.800 C 31.664 111.020,31.220 111.200,30.814 111.200 C 30.176 111.200,28.998 111.692,25.905 113.250 C 25.523 113.443,24.938 113.600,24.605 113.600 C 24.272 113.600,23.997 113.735,23.994 113.900 C 23.990 114.065,23.090 114.640,21.994 115.179 C 20.897 115.717,20.000 116.302,20.000 116.479 C 20.000 116.655,19.640 116.800,19.200 116.800 C 18.760 116.800,18.400 116.950,18.400 117.132 C 18.400 117.315,17.905 117.719,17.300 118.030 C 16.695 118.340,15.909 118.911,15.553 119.297 C 15.197 119.684,14.684 120.000,14.414 120.000 C 14.143 120.000,13.417 120.540,12.800 121.200 C 12.183 121.860,11.567 122.400,11.429 122.400 C 11.291 122.400,10.401 123.165,9.450 124.100 C 8.499 125.035,6.978 126.430,6.070 127.200 C 5.161 127.970,4.414 128.825,4.409 129.100 C 4.404 129.375,4.220 129.600,4.000 129.600 C 3.780 129.600,3.600 129.798,3.600 130.040 C 3.600 130.281,3.105 130.958,2.500 131.542 C 0.010 133.949,-0.865 137.200,0.976 137.200 C 1.513 137.200,2.064 137.380,2.200 137.600 C 2.336 137.820,3.787 138.000,5.424 138.000 C 7.061 138.000,8.400 138.165,8.400 138.367 C 8.400 138.569,9.615 138.833,11.100 138.953 C 12.585 139.073,15.330 139.364,17.200 139.600 C 19.070 139.836,21.860 140.128,23.400 140.250 C 24.940 140.372,26.384 140.623,26.609 140.809 C 26.834 140.995,29.489 141.275,32.509 141.432 C 35.529 141.588,38.000 141.870,38.000 142.058 C 38.000 142.246,39.260 142.400,40.800 142.400 C 42.400 142.400,43.600 142.571,43.600 142.800 C 43.600 143.031,44.867 143.200,46.600 143.200 C 48.333 143.200,49.600 143.369,49.600 143.600 C 49.600 143.833,50.933 144.000,52.800 144.000 C 54.667 144.000,56.000 144.167,56.000 144.400 C 56.000 144.625,57.125 144.800,58.576 144.800 C 59.993 144.800,61.264 144.980,61.400 145.200 C 61.536 145.420,62.987 145.600,64.624 145.600 C 66.341 145.600,67.600 145.769,67.600 146.000 C 67.600 146.229,68.800 146.400,70.400 146.400 C 72.000 146.400,73.200 146.571,73.200 146.800 C 73.200 147.020,72.840 147.200,72.400 147.200 C 71.960 147.200,71.600 147.380,71.600 147.600 C 71.600 147.820,71.071 148.000,70.424 148.000 C 69.777 148.000,69.136 148.180,69.000 148.400 C 68.864 148.620,68.313 148.800,67.776 148.800 C 67.239 148.800,66.800 148.980,66.800 149.200 C 66.800 149.420,66.260 149.600,65.600 149.600 C 64.940 149.600,64.400 149.780,64.400 150.000 C 64.400 150.220,64.040 150.400,63.600 150.400 C 63.160 150.400,62.799 150.535,62.797 150.700 C 62.793 151.065,60.851 152.000,60.097 152.000 C 59.798 152.000,59.664 152.180,59.800 152.400 C 59.936 152.620,59.677 152.800,59.224 152.800 C 58.771 152.800,58.400 152.980,58.400 153.200 C 58.400 153.420,58.080 153.600,57.688 153.600 C 57.297 153.600,56.717 153.960,56.400 154.400 C 56.083 154.840,55.503 155.200,55.112 155.200 C 54.720 155.200,54.400 155.350,54.400 155.532 C 54.400 155.715,53.905 156.119,53.300 156.430 C 52.695 156.740,51.930 157.283,51.600 157.634 C 51.270 157.986,50.561 158.507,50.025 158.791 C 48.672 159.509,42.036 165.600,42.608 165.600 C 42.713 165.600,42.079 166.342,41.200 167.248 C 40.320 168.155,39.600 169.073,39.600 169.288 C 39.600 169.503,39.060 170.183,38.400 170.800 C 37.740 171.417,37.200 172.169,37.200 172.472 C 37.200 172.775,36.840 173.283,36.400 173.600 C 35.960 173.917,35.600 174.497,35.600 174.888 C 35.600 175.280,35.420 175.600,35.200 175.600 C 34.980 175.600,34.800 175.836,34.800 176.125 C 34.800 176.413,34.440 177.036,34.000 177.508 C 33.560 177.980,33.200 178.644,33.200 178.983 C 33.200 179.322,33.020 179.600,32.800 179.600 C 32.580 179.600,32.400 179.949,32.400 180.376 C 32.400 180.803,32.220 181.264,32.000 181.400 C 31.780 181.536,31.600 181.997,31.600 182.424 C 31.600 182.851,31.420 183.200,31.200 183.200 C 30.980 183.200,30.800 183.560,30.800 184.000 C 30.800 184.440,30.620 184.800,30.400 184.800 C 30.180 184.800,30.000 185.340,30.000 186.000 C 30.000 186.660,29.820 187.200,29.600 187.200 C 29.380 187.200,29.200 187.740,29.200 188.400 C 29.200 189.060,29.057 189.600,28.882 189.600 C 28.707 189.600,28.518 190.275,28.463 191.099 C 28.407 191.924,28.190 192.770,27.981 192.979 C 27.771 193.189,27.600 193.943,27.600 194.656 C 27.600 195.369,27.455 196.043,27.277 196.152 C 27.100 196.262,26.928 197.369,26.896 198.613 C 26.863 199.856,26.676 201.082,26.479 201.337 C 26.069 201.868,26.120 219.491,26.535 220.400 C 26.685 220.730,26.872 221.810,26.951 222.800 C 27.187 225.777,27.980 226.714,29.317 225.596 C 29.583 225.373,30.430 224.656,31.200 224.002 C 31.970 223.348,32.730 222.810,32.889 222.806 C 33.049 222.803,33.989 221.990,34.979 221.000 C 35.969 220.010,36.924 219.200,37.102 219.200 C 37.280 219.200,38.369 218.300,39.522 217.200 C 40.675 216.100,41.716 215.200,41.835 215.200 C 41.954 215.200,42.929 214.300,44.000 213.200 C 45.071 212.100,46.105 211.200,46.296 211.200 C 46.604 211.200,48.031 210.037,50.621 207.677 C 51.072 207.265,51.756 206.752,52.142 206.537 C 52.936 206.092,56.427 203.034,59.031 200.500 C 59.993 199.565,60.945 198.800,61.149 198.800 C 61.352 198.800,62.438 197.900,63.561 196.800 C 64.685 195.700,65.783 194.800,66.002 194.800 C 66.221 194.800,66.400 194.620,66.400 194.400 C 66.400 194.180,66.586 194.000,66.813 194.000 C 67.041 194.000,67.827 193.415,68.560 192.700 C 69.294 191.985,70.413 191.043,71.047 190.606 C 71.681 190.169,72.989 189.044,73.953 188.106 C 74.917 187.168,75.834 186.400,75.992 186.400 C 76.149 186.400,77.413 185.320,78.800 184.000 C 80.187 182.680,81.486 181.600,81.687 181.600 C 81.888 181.600,82.929 180.700,84.000 179.600 C 85.071 178.500,86.113 177.600,86.315 177.600 C 86.516 177.600,87.203 177.105,87.841 176.500 C 88.479 175.895,89.894 174.680,90.985 173.800 C 92.077 172.920,93.673 171.525,94.533 170.700 C 95.393 169.875,96.266 169.200,96.474 169.200 C 96.682 169.200,97.729 168.300,98.800 167.200 C 99.871 166.100,100.951 165.200,101.200 165.200 C 101.449 165.200,102.529 164.300,103.600 163.200 C 104.671 162.100,105.740 161.200,105.974 161.200 C 106.208 161.200,106.400 161.050,106.400 160.868 C 106.400 160.685,106.852 160.293,107.405 159.997 C 108.122 159.614,108.341 159.244,108.170 158.706 C 107.994 158.151,108.428 157.512,109.823 156.276 C 110.864 155.354,112.545 153.848,113.558 152.928 C 115.993 150.718,125.612 148.201,129.900 148.651 C 131.661 148.836,132.400 148.779,132.400 148.457 C 132.400 148.203,133.011 148.000,133.776 148.000 C 134.533 148.000,135.264 147.820,135.400 147.600 C 135.536 147.380,136.256 147.200,137.000 147.200 C 137.744 147.200,138.464 147.020,138.600 146.800 C 138.736 146.580,139.467 146.400,140.224 146.400 C 140.981 146.400,141.600 146.220,141.600 146.000 C 141.600 145.780,142.320 145.600,143.200 145.600 C 144.080 145.600,144.800 145.420,144.800 145.200 C 144.800 144.980,145.520 144.800,146.400 144.800 C 147.280 144.800,148.000 144.620,148.000 144.400 C 148.000 144.180,148.720 144.000,149.600 144.000 C 150.480 144.000,151.200 143.820,151.200 143.600 C 151.200 143.380,151.920 143.200,152.800 143.200 C 153.680 143.200,154.400 143.020,154.400 142.800 C 154.400 142.580,155.030 142.400,155.800 142.400 C 156.570 142.400,157.200 142.256,157.200 142.079 C 157.200 141.903,158.595 141.539,160.300 141.271 C 162.005 141.003,164.076 140.678,164.903 140.550 C 165.729 140.421,166.505 140.155,166.626 139.958 C 166.748 139.761,167.456 139.600,168.200 139.600 C 168.944 139.600,169.664 139.420,169.800 139.200 C 169.936 138.980,170.656 138.800,171.400 138.800 C 172.144 138.800,172.864 138.620,173.000 138.400 C 173.136 138.180,173.867 138.000,174.624 138.000 C 175.381 138.000,176.000 137.820,176.000 137.600 C 176.000 137.380,176.720 137.200,177.600 137.200 C 178.480 137.200,179.200 137.020,179.200 136.800 C 179.200 136.580,179.920 136.400,180.800 136.400 C 181.680 136.400,182.400 136.220,182.400 136.000 C 182.400 135.780,183.120 135.600,184.000 135.600 C 184.880 135.600,185.600 135.420,185.600 135.200 C 185.600 134.980,186.320 134.800,187.200 134.800 C 188.080 134.800,188.800 134.620,188.800 134.400 C 188.800 134.180,189.430 134.000,190.200 134.000 C 190.970 134.000,191.600 133.820,191.600 133.600 C 191.600 133.380,192.320 133.200,193.200 133.200 C 194.080 133.200,194.800 133.020,194.800 132.800 C 194.800 132.580,195.520 132.400,196.400 132.400 C 197.280 132.400,198.000 132.220,198.000 132.000 C 198.000 131.780,198.720 131.600,199.600 131.600 C 200.480 131.600,201.200 131.420,201.200 131.200 C 201.200 130.980,201.920 130.800,202.800 130.800 C 203.680 130.800,204.400 130.620,204.400 130.400 C 204.400 130.180,205.120 130.000,206.000 130.000 C 206.880 130.000,207.600 129.820,207.600 129.600 C 207.600 129.380,208.219 129.200,208.976 129.200 C 209.733 129.200,210.464 129.020,210.600 128.800 C 210.736 128.580,211.467 128.400,212.224 128.400 C 212.981 128.400,213.600 128.220,213.600 128.000 C 213.600 127.780,214.309 127.600,215.176 127.600 C 216.043 127.600,216.864 127.420,217.000 127.200 C 217.136 126.980,217.856 126.800,218.600 126.800 C 219.344 126.800,220.064 126.620,220.200 126.400 C 220.336 126.180,221.157 126.000,222.024 126.000 C 222.891 126.000,223.600 125.820,223.600 125.600 C 223.600 125.380,224.113 125.200,224.740 125.200 C 228.393 125.200,228.981 124.183,226.700 121.813 C 225.765 120.841,224.550 119.533,224.000 118.905 C 223.450 118.278,222.370 117.327,221.600 116.791 C 220.830 116.256,219.787 115.408,219.282 114.909 C 218.777 114.409,218.220 114.000,218.044 114.000 C 217.868 114.000,217.201 113.550,216.562 113.000 C 215.923 112.451,215.175 112.001,214.900 112.000 C 214.625 112.000,214.400 111.853,214.400 111.674 C 214.400 111.375,211.988 110.055,211.297 109.977 C 211.134 109.958,210.666 109.641,210.258 109.271 C 209.850 108.902,209.400 108.622,209.258 108.649 C 208.915 108.714,207.851 108.317,207.600 108.029 C 207.188 107.558,205.589 106.800,205.005 106.800 C 204.672 106.800,204.400 106.620,204.400 106.400 C 204.400 106.180,204.040 106.000,203.600 106.000 C 203.160 106.000,202.800 105.820,202.800 105.600 C 202.800 105.380,202.350 105.200,201.800 105.200 C 201.250 105.200,200.800 105.020,200.800 104.800 C 200.800 104.580,200.350 104.400,199.800 104.400 C 199.250 104.400,198.800 104.220,198.800 104.000 C 198.800 103.780,198.271 103.600,197.624 103.600 C 196.977 103.600,196.336 103.420,196.200 103.200 C 196.064 102.980,195.333 102.800,194.576 102.800 C 193.819 102.800,193.200 102.620,193.200 102.400 C 193.200 102.180,192.390 102.000,191.400 102.000 C 190.410 102.000,189.600 101.820,189.600 101.600 C 189.600 101.375,188.475 101.200,187.024 101.200 C 185.607 101.200,184.336 101.020,184.200 100.800 C 184.051 100.560,181.329 100.400,177.376 100.400 C 173.259 100.400,170.800 100.550,170.800 100.800 C 170.800 101.029,169.600 101.200,168.000 101.200 C 166.400 101.200,165.200 101.371,165.200 101.600 C 165.200 101.820,164.401 102.000,163.424 102.000 C 162.447 102.000,161.536 102.180,161.400 102.400 C 161.264 102.620,160.713 102.800,160.176 102.800 C 159.639 102.800,159.200 102.980,159.200 103.200 C 159.200 103.420,158.660 103.600,158.000 103.600 C 157.340 103.600,156.800 103.780,156.800 104.000 C 156.800 104.220,156.260 104.400,155.600 104.400 C 154.940 104.400,154.400 104.580,154.400 104.800 C 154.400 105.020,154.040 105.200,153.600 105.200 C 153.160 105.200,152.800 105.380,152.800 105.600 C 152.800 105.820,152.440 106.000,152.000 106.000 C 151.560 106.000,151.200 106.180,151.200 106.400 C 151.200 106.620,150.742 106.800,150.183 106.800 C 149.624 106.800,148.780 107.160,148.308 107.600 C 147.836 108.040,147.213 108.400,146.925 108.400 C 146.636 108.400,146.400 108.591,146.400 108.824 C 146.400 109.057,146.246 109.152,146.059 109.036 C 145.871 108.920,144.874 109.359,143.845 110.013 C 142.815 110.666,141.871 111.200,141.747 111.200 C 141.622 111.200,141.017 111.740,140.400 112.400 C 139.783 113.060,139.067 113.600,138.808 113.600 C 138.549 113.600,137.624 114.342,136.752 115.250 C 135.880 116.157,135.039 116.763,134.883 116.595 C 134.727 116.428,134.825 116.210,135.100 116.112 C 135.375 116.014,135.600 115.588,135.600 115.167 C 135.600 114.745,135.780 114.400,136.000 114.400 C 136.220 114.400,136.400 114.040,136.400 113.600 C 136.400 113.160,136.580 112.800,136.800 112.800 C 137.020 112.800,137.200 112.440,137.200 112.000 C 137.200 111.560,137.380 111.200,137.600 111.200 C 137.820 111.200,138.000 110.840,138.000 110.400 C 138.000 109.960,138.180 109.600,138.400 109.600 C 138.620 109.600,138.800 109.255,138.800 108.833 C 138.800 108.412,138.942 108.007,139.116 107.933 C 139.543 107.753,141.600 103.328,141.600 102.589 C 141.600 102.265,141.780 102.000,142.000 102.000 C 142.220 102.000,142.400 101.640,142.400 101.200 C 142.400 100.760,142.580 100.400,142.800 100.400 C 143.020 100.400,143.200 100.040,143.200 99.600 C 143.200 99.160,143.380 98.800,143.600 98.800 C 143.820 98.800,144.000 98.440,144.000 98.000 C 144.000 97.560,144.180 97.200,144.400 97.200 C 144.620 97.200,144.800 96.840,144.800 96.400 C 144.800 95.960,144.980 95.600,145.200 95.600 C 145.420 95.600,145.600 95.240,145.600 94.800 C 145.600 94.360,145.780 94.000,146.000 94.000 C 146.220 94.000,146.400 93.640,146.400 93.200 C 146.400 92.760,146.580 92.400,146.800 92.400 C 147.020 92.400,147.200 92.130,147.200 91.800 C 147.200 91.470,147.380 91.200,147.600 91.200 C 147.820 91.200,148.000 90.840,148.000 90.400 C 148.000 89.960,148.180 89.600,148.400 89.600 C 148.620 89.600,148.800 89.240,148.800 88.800 C 148.800 88.360,148.980 88.000,149.200 88.000 C 149.420 88.000,149.600 87.640,149.600 87.200 C 149.600 86.760,149.780 86.400,150.000 86.400 C 150.220 86.400,150.400 86.040,150.400 85.600 C 150.400 85.160,150.580 84.800,150.800 84.800 C 151.020 84.800,151.200 84.440,151.200 84.000 C 151.200 83.560,151.380 83.200,151.600 83.200 C 151.820 83.200,152.000 82.855,152.000 82.433 C 152.000 82.012,152.138 81.607,152.307 81.533 C 152.476 81.460,153.723 79.240,155.078 76.600 C 156.432 73.960,157.823 71.260,158.168 70.600 C 158.513 69.940,158.796 69.175,158.798 68.900 C 158.799 68.625,158.980 68.400,159.200 68.400 C 159.420 68.400,159.600 68.040,159.600 67.600 C 159.600 67.160,159.780 66.800,160.000 66.800 C 160.220 66.800,160.400 66.440,160.400 66.000 C 160.400 65.560,160.580 65.200,160.800 65.200 C 161.020 65.200,161.200 64.840,161.200 64.400 C 161.200 63.960,161.380 63.600,161.600 63.600 C 161.820 63.600,162.000 63.240,162.000 62.800 C 162.000 62.360,162.180 62.000,162.400 62.000 C 162.620 62.000,162.800 61.640,162.800 61.200 C 162.800 60.760,162.980 60.400,163.200 60.400 C 163.420 60.400,163.600 60.040,163.600 59.600 C 163.600 59.160,163.735 58.799,163.900 58.799 C 164.065 58.798,164.650 57.808,165.200 56.600 C 165.750 55.392,166.335 54.402,166.500 54.401 C 166.665 54.401,166.800 54.040,166.800 53.600 C 166.800 53.160,166.980 52.800,167.200 52.800 C 167.420 52.800,167.600 52.440,167.600 52.000 C 167.600 51.560,167.780 51.200,168.000 51.200 C 168.220 51.200,168.400 50.840,168.400 50.400 C 168.400 49.960,168.580 49.600,168.800 49.600 C 169.020 49.600,169.200 49.060,169.200 48.400 L 169.200 47.200 166.280 47.200 C 164.674 47.200,163.189 47.366,162.980 47.570 M256.800 118.000 C 256.800 118.660,256.980 119.200,257.200 119.200 C 257.420 119.200,257.600 119.560,257.600 120.000 C 257.600 120.440,257.780 120.800,258.000 120.800 C 258.220 120.800,258.400 121.160,258.400 121.600 C 258.400 122.040,258.580 122.400,258.800 122.400 C 259.020 122.400,259.170 122.535,259.134 122.700 C 259.004 123.297,259.695 125.200,260.043 125.200 C 260.240 125.200,260.400 125.560,260.400 126.000 C 260.400 126.440,260.580 126.800,260.800 126.800 C 261.020 126.800,261.200 127.160,261.200 127.600 C 261.200 128.040,261.380 128.400,261.600 128.400 C 261.820 128.400,262.000 128.760,262.000 129.200 C 262.000 129.640,262.180 130.000,262.400 130.000 C 262.620 130.000,262.800 130.360,262.800 130.800 C 262.800 131.240,262.980 131.600,263.200 131.600 C 263.420 131.600,263.600 131.960,263.600 132.400 C 263.600 132.840,263.780 133.200,264.000 133.200 C 264.220 133.200,264.400 133.560,264.400 134.000 C 264.400 134.440,264.580 134.800,264.800 134.800 C 265.020 134.800,265.200 135.160,265.200 135.600 C 265.200 136.040,265.380 136.400,265.600 136.400 C 265.820 136.400,266.000 136.760,266.000 137.200 C 266.000 137.640,266.146 138.000,266.325 138.000 C 266.504 138.000,266.898 138.630,267.200 139.400 C 267.502 140.170,267.896 140.800,268.075 140.800 C 268.254 140.800,268.400 141.160,268.400 141.600 C 268.400 142.040,268.580 142.400,268.800 142.400 C 269.020 142.400,269.200 142.760,269.200 143.200 C 269.200 143.640,269.380 144.000,269.600 144.000 C 269.820 144.000,270.000 144.360,270.000 144.800 C 270.000 145.240,270.180 145.600,270.400 145.600 C 270.620 145.600,270.800 145.960,270.800 146.400 C 270.800 146.840,270.980 147.200,271.200 147.200 C 271.420 147.200,271.600 147.560,271.600 148.000 C 271.600 148.440,271.780 148.800,272.000 148.800 C 272.220 148.800,272.400 149.160,272.400 149.600 C 272.400 150.040,272.580 150.400,272.800 150.400 C 273.020 150.400,273.200 150.760,273.200 151.200 C 273.200 151.640,273.380 152.000,273.600 152.000 C 273.820 152.000,274.000 152.360,274.000 152.800 C 274.000 153.240,274.180 153.600,274.400 153.600 C 274.620 153.600,274.804 153.915,274.809 154.300 C 274.814 154.685,275.170 155.450,275.600 156.000 C 276.030 156.550,276.386 157.175,276.391 157.388 C 276.405 157.976,284.130 173.380,284.488 173.533 C 284.944 173.728,284.870 174.800,284.400 174.800 C 284.180 174.800,284.000 174.620,284.000 174.400 C 284.000 174.180,283.712 174.000,283.360 174.000 C 283.009 174.000,282.217 173.460,281.600 172.800 C 280.983 172.140,280.231 171.600,279.928 171.600 C 279.625 171.600,279.117 171.240,278.800 170.800 C 278.483 170.360,277.986 170.000,277.695 170.000 C 277.404 170.000,276.780 169.640,276.308 169.200 C 275.836 168.760,275.213 168.400,274.925 168.400 C 274.636 168.400,274.400 168.220,274.400 168.000 C 274.400 167.780,274.040 167.600,273.600 167.600 C 273.160 167.600,272.800 167.420,272.800 167.200 C 272.800 166.980,272.440 166.800,272.000 166.800 C 271.560 166.800,271.200 166.620,271.200 166.400 C 271.200 166.180,270.750 166.000,270.200 166.000 C 269.650 166.000,269.200 165.820,269.200 165.600 C 269.200 165.380,268.851 165.200,268.424 165.200 C 267.997 165.200,267.536 165.020,267.400 164.800 C 267.264 164.580,266.724 164.400,266.200 164.400 C 265.676 164.400,265.136 164.220,265.000 164.000 C 264.864 163.780,264.133 163.600,263.376 163.600 C 262.619 163.600,262.000 163.420,262.000 163.200 C 262.000 162.980,261.100 162.800,260.000 162.800 C 258.900 162.800,258.000 162.627,258.000 162.415 C 258.000 161.890,242.025 162.159,239.200 162.732 C 237.990 162.978,236.325 163.293,235.500 163.433 C 234.675 163.573,234.000 163.848,234.000 164.044 C 234.000 164.240,233.460 164.400,232.800 164.400 C 232.140 164.400,231.600 164.580,231.600 164.800 C 231.600 165.020,231.060 165.200,230.400 165.200 C 229.740 165.200,229.200 165.380,229.200 165.600 C 229.200 165.820,228.840 166.000,228.400 166.000 C 227.960 166.000,227.600 166.180,227.600 166.400 C 227.600 166.620,227.150 166.800,226.600 166.800 C 226.050 166.800,225.600 166.980,225.600 167.200 C 225.600 167.420,225.240 167.600,224.800 167.600 C 224.360 167.600,224.000 167.780,224.000 168.000 C 224.000 168.220,223.640 168.400,223.200 168.400 C 222.760 168.400,222.400 168.580,222.400 168.800 C 222.400 169.020,222.164 169.200,221.875 169.200 C 221.587 169.200,220.964 169.560,220.492 170.000 C 220.020 170.440,219.396 170.800,219.105 170.800 C 218.814 170.800,218.317 171.160,218.000 171.600 C 217.683 172.040,217.143 172.400,216.800 172.400 C 216.457 172.400,215.917 172.760,215.600 173.200 C 215.283 173.640,214.815 174.000,214.560 174.000 C 214.305 174.000,213.355 174.720,212.448 175.600 C 211.542 176.479,210.800 177.064,210.800 176.900 C 210.799 176.735,210.304 177.086,209.700 177.681 C 209.095 178.276,208.015 179.337,207.300 180.040 C 205.450 181.860,205.894 183.200,208.348 183.200 C 209.011 183.200,209.664 183.380,209.800 183.600 C 209.936 183.820,210.667 184.000,211.424 184.000 C 212.181 184.000,212.800 184.180,212.800 184.400 C 212.800 184.620,213.520 184.800,214.400 184.800 C 215.280 184.800,216.000 184.980,216.000 185.200 C 216.000 185.420,216.720 185.600,217.600 185.600 C 218.480 185.600,219.200 185.780,219.200 186.000 C 219.200 186.220,219.920 186.400,220.800 186.400 C 221.680 186.400,222.400 186.580,222.400 186.800 C 222.400 187.020,223.120 187.200,224.000 187.200 C 224.880 187.200,225.600 187.380,225.600 187.600 C 225.600 187.820,226.219 188.000,226.976 188.000 C 227.733 188.000,228.464 188.180,228.600 188.400 C 228.736 188.620,229.456 188.800,230.200 188.800 C 230.944 188.800,231.664 188.980,231.800 189.200 C 231.936 189.420,232.656 189.600,233.400 189.600 C 234.144 189.600,234.864 189.780,235.000 190.000 C 235.136 190.220,235.856 190.400,236.600 190.400 C 237.344 190.400,238.053 190.562,238.175 190.759 C 238.297 190.957,239.658 191.245,241.198 191.400 C 242.739 191.555,244.000 191.843,244.000 192.041 C 244.000 192.238,244.720 192.400,245.600 192.400 C 246.480 192.400,247.200 192.580,247.200 192.800 C 247.200 193.020,247.920 193.200,248.800 193.200 C 249.680 193.200,250.400 193.380,250.400 193.600 C 250.400 193.820,251.120 194.000,252.000 194.000 C 252.880 194.000,253.600 194.180,253.600 194.400 C 253.600 194.620,254.320 194.800,255.200 194.800 C 256.080 194.800,256.800 194.980,256.800 195.200 C 256.800 195.420,257.531 195.600,258.424 195.600 C 259.404 195.600,259.949 195.758,259.800 196.000 C 259.651 196.242,260.196 196.400,261.176 196.400 C 262.069 196.400,262.800 196.580,262.800 196.800 C 262.800 197.020,263.520 197.200,264.400 197.200 C 265.280 197.200,266.000 197.380,266.000 197.600 C 266.000 197.820,266.720 198.000,267.600 198.000 C 268.480 198.000,269.200 198.180,269.200 198.400 C 269.200 198.620,269.920 198.800,270.800 198.800 C 271.680 198.800,272.400 198.980,272.400 199.200 C 272.400 199.420,273.120 199.600,274.000 199.600 C 274.880 199.600,275.600 199.780,275.600 200.000 C 275.600 200.220,276.230 200.400,277.000 200.400 C 277.770 200.400,278.400 200.580,278.400 200.800 C 278.400 201.020,279.120 201.200,280.000 201.200 C 280.880 201.200,281.600 201.380,281.600 201.600 C 281.600 201.820,282.219 202.000,282.976 202.000 C 283.733 202.000,284.464 202.180,284.600 202.400 C 284.736 202.620,285.542 202.800,286.390 202.800 C 287.248 202.800,288.006 203.017,288.096 203.287 C 288.221 203.664,288.644 203.647,289.953 203.216 C 291.235 202.792,291.958 202.760,292.924 203.082 C 293.626 203.316,295.100 203.722,296.200 203.983 C 300.835 205.083,302.280 205.673,303.865 207.109 C 304.770 207.929,306.161 209.170,306.955 209.866 C 307.750 210.562,308.400 211.478,308.400 211.901 C 308.400 212.567,311.561 216.000,312.174 216.000 C 312.296 216.000,313.315 216.900,314.439 218.000 C 315.562 219.100,316.642 220.000,316.839 220.000 C 317.035 220.000,318.126 220.910,319.262 222.023 C 320.398 223.135,321.871 224.327,322.536 224.670 C 323.201 225.014,324.601 226.174,325.647 227.248 C 326.692 228.321,327.656 229.200,327.787 229.200 C 327.919 229.200,328.637 229.811,329.384 230.557 C 330.130 231.303,331.426 232.428,332.263 233.057 C 333.101 233.686,334.559 234.965,335.503 235.900 C 336.448 236.835,337.382 237.600,337.578 237.600 C 337.774 237.600,338.646 238.275,339.515 239.100 C 341.662 241.139,343.160 242.400,343.434 242.400 C 343.560 242.400,344.324 243.081,345.131 243.913 C 345.939 244.745,347.228 245.868,347.995 246.407 C 348.762 246.947,350.265 248.247,351.335 249.295 C 352.405 250.343,353.454 251.200,353.666 251.200 C 353.878 251.200,354.903 252.074,355.943 253.142 C 356.983 254.209,358.277 255.318,358.817 255.605 C 359.358 255.892,360.024 256.442,360.298 256.828 C 360.571 257.213,361.739 258.219,362.893 259.064 C 364.047 259.909,365.867 261.455,366.936 262.500 C 368.006 263.545,369.042 264.400,369.238 264.400 C 369.434 264.400,370.692 265.480,372.032 266.800 C 373.373 268.120,374.724 269.200,375.035 269.200 C 375.346 269.200,375.600 269.380,375.600 269.600 C 375.600 269.820,375.870 270.000,376.200 270.000 C 376.633 270.000,376.800 269.556,376.800 268.400 C 376.800 267.520,376.980 266.800,377.200 266.800 C 377.456 266.800,377.600 263.133,377.600 256.600 C 377.600 250.067,377.456 246.400,377.200 246.400 C 376.980 246.400,376.800 245.511,376.800 244.424 C 376.800 243.337,376.620 242.336,376.400 242.200 C 376.180 242.064,376.000 241.243,376.000 240.376 C 376.000 239.509,375.844 238.800,375.654 238.800 C 375.464 238.800,375.197 237.988,375.061 236.995 C 374.925 236.002,374.451 234.439,374.007 233.520 C 373.563 232.601,373.200 231.614,373.200 231.325 C 373.200 231.036,373.020 230.800,372.800 230.800 C 372.580 230.800,372.400 230.440,372.400 230.000 C 372.400 229.560,372.220 229.200,372.000 229.200 C 371.780 229.200,371.600 228.840,371.600 228.400 C 371.600 227.960,371.464 227.600,371.298 227.600 C 371.131 227.600,370.740 227.015,370.428 226.300 C 370.116 225.585,369.532 224.709,369.130 224.353 C 368.729 223.997,368.400 223.484,368.400 223.214 C 368.400 222.943,367.860 222.217,367.200 221.600 C 366.540 220.983,366.000 220.279,366.000 220.034 C 366.000 218.780,356.539 210.399,353.500 208.962 C 352.675 208.571,352.000 208.105,352.000 207.926 C 352.000 207.747,351.640 207.600,351.200 207.600 C 350.760 207.600,350.400 207.420,350.400 207.200 C 350.400 206.980,350.040 206.800,349.600 206.800 C 349.160 206.800,348.800 206.620,348.800 206.400 C 348.800 206.180,348.440 206.000,348.000 206.000 C 347.560 206.000,347.200 205.820,347.200 205.600 C 347.200 205.380,346.840 205.200,346.400 205.200 C 345.960 205.200,345.600 205.020,345.600 204.800 C 345.600 204.580,345.060 204.400,344.400 204.400 C 343.740 204.400,343.200 204.220,343.200 204.000 C 343.200 203.780,342.761 203.600,342.224 203.600 C 341.687 203.600,341.136 203.420,341.000 203.200 C 340.864 202.980,340.223 202.800,339.576 202.800 C 338.929 202.800,338.401 202.665,338.403 202.500 C 338.410 201.837,340.701 201.200,343.080 201.200 C 344.493 201.200,345.600 201.024,345.600 200.800 C 345.600 200.569,346.859 200.400,348.576 200.400 C 350.213 200.400,351.664 200.220,351.800 200.000 C 351.936 199.780,353.196 199.600,354.600 199.600 C 356.004 199.600,357.264 199.420,357.400 199.200 C 357.536 198.980,358.987 198.800,360.624 198.800 C 362.341 198.800,363.600 198.631,363.600 198.400 C 363.600 198.172,364.792 198.000,366.376 198.000 C 367.903 198.000,369.264 197.820,369.400 197.600 C 369.536 197.380,370.897 197.200,372.424 197.200 C 374.008 197.200,375.200 197.028,375.200 196.800 C 375.200 196.569,376.459 196.400,378.176 196.400 C 379.813 196.400,381.264 196.220,381.400 196.000 C 381.536 195.780,382.897 195.600,384.424 195.600 C 386.008 195.600,387.200 195.428,387.200 195.200 C 387.200 194.969,388.467 194.800,390.200 194.800 C 391.933 194.800,393.200 194.631,393.200 194.400 C 393.200 194.171,394.400 194.000,396.000 194.000 C 397.600 194.000,398.800 193.829,398.800 193.600 C 398.800 193.380,399.070 193.200,399.400 193.200 C 399.769 193.200,400.000 192.825,400.000 192.229 C 400.000 191.694,399.730 190.987,399.400 190.657 C 399.070 190.327,398.800 189.853,398.800 189.603 C 398.800 189.353,397.900 188.271,396.800 187.200 C 395.700 186.129,394.800 185.076,394.800 184.862 C 394.800 184.647,394.215 183.995,393.500 183.414 C 392.785 182.833,391.385 181.602,390.389 180.678 C 387.796 178.275,385.877 176.816,385.300 176.807 C 385.025 176.803,384.800 176.632,384.800 176.427 C 384.800 176.047,383.246 175.377,382.700 175.521 C 382.535 175.564,382.400 175.420,382.400 175.200 C 382.400 174.980,382.040 174.800,381.600 174.800 C 381.160 174.800,380.800 174.620,380.800 174.400 C 380.800 174.180,380.440 174.000,380.000 174.000 C 379.560 174.000,379.200 173.820,379.200 173.600 C 379.200 173.380,378.840 173.200,378.400 173.200 C 377.960 173.200,377.600 173.020,377.600 172.800 C 377.600 172.580,377.240 172.400,376.800 172.400 C 376.360 172.400,376.000 172.220,376.000 172.000 C 376.000 171.780,375.561 171.600,375.024 171.600 C 374.487 171.600,373.936 171.420,373.800 171.200 C 373.664 170.980,373.113 170.800,372.576 170.800 C 372.039 170.800,371.600 170.620,371.600 170.400 C 371.600 170.180,370.970 170.000,370.200 170.000 C 369.430 170.000,368.800 169.820,368.800 169.600 C 368.800 169.380,367.990 169.200,367.000 169.200 C 366.010 169.200,365.200 169.020,365.200 168.800 C 365.200 168.563,363.733 168.400,361.600 168.400 C 359.467 168.400,358.000 168.237,358.000 168.000 C 358.000 167.767,356.675 167.600,354.824 167.600 C 353.077 167.600,351.536 167.780,351.400 168.000 C 351.264 168.220,349.903 168.400,348.376 168.400 C 346.792 168.400,345.600 168.572,345.600 168.800 C 345.600 169.020,344.790 169.200,343.800 169.200 C 342.810 169.200,342.000 169.380,342.000 169.600 C 342.000 169.820,341.460 170.000,340.800 170.000 C 340.140 170.000,339.600 170.180,339.600 170.400 C 339.600 170.620,339.060 170.800,338.400 170.800 C 337.740 170.800,337.200 170.980,337.200 171.200 C 337.200 171.420,336.660 171.600,336.000 171.600 C 335.340 171.600,334.800 171.780,334.800 172.000 C 334.800 172.220,334.440 172.400,334.000 172.400 C 333.560 172.400,333.200 172.580,333.200 172.800 C 333.200 173.020,332.840 173.200,332.400 173.200 C 331.960 173.200,331.600 173.380,331.600 173.600 C 331.600 173.820,331.328 174.000,330.995 174.000 C 330.297 174.000,328.738 174.812,328.306 175.400 C 328.144 175.620,328.009 175.653,328.006 175.474 C 327.998 175.050,324.800 176.845,324.800 177.274 C 324.800 177.453,324.480 177.600,324.088 177.600 C 323.697 177.600,323.117 177.960,322.800 178.400 C 322.483 178.840,321.993 179.200,321.712 179.200 C 321.431 179.200,320.459 179.920,319.552 180.800 C 318.645 181.680,317.734 182.400,317.527 182.400 C 317.320 182.400,315.632 183.946,313.775 185.837 L 310.400 189.273 310.400 187.837 C 310.400 187.046,310.580 186.400,310.800 186.400 C 311.020 186.400,311.200 185.500,311.200 184.400 C 311.200 183.300,311.380 182.400,311.600 182.400 C 311.842 182.400,312.000 180.667,312.000 178.000 C 312.000 175.333,312.158 173.600,312.400 173.600 C 312.620 173.600,312.800 172.981,312.800 172.224 C 312.800 171.467,312.620 170.736,312.400 170.600 C 312.175 170.461,312.000 168.529,312.000 166.176 C 312.000 163.659,311.841 162.000,311.600 162.000 C 311.380 162.000,311.200 161.190,311.200 160.200 C 311.200 159.210,311.020 158.400,310.800 158.400 C 310.580 158.400,310.400 157.680,310.400 156.800 C 310.400 155.920,310.220 155.200,310.000 155.200 C 309.780 155.200,309.600 154.660,309.600 154.000 C 309.600 153.340,309.420 152.800,309.200 152.800 C 308.980 152.800,308.800 152.340,308.800 151.778 C 308.800 151.216,308.436 149.957,307.991 148.979 C 307.545 148.002,307.009 146.797,306.798 146.301 C 306.221 144.944,304.293 141.731,303.500 140.807 C 303.115 140.358,302.800 139.851,302.800 139.679 C 302.800 139.508,302.080 138.572,301.200 137.600 C 300.320 136.628,299.600 135.678,299.600 135.489 C 299.600 135.012,293.610 129.200,293.119 129.200 C 292.900 129.200,292.199 128.641,291.560 127.958 C 290.922 127.274,290.400 126.831,290.400 126.973 C 290.400 127.115,290.006 126.864,289.525 126.416 C 289.044 125.967,288.144 125.376,287.525 125.103 C 286.906 124.829,286.400 124.469,286.400 124.302 C 286.400 124.136,286.040 124.000,285.600 124.000 C 285.160 124.000,284.800 123.820,284.800 123.600 C 284.800 123.380,284.440 123.200,284.000 123.200 C 283.560 123.200,283.200 123.020,283.200 122.800 C 283.200 122.580,282.840 122.400,282.400 122.400 C 281.960 122.400,281.600 122.220,281.600 122.000 C 281.600 121.780,281.240 121.600,280.800 121.600 C 280.360 121.600,280.000 121.420,280.000 121.200 C 280.000 120.980,279.640 120.800,279.200 120.800 C 278.760 120.800,278.400 120.620,278.400 120.400 C 278.400 120.180,277.860 120.000,277.200 120.000 C 276.540 120.000,276.000 119.820,276.000 119.600 C 276.000 119.380,275.561 119.200,275.024 119.200 C 274.487 119.200,273.936 119.020,273.800 118.800 C 273.664 118.580,272.933 118.400,272.176 118.400 C 271.419 118.400,270.800 118.220,270.800 118.000 C 270.800 117.780,269.900 117.600,268.800 117.600 C 267.700 117.600,266.800 117.420,266.800 117.200 C 266.800 116.955,264.867 116.800,261.800 116.800 L 256.800 116.800 256.800 118.000 " stroke="none" fill="#42aa62" fill-rule="evenodd"></path><path id="path1" d="M36.400 337.600 C 36.400 337.820,35.500 338.000,34.400 338.000 C 33.300 338.000,32.400 338.180,32.400 338.400 C 32.400 338.620,31.860 338.800,31.200 338.800 C 30.540 338.800,30.000 338.980,30.000 339.200 C 30.000 339.420,29.550 339.600,29.000 339.600 C 28.450 339.600,28.000 339.752,28.000 339.937 C 28.000 340.123,27.145 340.705,26.100 341.232 C 25.055 341.758,24.068 342.372,23.906 342.595 C 23.744 342.818,23.609 342.863,23.606 342.697 C 23.603 342.530,23.051 342.917,22.381 343.558 C 21.711 344.199,20.542 345.145,19.784 345.661 C 19.026 346.178,18.404 346.855,18.403 347.167 C 18.401 347.478,18.302 347.636,18.183 347.516 C 18.064 347.397,16.095 349.122,13.809 351.350 C 11.522 353.577,8.630 356.300,7.381 357.400 C 6.133 358.500,3.962 360.548,2.556 361.950 L 0.000 364.500 0.000 380.837 L 0.000 397.173 1.413 398.587 L 2.827 400.000 200.000 400.000 L 397.173 400.000 398.587 398.587 L 400.000 397.173 400.000 380.787 L 400.000 364.401 396.957 361.501 C 395.284 359.905,393.129 357.835,392.168 356.900 C 391.207 355.965,390.344 355.200,390.250 355.200 C 390.155 355.200,387.868 353.040,385.167 350.400 C 382.466 347.760,380.115 345.600,379.943 345.600 C 379.771 345.600,378.926 344.888,378.064 344.018 C 377.203 343.147,376.386 342.547,376.249 342.684 C 376.112 342.821,376.000 342.723,376.000 342.467 C 376.000 342.210,375.730 342.000,375.400 342.000 C 375.070 342.000,374.800 341.820,374.800 341.600 C 374.800 341.380,374.530 341.200,374.200 341.200 C 373.870 341.200,373.600 341.020,373.600 340.800 C 373.600 340.580,373.251 340.400,372.824 340.400 C 372.397 340.400,371.936 340.220,371.800 340.000 C 371.664 339.780,371.203 339.600,370.776 339.600 C 370.349 339.600,370.000 339.420,370.000 339.200 C 370.000 338.980,369.460 338.800,368.800 338.800 C 368.140 338.800,367.600 338.620,367.600 338.400 C 367.600 338.180,366.700 338.000,365.600 338.000 C 364.500 338.000,363.600 337.820,363.600 337.600 C 363.600 337.369,362.333 337.200,360.600 337.200 C 358.919 337.200,357.600 337.371,357.600 337.590 C 357.600 338.152,355.413 339.200,354.239 339.200 C 353.688 339.200,352.734 339.403,352.119 339.652 C 350.348 340.366,345.820 342.561,345.600 342.811 C 345.490 342.936,344.781 343.471,344.025 344.000 C 343.268 344.529,341.738 345.845,340.625 346.924 C 336.346 351.071,330.538 354.800,328.357 354.800 C 327.967 354.800,327.550 354.957,327.432 355.148 C 326.672 356.378,313.328 356.378,312.568 355.148 C 312.450 354.957,312.006 354.800,311.582 354.800 C 309.641 354.800,303.817 351.081,299.847 347.305 C 298.486 346.011,296.749 344.512,295.986 343.976 C 295.224 343.439,294.510 342.910,294.400 342.800 C 294.290 342.690,293.795 342.375,293.300 342.100 C 290.393 340.485,289.105 340.003,284.554 338.826 C 280.107 337.676,273.532 338.699,268.200 341.370 C 266.880 342.031,265.740 342.714,265.667 342.886 C 265.593 343.059,265.358 343.200,265.143 343.200 C 264.929 343.200,263.999 343.897,263.077 344.749 C 256.933 350.427,252.111 354.000,250.595 354.000 C 250.294 354.000,249.936 354.180,249.800 354.400 C 249.664 354.620,249.149 354.800,248.656 354.800 C 248.163 354.800,247.589 354.962,247.380 355.159 C 247.000 355.518,245.480 355.780,241.049 356.253 C 234.533 356.948,226.848 353.769,220.190 347.624 C 216.583 344.295,215.250 343.200,214.803 343.200 C 214.582 343.200,214.400 343.020,214.400 342.800 C 214.400 342.580,214.130 342.400,213.800 342.400 C 213.470 342.400,213.200 342.264,213.200 342.098 C 213.200 341.931,212.615 341.556,211.900 341.264 C 211.185 340.972,210.240 340.580,209.800 340.393 C 208.949 340.031,207.237 339.520,204.554 338.826 C 202.428 338.276,197.554 338.279,195.446 338.832 C 191.552 339.853,190.578 340.158,190.220 340.470 C 190.011 340.651,189.516 340.800,189.120 340.800 C 188.724 340.800,188.400 340.936,188.400 341.102 C 188.400 341.269,187.815 341.659,187.100 341.970 C 186.385 342.281,185.710 342.641,185.600 342.770 C 185.490 342.899,184.770 343.475,184.000 344.050 C 183.230 344.625,181.700 345.939,180.600 346.971 C 176.162 351.132,170.425 354.800,168.353 354.800 C 167.965 354.800,167.550 354.957,167.432 355.148 C 167.126 355.643,163.518 356.110,160.000 356.110 C 156.482 356.110,152.874 355.643,152.568 355.148 C 152.450 354.957,151.958 354.789,151.476 354.776 C 149.147 354.713,142.482 350.008,135.788 343.700 C 135.496 343.425,135.064 343.200,134.829 343.200 C 134.593 343.200,134.400 343.041,134.400 342.847 C 134.400 342.652,134.085 342.393,133.700 342.271 C 133.315 342.149,132.550 341.789,132.000 341.472 C 130.176 340.418,128.750 339.911,124.554 338.826 C 120.111 337.677,113.547 338.696,108.200 341.366 C 106.880 342.025,105.710 342.672,105.600 342.805 C 105.490 342.938,104.996 343.322,104.503 343.659 C 104.010 343.995,102.145 345.595,100.358 347.213 C 95.571 351.550,95.317 351.726,90.005 354.400 C 89.568 354.620,88.859 354.800,88.429 354.800 C 87.999 354.800,87.550 354.957,87.432 355.148 C 87.126 355.643,83.518 356.110,80.000 356.110 C 76.482 356.110,72.874 355.643,72.568 355.148 C 72.450 354.957,72.019 354.800,71.611 354.800 C 69.586 354.800,63.969 351.216,59.800 347.263 C 58.480 346.012,56.770 344.550,56.000 344.013 C 55.230 343.477,54.510 342.925,54.400 342.787 C 54.290 342.649,53.615 342.281,52.900 341.970 C 52.185 341.659,51.600 341.269,51.600 341.102 C 51.600 340.936,51.270 340.800,50.867 340.800 C 50.463 340.800,50.010 340.677,49.859 340.526 C 49.419 340.086,46.680 339.213,45.719 339.206 C 44.455 339.197,42.800 338.364,42.800 337.736 C 42.800 337.333,42.007 337.200,39.600 337.200 C 37.733 337.200,36.400 337.367,36.400 337.600 " stroke="none" fill="#2caccb" fill-rule="evenodd"></path><path id="path2" d="M126.400 149.088 C 125.190 149.375,123.480 149.772,122.600 149.970 C 116.696 151.298,115.870 151.670,112.405 154.559 C 107.692 158.488,107.632 158.622,109.596 160.846 C 110.254 161.591,110.896 162.515,111.023 162.900 C 111.150 163.285,111.379 163.600,111.533 163.600 C 111.686 163.600,112.256 164.320,112.800 165.200 C 113.344 166.080,113.926 166.800,114.094 166.800 C 114.262 166.800,114.400 167.036,114.400 167.325 C 114.400 167.613,114.760 168.236,115.200 168.708 C 115.640 169.180,116.000 169.754,116.000 169.983 C 116.000 170.212,116.180 170.400,116.400 170.400 C 116.620 170.400,116.800 170.670,116.800 171.000 C 116.800 171.330,116.980 171.600,117.200 171.600 C 117.420 171.600,117.600 171.870,117.600 172.200 C 117.600 172.530,117.780 172.800,118.000 172.800 C 118.220 172.800,118.400 173.036,118.400 173.325 C 118.400 173.613,118.760 174.236,119.200 174.708 C 119.640 175.180,120.000 175.844,120.000 176.183 C 120.000 176.522,120.180 176.800,120.400 176.800 C 120.620 176.800,120.800 177.160,120.800 177.600 C 120.800 178.040,120.980 178.400,121.200 178.400 C 121.420 178.400,121.600 178.760,121.600 179.200 C 121.600 179.640,121.780 180.000,122.000 180.000 C 122.220 180.000,122.400 180.236,122.400 180.525 C 122.400 180.813,122.760 181.436,123.200 181.908 C 123.640 182.380,124.000 183.044,124.000 183.383 C 124.000 183.722,124.180 184.000,124.400 184.000 C 124.620 184.000,124.800 184.330,124.800 184.733 C 124.800 185.137,124.925 185.592,125.078 185.745 C 125.231 185.898,125.390 186.243,125.431 186.512 C 125.472 186.780,126.157 188.335,126.953 189.966 C 127.749 191.597,128.400 193.172,128.400 193.466 C 128.400 193.760,128.580 194.000,128.800 194.000 C 129.020 194.000,129.200 194.439,129.200 194.976 C 129.200 195.513,129.380 196.064,129.600 196.200 C 129.820 196.336,130.000 196.797,130.000 197.224 C 130.000 197.651,130.147 198.000,130.328 198.000 C 130.508 198.000,130.900 198.900,131.200 200.000 C 131.500 201.100,131.892 202.000,132.072 202.000 C 132.253 202.000,132.400 202.439,132.400 202.976 C 132.400 203.513,132.580 204.064,132.800 204.200 C 133.020 204.336,133.200 204.887,133.200 205.424 C 133.200 205.961,133.380 206.400,133.600 206.400 C 133.820 206.400,134.000 206.861,134.000 207.424 C 134.000 208.004,134.173 208.340,134.400 208.200 C 134.633 208.056,134.800 208.463,134.800 209.176 C 134.800 209.849,134.980 210.400,135.200 210.400 C 135.420 210.400,135.600 210.940,135.600 211.600 C 135.600 212.260,135.780 212.800,136.000 212.800 C 136.220 212.800,136.400 213.340,136.400 214.000 C 136.400 214.660,136.560 215.200,136.756 215.200 C 137.093 215.200,137.210 215.649,137.832 219.300 C 137.973 220.125,138.248 220.800,138.444 220.800 C 138.640 220.800,138.800 221.239,138.800 221.776 C 138.800 222.313,138.980 222.864,139.200 223.000 C 139.420 223.136,139.600 223.867,139.600 224.624 C 139.600 225.381,139.780 226.000,140.000 226.000 C 140.220 226.000,140.400 226.529,140.400 227.176 C 140.400 227.823,140.561 228.452,140.758 228.574 C 140.955 228.695,141.209 229.471,141.322 230.297 C 141.436 231.124,141.819 233.060,142.173 234.600 C 142.528 236.140,142.928 238.169,143.062 239.109 C 143.196 240.049,143.462 240.915,143.653 241.033 C 143.844 241.151,144.000 241.921,144.000 242.744 C 144.000 243.567,144.162 244.411,144.359 244.620 C 144.692 244.973,144.848 245.784,145.453 250.300 C 145.578 251.235,145.842 252.000,146.040 252.000 C 146.238 252.000,146.400 252.864,146.400 253.920 C 146.400 254.976,146.570 256.011,146.778 256.220 C 146.985 256.429,147.199 257.455,147.252 258.500 C 147.306 259.545,147.496 260.400,147.675 260.400 C 147.854 260.400,148.000 261.264,148.000 262.320 C 148.000 263.376,148.164 264.411,148.365 264.620 C 148.565 264.829,148.839 266.080,148.973 267.400 C 149.107 268.720,149.318 270.835,149.444 272.100 C 149.569 273.365,149.835 274.400,150.036 274.400 C 150.236 274.400,150.400 275.551,150.400 276.957 C 150.400 279.373,150.854 280.264,152.000 280.098 C 152.110 280.082,154.810 279.677,158.000 279.199 C 172.515 277.020,179.377 276.426,193.000 276.172 C 206.879 275.913,206.800 275.924,206.800 274.382 C 206.800 273.732,206.620 273.200,206.400 273.200 C 206.180 273.200,206.000 272.581,206.000 271.824 C 206.000 271.067,205.820 270.336,205.600 270.200 C 205.380 270.064,205.200 269.434,205.200 268.800 C 205.200 268.166,205.020 267.536,204.800 267.400 C 204.580 267.264,204.400 266.533,204.400 265.776 C 204.400 265.019,204.220 264.400,204.000 264.400 C 203.780 264.400,203.600 263.950,203.600 263.400 C 203.600 262.850,203.440 262.400,203.244 262.400 C 203.048 262.400,202.778 261.770,202.644 261.000 C 202.510 260.230,202.290 258.970,202.156 258.200 C 202.022 257.430,201.752 256.800,201.556 256.800 C 201.360 256.800,201.200 256.260,201.200 255.600 C 201.200 254.940,201.020 254.400,200.800 254.400 C 200.580 254.400,200.400 253.860,200.400 253.200 C 200.400 252.540,200.220 252.000,200.000 252.000 C 199.780 252.000,199.600 251.561,199.600 251.024 C 199.600 250.487,199.420 249.936,199.200 249.800 C 198.980 249.664,198.800 249.203,198.800 248.776 C 198.800 248.349,198.620 248.000,198.400 248.000 C 198.180 248.000,198.000 247.561,198.000 247.024 C 198.000 246.487,197.820 245.936,197.600 245.800 C 197.380 245.664,197.200 245.113,197.200 244.576 C 197.200 244.039,197.020 243.600,196.800 243.600 C 196.580 243.600,196.400 243.240,196.400 242.800 C 196.400 242.360,196.220 242.000,196.000 242.000 C 195.780 242.000,195.600 241.460,195.600 240.800 C 195.600 240.140,195.420 239.600,195.200 239.600 C 194.980 239.600,194.800 239.240,194.800 238.800 C 194.800 238.360,194.620 238.000,194.400 238.000 C 194.180 238.000,194.000 237.460,194.000 236.800 C 194.000 236.140,193.820 235.600,193.600 235.600 C 193.380 235.600,193.200 235.240,193.200 234.800 C 193.200 234.360,193.020 234.000,192.800 234.000 C 192.580 234.000,192.400 233.640,192.400 233.200 C 192.400 232.760,192.220 232.400,192.000 232.400 C 191.780 232.400,191.601 232.085,191.602 231.700 C 191.605 230.691,190.301 227.200,189.921 227.200 C 189.744 227.200,189.600 226.840,189.600 226.400 C 189.600 225.960,189.420 225.600,189.200 225.600 C 188.980 225.600,188.800 225.240,188.800 224.800 C 188.800 224.360,188.620 224.000,188.400 224.000 C 188.180 224.000,188.000 223.640,188.000 223.200 C 188.000 222.760,187.820 222.400,187.600 222.400 C 187.380 222.400,187.200 222.051,187.200 221.624 C 187.200 221.197,187.020 220.736,186.800 220.600 C 186.580 220.464,186.400 220.003,186.400 219.576 C 186.400 219.149,186.254 218.800,186.075 218.800 C 185.896 218.800,185.502 218.170,185.200 217.400 C 184.898 216.630,184.504 216.000,184.325 216.000 C 184.146 216.000,184.000 215.640,184.000 215.200 C 184.000 214.760,183.820 214.400,183.600 214.400 C 183.380 214.400,183.200 214.040,183.200 213.600 C 183.200 213.160,183.054 212.800,182.875 212.800 C 182.696 212.800,182.302 212.170,182.000 211.400 C 181.698 210.630,181.304 210.000,181.125 210.000 C 180.946 210.000,180.800 209.640,180.800 209.200 C 180.800 208.760,180.620 208.400,180.400 208.400 C 180.180 208.400,180.000 208.164,180.000 207.875 C 180.000 207.587,179.640 206.964,179.200 206.492 C 178.760 206.020,178.400 205.356,178.400 205.017 C 178.400 204.678,178.220 204.400,178.000 204.400 C 177.780 204.400,177.600 204.080,177.600 203.688 C 177.600 203.297,177.240 202.717,176.800 202.400 C 176.360 202.083,176.000 201.503,176.000 201.112 C 176.000 200.720,175.820 200.400,175.600 200.400 C 175.380 200.400,175.200 200.053,175.200 199.629 C 175.200 199.204,174.930 198.587,174.600 198.257 C 174.270 197.927,174.000 197.567,174.000 197.457 C 174.000 197.096,170.670 192.203,170.331 192.067 C 170.149 191.993,170.000 191.670,170.000 191.348 C 170.000 191.027,169.550 190.314,169.000 189.764 C 168.450 189.214,168.000 188.600,168.000 188.400 C 168.000 188.200,167.550 187.586,167.000 187.036 C 166.450 186.486,166.000 185.875,166.000 185.678 C 166.000 185.480,165.460 184.754,164.800 184.063 C 164.140 183.372,163.600 182.652,163.600 182.463 C 163.600 182.274,163.060 181.554,162.400 180.863 C 161.740 180.172,161.200 179.325,161.200 178.980 C 161.200 178.635,161.020 178.464,160.800 178.600 C 160.580 178.736,160.400 178.556,160.400 178.200 C 160.400 177.844,160.220 177.664,160.000 177.800 C 159.780 177.936,159.600 177.767,159.600 177.424 C 159.600 177.081,159.459 176.800,159.286 176.800 C 159.114 176.800,158.665 176.280,158.290 175.644 C 157.914 175.008,156.705 173.567,155.603 172.442 C 154.501 171.317,153.600 170.228,153.600 170.023 C 153.600 169.566,144.617 160.571,142.552 158.960 C 141.735 158.322,140.110 156.855,138.942 155.700 C 137.773 154.545,136.655 153.600,136.457 153.600 C 136.259 153.600,135.355 152.880,134.448 152.000 C 133.541 151.120,132.653 150.400,132.475 150.400 C 132.297 150.400,131.795 150.068,131.359 149.663 C 130.253 148.632,128.953 148.481,126.400 149.088 M289.500 203.460 C 289.115 203.569,288.800 203.825,288.800 204.029 C 288.800 204.233,288.531 204.400,288.202 204.400 C 287.873 204.400,286.685 205.300,285.561 206.400 C 284.438 207.500,283.351 208.400,283.145 208.400 C 282.940 208.400,282.330 208.805,281.791 209.300 C 279.867 211.065,276.120 214.800,276.273 214.800 C 276.358 214.800,274.622 216.594,272.414 218.786 C 270.206 220.978,268.400 222.958,268.400 223.186 C 268.400 223.414,268.220 223.600,268.000 223.600 C 267.780 223.600,267.600 223.766,267.600 223.968 C 267.600 224.171,266.835 225.123,265.900 226.085 C 263.921 228.120,262.018 230.472,262.007 230.895 C 262.000 231.185,261.123 232.340,260.071 233.445 C 259.781 233.750,259.646 234.000,259.771 234.000 C 259.897 234.000,259.685 234.347,259.300 234.771 C 257.934 236.276,257.600 236.772,257.600 237.295 C 257.600 237.586,257.240 238.083,256.800 238.400 C 256.360 238.717,256.000 239.231,256.000 239.541 C 256.000 239.852,255.685 240.398,255.300 240.754 C 254.416 241.572,252.800 243.861,252.800 244.295 C 252.800 244.476,252.440 244.883,252.000 245.200 C 251.560 245.517,251.200 246.097,251.200 246.488 C 251.200 246.880,251.020 247.200,250.800 247.200 C 250.580 247.200,250.400 247.545,250.400 247.967 C 250.400 248.388,250.265 248.793,250.100 248.867 C 249.724 249.034,248.425 251.164,248.129 252.100 C 248.007 252.485,247.748 252.800,247.553 252.800 C 247.359 252.800,247.200 253.160,247.200 253.600 C 247.200 254.040,247.064 254.400,246.898 254.400 C 246.731 254.400,246.364 254.922,246.082 255.560 C 245.799 256.198,244.766 258.209,243.784 260.029 C 242.803 261.849,242.000 263.578,242.000 263.869 C 242.000 264.161,241.820 264.400,241.600 264.400 C 241.380 264.400,241.200 264.749,241.200 265.176 C 241.200 265.603,241.020 266.064,240.800 266.200 C 240.580 266.336,240.400 266.807,240.400 267.247 C 240.400 267.687,240.220 267.936,240.000 267.800 C 239.780 267.664,239.600 267.913,239.600 268.353 C 239.600 268.793,239.420 269.264,239.200 269.400 C 238.980 269.536,238.800 270.087,238.800 270.624 C 238.800 271.161,238.620 271.600,238.400 271.600 C 238.180 271.600,238.000 271.960,238.000 272.400 C 238.000 272.840,237.853 273.200,237.672 273.200 C 237.492 273.200,237.102 274.092,236.805 275.182 C 236.508 276.272,236.092 277.057,235.881 276.926 C 235.669 276.796,235.579 276.937,235.680 277.240 C 235.927 277.981,237.941 278.619,241.800 279.181 C 247.930 280.074,260.311 282.669,265.000 284.044 C 265.660 284.237,267.550 284.762,269.200 285.210 C 270.850 285.657,273.142 286.304,274.293 286.647 C 276.886 287.419,277.600 286.935,277.600 284.405 C 277.600 283.405,277.758 282.850,278.000 283.000 C 278.247 283.152,278.400 282.471,278.400 281.224 C 278.400 280.111,278.580 279.200,278.800 279.200 C 279.020 279.200,279.200 278.480,279.200 277.600 C 279.200 276.720,279.380 276.000,279.600 276.000 C 279.820 276.000,280.000 275.381,280.000 274.624 C 280.000 273.867,280.180 273.136,280.400 273.000 C 280.620 272.864,280.800 272.324,280.800 271.800 C 280.800 271.276,280.980 270.736,281.200 270.600 C 281.420 270.464,281.600 269.733,281.600 268.976 C 281.600 268.219,281.780 267.600,282.000 267.600 C 282.220 267.600,282.400 267.060,282.400 266.400 C 282.400 265.740,282.543 265.200,282.718 265.200 C 282.893 265.200,283.081 264.525,283.136 263.700 C 283.190 262.875,283.407 262.140,283.618 262.067 C 283.828 261.993,284.000 261.408,284.000 260.767 C 284.000 260.125,284.180 259.600,284.400 259.600 C 284.620 259.600,284.800 259.161,284.800 258.624 C 284.800 258.087,284.980 257.536,285.200 257.400 C 285.420 257.264,285.600 256.724,285.600 256.200 C 285.600 255.676,285.780 255.136,286.000 255.000 C 286.220 254.864,286.400 254.313,286.400 253.776 C 286.400 253.239,286.580 252.800,286.800 252.800 C 287.020 252.800,287.200 252.260,287.200 251.600 C 287.200 250.940,287.380 250.400,287.600 250.400 C 287.820 250.400,288.000 249.860,288.000 249.200 C 288.000 248.540,288.141 248.000,288.313 248.000 C 288.485 248.000,288.870 247.171,289.169 246.158 C 289.468 245.145,290.052 243.614,290.467 242.756 C 290.882 241.898,291.329 240.656,291.460 239.998 C 291.592 239.339,291.858 238.800,292.050 238.800 C 292.243 238.800,292.400 238.440,292.400 238.000 C 292.400 237.560,292.580 237.200,292.800 237.200 C 293.020 237.200,293.200 236.840,293.200 236.400 C 293.200 235.960,293.380 235.600,293.600 235.600 C 293.820 235.600,294.000 235.240,294.000 234.800 C 294.000 234.360,294.180 234.000,294.400 234.000 C 294.620 234.000,294.800 233.640,294.800 233.200 C 294.800 232.760,294.980 232.400,295.200 232.400 C 295.420 232.400,295.600 232.122,295.600 231.783 C 295.600 231.444,295.960 230.780,296.400 230.308 C 296.840 229.836,297.200 229.213,297.200 228.925 C 297.200 228.636,297.380 228.400,297.600 228.400 C 297.820 228.400,298.000 228.040,298.000 227.600 C 298.000 227.160,298.180 226.800,298.400 226.800 C 298.620 226.800,298.800 226.506,298.800 226.147 C 298.800 225.788,299.116 225.203,299.503 224.847 C 299.889 224.491,300.460 223.705,300.770 223.100 C 301.081 222.495,301.485 222.000,301.668 222.000 C 301.850 222.000,302.000 221.730,302.000 221.400 C 302.000 221.070,302.168 220.800,302.373 220.800 C 302.578 220.800,302.862 220.434,303.004 219.987 C 303.146 219.540,303.698 218.738,304.231 218.205 C 304.764 217.672,305.200 217.093,305.200 216.918 C 305.201 216.743,305.671 216.060,306.246 215.400 C 308.386 212.942,308.563 212.508,307.860 211.435 C 306.849 209.892,301.679 205.830,300.279 205.479 C 299.576 205.302,298.370 204.995,297.600 204.797 C 292.117 203.385,290.628 203.139,289.500 203.460 " stroke="none" fill="#c68051" fill-rule="evenodd"></path><path id="path3" d="M340.900 0.272 C 339.745 0.365,338.800 0.612,338.800 0.821 C 338.800 1.029,338.260 1.200,337.600 1.200 C 336.940 1.200,336.400 1.380,336.400 1.600 C 336.400 1.820,335.860 2.000,335.200 2.000 C 334.540 2.000,334.000 2.180,334.000 2.400 C 334.000 2.620,333.735 2.800,333.412 2.800 C 333.089 2.800,332.183 3.160,331.400 3.600 C 330.617 4.040,329.711 4.400,329.388 4.400 C 329.065 4.400,328.800 4.546,328.800 4.725 C 328.800 4.904,328.170 5.298,327.400 5.600 C 326.630 5.902,326.000 6.296,326.000 6.475 C 326.000 6.654,325.770 6.800,325.488 6.800 C 325.207 6.800,324.717 7.160,324.400 7.600 C 324.083 8.040,323.547 8.400,323.210 8.400 C 321.962 8.400,313.503 16.624,311.622 19.666 C 309.184 23.609,308.400 25.022,308.400 25.476 C 308.400 25.764,308.220 26.000,308.000 26.000 C 307.780 26.000,307.600 26.461,307.600 27.024 C 307.600 27.604,307.427 27.940,307.200 27.800 C 306.980 27.664,306.800 27.923,306.800 28.376 C 306.800 28.829,306.620 29.200,306.400 29.200 C 306.180 29.200,306.000 29.729,306.000 30.376 C 306.000 31.023,305.820 31.664,305.600 31.800 C 305.380 31.936,305.200 32.487,305.200 33.024 C 305.200 33.561,305.020 34.000,304.800 34.000 C 304.580 34.000,304.400 34.619,304.400 35.376 C 304.400 36.133,304.220 36.864,304.000 37.000 C 303.780 37.136,303.600 38.137,303.600 39.224 C 303.600 40.331,303.416 41.200,303.182 41.200 C 302.901 41.200,302.826 43.450,302.952 48.100 C 303.166 55.950,303.511 59.600,304.037 59.600 C 304.237 59.600,304.400 60.219,304.400 60.976 C 304.400 61.733,304.580 62.464,304.800 62.600 C 305.020 62.736,305.200 63.377,305.200 64.024 C 305.200 64.671,305.380 65.200,305.600 65.200 C 305.820 65.200,306.000 65.472,306.000 65.805 C 306.000 66.138,306.180 66.768,306.400 67.205 C 306.620 67.642,306.980 68.358,307.200 68.795 C 307.420 69.232,307.600 69.847,307.600 70.161 C 307.600 70.476,307.735 70.793,307.900 70.867 C 308.065 70.940,308.730 72.045,309.378 73.323 C 310.027 74.600,311.062 76.174,311.678 76.819 C 312.295 77.465,312.800 78.168,312.800 78.382 C 312.800 78.898,320.938 86.964,321.620 87.125 C 321.911 87.194,322.431 87.573,322.775 87.968 C 323.119 88.362,324.120 89.080,325.000 89.562 C 328.237 91.336,329.003 91.807,329.133 92.100 C 329.207 92.265,329.702 92.400,330.233 92.400 C 330.765 92.400,331.200 92.580,331.200 92.800 C 331.200 93.020,331.650 93.200,332.200 93.200 C 332.750 93.200,333.200 93.380,333.200 93.600 C 333.200 93.820,333.560 94.000,334.000 94.000 C 334.440 94.000,334.800 94.180,334.800 94.400 C 334.800 94.620,335.329 94.800,335.976 94.800 C 336.623 94.800,337.264 94.980,337.400 95.200 C 337.536 95.420,338.267 95.600,339.024 95.600 C 339.781 95.600,340.400 95.780,340.400 96.000 C 340.400 96.223,341.475 96.400,342.824 96.400 C 344.337 96.400,345.154 96.550,345.000 96.800 C 344.839 97.061,347.196 97.200,351.776 97.200 C 356.192 97.200,358.800 97.051,358.800 96.800 C 358.800 96.580,359.700 96.400,360.800 96.400 C 361.900 96.400,362.800 96.220,362.800 96.000 C 362.800 95.780,363.520 95.600,364.400 95.600 C 365.280 95.600,366.000 95.420,366.000 95.200 C 366.000 94.980,366.540 94.800,367.200 94.800 C 367.860 94.800,368.400 94.620,368.400 94.400 C 368.400 94.180,368.839 94.000,369.376 94.000 C 369.913 94.000,370.464 93.820,370.600 93.600 C 370.736 93.380,371.197 93.200,371.624 93.200 C 372.051 93.200,372.400 93.020,372.400 92.800 C 372.400 92.580,372.760 92.400,373.200 92.400 C 373.640 92.400,374.000 92.240,374.000 92.043 C 374.000 91.847,374.484 91.565,375.076 91.417 C 375.667 91.268,376.640 90.799,377.237 90.373 C 377.835 89.948,378.521 89.600,378.762 89.600 C 379.003 89.600,379.200 89.450,379.200 89.268 C 379.200 89.085,379.689 88.680,380.286 88.368 C 381.714 87.621,388.799 81.200,388.194 81.200 C 388.095 81.200,388.820 80.358,389.807 79.328 C 390.793 78.299,391.600 77.195,391.600 76.875 C 391.600 76.556,391.915 76.002,392.300 75.646 C 393.096 74.909,394.341 72.942,394.671 71.900 C 394.793 71.515,395.052 71.200,395.247 71.200 C 395.441 71.200,395.600 70.947,395.600 70.638 C 395.600 70.153,396.152 68.880,397.650 65.905 C 397.843 65.523,398.000 64.848,398.000 64.405 C 398.000 63.962,398.180 63.600,398.400 63.600 C 398.620 63.600,398.800 63.096,398.800 62.480 C 398.800 61.864,399.025 61.135,399.300 60.860 C 399.678 60.482,399.800 57.435,399.800 48.400 C 399.800 39.366,399.678 36.318,399.300 35.940 C 399.025 35.665,398.800 34.947,398.800 34.344 C 398.800 33.741,398.620 33.136,398.400 33.000 C 398.180 32.864,398.000 32.313,398.000 31.776 C 398.000 31.239,397.820 30.800,397.600 30.800 C 397.380 30.800,397.200 30.260,397.200 29.600 C 397.200 28.940,397.054 28.400,396.875 28.400 C 396.696 28.400,396.302 27.770,396.000 27.000 C 395.698 26.230,395.304 25.600,395.125 25.600 C 394.946 25.600,394.800 25.322,394.800 24.983 C 394.800 24.644,394.440 23.980,394.000 23.508 C 393.560 23.036,393.200 22.413,393.200 22.125 C 393.200 21.836,393.020 21.600,392.800 21.600 C 392.580 21.600,392.400 21.280,392.400 20.888 C 392.400 20.497,392.050 19.924,391.621 19.615 C 391.193 19.307,390.934 18.907,391.045 18.727 C 391.156 18.547,391.069 18.400,390.851 18.400 C 390.632 18.400,390.348 18.065,390.217 17.655 C 389.994 16.950,384.400 10.882,384.400 11.345 C 384.400 11.465,383.985 11.167,383.477 10.682 C 382.969 10.197,382.137 9.530,381.628 9.200 C 381.119 8.870,380.467 8.375,380.180 8.100 C 379.892 7.825,379.374 7.600,379.029 7.600 C 378.683 7.600,378.400 7.420,378.400 7.200 C 378.400 6.980,378.164 6.800,377.875 6.800 C 377.587 6.800,376.964 6.440,376.492 6.000 C 376.020 5.560,375.356 5.200,375.017 5.200 C 374.678 5.200,374.400 5.054,374.400 4.875 C 374.400 4.696,373.770 4.302,373.000 4.000 C 372.230 3.698,371.600 3.304,371.600 3.125 C 371.600 2.946,371.060 2.800,370.400 2.800 C 369.740 2.800,369.200 2.620,369.200 2.400 C 369.200 2.180,368.761 2.000,368.224 2.000 C 367.687 2.000,367.136 1.820,367.000 1.600 C 366.864 1.380,366.238 1.200,365.610 1.200 C 364.981 1.200,364.393 0.980,364.304 0.711 C 364.140 0.219,345.813 -0.125,340.900 0.272 M206.200 275.556 C 205.760 275.740,200.090 275.999,193.600 276.133 C 182.724 276.356,173.953 276.951,166.400 277.976 C 160.858 278.728,152.604 280.004,152.113 280.185 C 151.845 280.284,151.533 280.215,151.419 280.031 C 151.175 279.636,147.585 279.959,146.987 280.429 C 146.759 280.608,145.724 280.798,144.687 280.852 C 143.649 280.906,142.800 281.096,142.800 281.275 C 142.800 281.454,142.080 281.600,141.200 281.600 C 140.320 281.600,139.600 281.780,139.600 282.000 C 139.600 282.220,138.880 282.400,138.000 282.400 C 137.120 282.400,136.400 282.580,136.400 282.800 C 136.400 283.020,135.680 283.200,134.800 283.200 C 133.920 283.200,133.200 283.380,133.200 283.600 C 133.200 283.820,132.660 284.000,132.000 284.000 C 131.340 284.000,130.800 284.180,130.800 284.400 C 130.800 284.620,130.080 284.800,129.200 284.800 C 128.320 284.800,127.600 284.980,127.600 285.200 C 127.600 285.420,127.150 285.600,126.600 285.600 C 126.050 285.600,125.600 285.780,125.600 286.000 C 125.600 286.220,124.880 286.400,124.000 286.400 C 123.120 286.400,122.400 286.580,122.400 286.800 C 122.400 287.020,121.860 287.200,121.200 287.200 C 120.540 287.200,120.000 287.380,120.000 287.600 C 120.000 287.820,119.460 288.000,118.800 288.000 C 118.140 288.000,117.600 288.180,117.600 288.400 C 117.600 288.620,117.150 288.800,116.600 288.800 C 116.050 288.800,115.600 288.980,115.600 289.200 C 115.600 289.420,115.150 289.600,114.600 289.600 C 114.050 289.600,113.600 289.780,113.600 290.000 C 113.600 290.220,113.060 290.400,112.400 290.400 C 111.740 290.400,111.200 290.580,111.200 290.800 C 111.200 291.020,110.750 291.200,110.200 291.200 C 109.650 291.200,109.200 291.360,109.200 291.555 C 109.200 291.751,108.598 292.024,107.861 292.162 C 107.125 292.300,105.784 292.770,104.881 293.207 C 103.978 293.643,102.960 294.000,102.619 294.000 C 102.279 294.000,102.000 294.180,102.000 294.400 C 102.000 294.620,101.640 294.800,101.200 294.800 C 100.760 294.800,100.400 294.980,100.400 295.200 C 100.400 295.420,100.110 295.600,99.754 295.600 C 99.399 295.600,98.454 295.938,97.654 296.350 C 96.855 296.763,95.300 297.528,94.200 298.050 C 93.100 298.573,92.140 299.135,92.067 299.300 C 91.993 299.465,91.588 299.600,91.167 299.600 C 90.745 299.600,90.400 299.736,90.400 299.902 C 90.400 300.251,87.949 301.423,87.500 301.289 C 87.335 301.240,87.200 301.380,87.200 301.600 C 87.200 301.820,86.964 302.000,86.675 302.000 C 86.387 302.000,85.764 302.360,85.292 302.800 C 84.820 303.240,84.156 303.600,83.817 303.600 C 83.478 303.600,83.200 303.759,83.200 303.953 C 83.200 304.148,82.885 304.407,82.500 304.529 C 81.813 304.746,79.594 306.005,79.200 306.401 C 79.090 306.511,78.505 306.856,77.900 307.168 C 77.295 307.480,76.800 307.885,76.800 308.068 C 76.800 308.250,76.550 308.400,76.245 308.400 C 75.940 308.400,74.774 309.030,73.655 309.800 C 72.535 310.570,71.517 311.200,71.391 311.200 C 71.266 311.200,70.714 311.650,70.164 312.200 C 69.614 312.750,69.000 313.200,68.800 313.200 C 68.600 313.200,67.986 313.650,67.436 314.200 C 66.886 314.750,66.264 315.200,66.053 315.200 C 65.841 315.200,65.020 315.830,64.227 316.600 C 63.434 317.370,62.637 318.000,62.456 318.000 C 62.275 318.000,61.404 318.675,60.521 319.500 C 59.637 320.325,57.699 322.080,56.215 323.400 C 49.424 329.439,42.800 336.477,42.800 337.653 C 42.800 337.800,43.745 338.132,44.900 338.390 C 50.740 339.698,54.492 341.784,59.959 346.761 C 67.607 353.726,71.413 355.363,80.000 355.380 C 88.658 355.398,93.335 353.285,101.200 345.803 C 112.765 334.803,127.521 335.278,140.400 347.066 C 147.732 353.778,151.550 355.397,160.000 355.380 C 168.405 355.363,173.041 353.401,179.800 346.999 C 192.479 334.990,207.414 334.840,219.800 346.597 C 226.956 353.389,231.495 355.363,240.000 355.380 C 248.849 355.398,252.697 353.607,261.800 345.233 C 269.306 338.329,278.794 336.336,289.011 339.516 C 292.097 340.477,295.576 342.771,299.853 346.665 C 307.590 353.707,311.496 355.397,320.000 355.380 C 328.590 355.363,333.326 353.277,340.502 346.354 C 344.767 342.239,349.540 339.635,355.100 338.390 C 356.255 338.132,357.200 337.772,357.200 337.591 C 357.200 336.493,350.454 329.350,343.798 323.400 C 342.322 322.080,340.600 320.538,339.973 319.973 C 339.346 319.407,338.257 318.507,337.553 317.973 C 336.849 317.438,336.077 316.814,335.837 316.587 C 335.596 316.360,334.770 315.738,334.000 315.206 C 333.230 314.673,332.309 313.914,331.953 313.519 C 331.597 313.124,331.052 312.800,330.741 312.800 C 330.431 312.800,329.917 312.440,329.600 312.000 C 329.283 311.560,328.827 311.200,328.587 311.200 C 328.347 311.200,327.776 310.851,327.318 310.424 C 326.860 309.997,326.376 309.757,326.243 309.891 C 326.109 310.024,326.000 309.943,326.000 309.710 C 326.000 309.477,325.315 309.013,324.477 308.678 C 323.640 308.343,322.718 307.783,322.428 307.434 C 322.139 307.085,321.654 306.800,321.351 306.800 C 321.048 306.800,320.800 306.620,320.800 306.400 C 320.800 306.180,320.530 306.000,320.200 306.000 C 319.870 306.000,319.600 305.820,319.600 305.600 C 319.600 305.380,319.330 305.200,319.000 305.200 C 318.670 305.200,318.400 305.020,318.400 304.800 C 318.400 304.580,318.040 304.400,317.600 304.400 C 317.160 304.400,316.800 304.220,316.800 304.000 C 316.800 303.780,316.522 303.600,316.183 303.600 C 315.844 303.600,315.180 303.240,314.708 302.800 C 314.236 302.360,313.512 302.000,313.101 302.000 C 312.689 302.000,312.464 301.820,312.600 301.600 C 312.736 301.380,312.477 301.200,312.024 301.200 C 311.571 301.200,311.200 301.020,311.200 300.800 C 311.200 300.580,310.966 300.400,310.680 300.400 C 309.944 300.400,308.007 299.459,308.003 299.100 C 308.001 298.935,307.655 298.800,307.233 298.800 C 306.812 298.800,306.407 298.657,306.333 298.481 C 306.180 298.115,302.613 296.400,302.004 296.400 C 301.782 296.400,301.600 296.220,301.600 296.000 C 301.600 295.780,301.150 295.600,300.600 295.600 C 300.050 295.600,299.600 295.420,299.600 295.200 C 299.600 294.980,299.335 294.800,299.012 294.800 C 298.689 294.800,297.783 294.440,297.000 294.000 C 296.217 293.560,295.221 293.200,294.788 293.200 C 294.355 293.200,294.000 293.036,294.000 292.835 C 294.000 292.634,293.280 292.349,292.400 292.200 C 291.520 292.051,290.800 291.766,290.800 291.565 C 290.800 291.364,290.260 291.200,289.600 291.200 C 288.940 291.200,288.400 291.020,288.400 290.800 C 288.400 290.580,287.950 290.400,287.400 290.400 C 286.850 290.400,286.400 290.220,286.400 290.000 C 286.400 289.780,285.950 289.600,285.400 289.600 C 284.850 289.600,284.400 289.420,284.400 289.200 C 284.400 288.980,283.950 288.800,283.400 288.800 C 282.850 288.800,282.400 288.620,282.400 288.400 C 282.400 288.180,281.860 288.000,281.200 288.000 C 280.540 288.000,280.000 287.820,280.000 287.600 C 280.000 287.380,279.475 287.200,278.833 287.200 C 278.192 287.200,277.575 286.975,277.464 286.700 C 277.307 286.313,277.173 286.325,276.875 286.751 C 276.549 287.217,276.156 287.203,274.345 286.663 C 273.165 286.311,270.850 285.657,269.200 285.210 C 267.550 284.762,265.660 284.237,265.000 284.044 C 263.800 283.692,263.173 283.539,256.800 282.048 C 251.767 280.870,245.097 279.611,239.786 278.837 C 238.458 278.643,236.568 278.115,235.586 277.664 C 234.602 277.212,232.542 276.747,231.000 276.629 C 229.460 276.511,226.040 276.237,223.400 276.021 C 216.135 275.425,207.099 275.181,206.200 275.556 " stroke="none" fill="#f3c31c" fill-rule="evenodd"></path><path id="path4" d="M124.000 149.200 C 122.570 149.597,121.760 149.930,122.200 149.940 C 122.640 149.949,124.260 149.622,125.800 149.213 C 127.340 148.805,128.150 148.472,127.600 148.474 C 127.050 148.476,125.430 148.803,124.000 149.200 M117.741 150.727 C 114.916 151.500,107.953 157.059,108.027 158.482 C 108.042 158.767,108.242 158.640,108.472 158.200 C 109.489 156.254,115.773 151.729,118.377 151.068 C 120.834 150.445,121.920 149.972,120.767 150.027 C 120.455 150.042,119.094 150.357,117.741 150.727 M291.600 203.234 C 293.571 203.809,297.802 204.892,300.200 205.437 C 301.459 205.722,306.279 209.412,307.619 211.115 C 308.048 211.661,308.400 211.888,308.400 211.620 C 308.400 211.351,307.750 210.562,306.955 209.866 C 306.161 209.170,304.770 207.929,303.865 207.109 C 302.913 206.246,301.373 205.370,300.210 205.029 C 296.537 203.952,293.017 203.109,291.600 202.967 L 290.200 202.826 291.600 203.234 M357.133 337.574 C 357.060 337.780,355.575 338.329,353.834 338.794 C 349.381 339.983,346.092 341.679,342.927 344.417 C 334.383 351.810,332.620 353.014,328.384 354.350 C 318.408 357.498,309.624 355.374,301.070 347.747 C 292.660 340.248,287.747 337.989,279.880 338.006 C 274.064 338.019,266.010 341.022,262.800 344.377 C 254.670 352.872,246.110 356.611,237.243 355.541 C 230.330 354.708,225.936 352.461,219.800 346.623 C 207.525 334.945,192.489 335.047,180.022 346.895 C 171.199 355.280,161.505 357.732,151.264 354.169 C 148.776 353.304,144.688 351.191,144.000 350.415 C 143.890 350.290,142.270 348.841,140.400 347.194 C 138.530 345.548,136.910 344.101,136.800 343.981 C 136.690 343.860,136.029 343.363,135.332 342.876 C 124.791 335.518,110.761 336.702,101.268 345.751 C 100.020 346.940,98.370 348.426,97.600 349.054 C 96.830 349.681,95.976 350.407,95.702 350.667 C 92.287 353.904,83.018 356.336,77.100 355.549 C 70.094 354.617,65.864 352.378,59.095 346.022 C 54.633 341.831,46.576 337.845,42.907 338.014 C 42.141 338.050,44.712 339.174,45.600 339.192 C 46.667 339.213,49.404 340.071,49.859 340.526 C 50.010 340.677,50.463 340.800,50.867 340.800 C 51.270 340.800,51.600 340.936,51.600 341.102 C 51.600 341.269,52.185 341.659,52.900 341.970 C 53.615 342.281,54.290 342.649,54.400 342.787 C 54.510 342.925,55.230 343.477,56.000 344.013 C 56.770 344.550,58.480 346.012,59.800 347.263 C 63.969 351.216,69.586 354.800,71.611 354.800 C 72.019 354.800,72.450 354.957,72.568 355.148 C 73.328 356.378,86.672 356.378,87.432 355.148 C 87.550 354.957,87.999 354.800,88.429 354.800 C 88.859 354.800,89.568 354.620,90.005 354.400 C 95.317 351.726,95.571 351.550,100.358 347.213 C 102.145 345.595,104.010 343.995,104.503 343.659 C 104.996 343.322,105.490 342.938,105.600 342.805 C 105.994 342.330,110.631 340.159,112.200 339.716 C 116.230 338.576,117.277 338.400,120.000 338.400 C 121.599 338.400,123.648 338.592,124.554 338.826 C 128.750 339.911,130.176 340.418,132.000 341.472 C 132.550 341.789,133.315 342.149,133.700 342.271 C 134.085 342.393,134.400 342.652,134.400 342.847 C 134.400 343.041,134.593 343.200,134.829 343.200 C 135.064 343.200,135.496 343.425,135.788 343.700 C 142.482 350.008,149.147 354.713,151.476 354.776 C 151.958 354.789,152.450 354.957,152.568 355.148 C 152.874 355.643,156.482 356.110,160.000 356.110 C 163.518 356.110,167.126 355.643,167.432 355.148 C 167.550 354.957,167.965 354.800,168.353 354.800 C 170.425 354.800,176.162 351.132,180.600 346.971 C 181.700 345.939,183.230 344.625,184.000 344.050 C 184.770 343.475,185.490 342.899,185.600 342.770 C 185.710 342.641,186.385 342.281,187.100 341.970 C 187.815 341.659,188.400 341.269,188.400 341.102 C 188.400 340.936,188.724 340.800,189.120 340.800 C 189.516 340.800,190.011 340.651,190.220 340.470 C 190.578 340.158,191.552 339.853,195.446 338.832 C 197.554 338.279,202.428 338.276,204.554 338.826 C 207.237 339.520,208.949 340.031,209.800 340.393 C 210.240 340.580,211.185 340.972,211.900 341.264 C 212.615 341.556,213.200 341.931,213.200 342.098 C 213.200 342.264,213.470 342.400,213.800 342.400 C 214.130 342.400,214.400 342.580,214.400 342.800 C 214.400 343.020,214.582 343.200,214.803 343.200 C 215.250 343.200,216.583 344.295,220.190 347.624 C 226.848 353.769,234.533 356.948,241.049 356.253 C 245.480 355.780,247.000 355.518,247.380 355.159 C 247.589 354.962,248.163 354.800,248.656 354.800 C 249.149 354.800,249.664 354.620,249.800 354.400 C 249.936 354.180,250.294 354.000,250.595 354.000 C 252.111 354.000,256.933 350.427,263.077 344.749 C 263.999 343.897,264.929 343.200,265.143 343.200 C 265.358 343.200,265.593 343.059,265.667 342.886 C 265.866 342.418,270.366 340.234,272.200 339.716 C 276.230 338.576,277.277 338.400,280.000 338.400 C 284.380 338.400,288.907 339.659,293.300 342.100 C 293.795 342.375,294.290 342.690,294.400 342.800 C 294.510 342.910,295.224 343.439,295.986 343.976 C 296.749 344.512,298.486 346.011,299.847 347.305 C 303.817 351.081,309.641 354.800,311.582 354.800 C 312.006 354.800,312.450 354.957,312.568 355.148 C 312.874 355.643,316.482 356.110,320.000 356.110 C 323.518 356.110,327.126 355.643,327.432 355.148 C 327.550 354.957,327.967 354.800,328.357 354.800 C 330.538 354.800,336.346 351.071,340.625 346.924 C 341.738 345.845,343.268 344.529,344.025 344.000 C 344.781 343.471,345.490 342.936,345.600 342.811 C 345.820 342.561,350.348 340.366,352.119 339.652 C 352.734 339.403,353.688 339.200,354.239 339.200 C 355.413 339.200,357.600 338.152,357.600 337.590 C 357.600 337.094,357.308 337.084,357.133 337.574 " stroke="none" fill="#7ab488" fill-rule="evenodd"></path></g></svg>