<svg width="26" height="26" viewBox="0 0 26 26" fill="none" xmlns="http://www.w3.org/2000/svg">
<path fill-rule="evenodd" clip-rule="evenodd" d="M11 3.05518V8.94334C9.46342 8.76797 8.04833 8.19325 6.97374 7.32014C6.37674 6.83508 5.91152 6.28112 5.58308 5.68969C6.99611 4.25299 8.88792 3.28865 11 3.05518ZM13 3.05518V8.94334C14.5366 8.76797 15.9517 8.19325 17.0263 7.32014C17.6233 6.83508 18.0885 6.28112 18.4169 5.68969C17.0039 4.253 15.1121 3.28865 13 3.05518ZM19.7168 7.36608C19.3207 7.91625 18.8406 8.42297 18.2874 8.87237C16.8355 10.0521 14.9677 10.7712 13 10.9538L13 13.0463C13.8146 13.1219 14.6157 13.2897 15.3804 13.5471C16.4564 13.9092 17.4455 14.4437 18.2874 15.1278C18.837 15.5743 19.3182 16.0801 19.717 16.634C20.5315 15.2805 21 13.6951 21 12.0002C21 10.3053 20.5314 8.71973 19.7168 7.36608ZM18.417 18.3107C18.0861 17.7154 17.6183 17.161 17.0263 16.68C16.3825 16.1569 15.6078 15.7338 14.7425 15.4426C14.1847 15.2549 13.599 15.1253 13 15.0569V20.9453C15.1121 20.7118 17.004 19.7475 18.417 18.3107ZM11 20.9453L11 15.0569C10.401 15.1253 9.81528 15.2549 9.2575 15.4426C8.39222 15.7338 7.61751 16.1569 6.97374 16.68C6.38168 17.161 5.91388 17.7154 5.58301 18.3107C6.99604 19.7475 8.88788 20.7118 11 20.9453ZM4.28297 16.634C4.68176 16.0801 5.16302 15.5743 5.71255 15.1278C6.55451 14.4437 7.54363 13.9092 8.61956 13.5471C9.38428 13.2897 10.1854 13.1219 11 13.0463V10.9538C9.03233 10.7712 7.16455 10.0521 5.71255 8.87237C5.15944 8.42297 4.67933 7.91625 4.28321 7.36608C3.46856 8.71972 3 10.3053 3 12.0002C3 13.6951 3.46846 15.2805 4.28297 16.634Z" fill="black"/>
</svg>
