<svg width="28" height="26" viewBox="0 0 28 26" fill="none" xmlns="http://www.w3.org/2000/svg">
<g id="Iconly/Broken/Logout">
<g id="Logout">
<path id="Logout_2" fill-rule="evenodd" clip-rule="evenodd" d="M7.62503 14.403C7.62503 14.8404 7.26102 15.1955 6.81261 15.1955C6.3642 15.1955 6.00019 14.8404 6.00019 14.403V6.56557C6.00019 4.04812 8.09982 2 10.6816 2H15.8231C18.4101 2 20.515 4.05327 20.515 6.57689V7.53508C20.515 7.97146 20.151 8.32654 19.7026 8.32654C19.2542 8.32654 18.8902 7.97146 18.8902 7.53508V6.57689C18.8902 4.92604 17.5144 3.58498 15.8231 3.58498H10.6816C8.99559 3.58498 7.62503 4.92295 7.62503 6.56557V14.403ZM18.89 17.0493C18.89 16.6119 19.254 16.2568 19.7024 16.2568C20.1508 16.2568 20.5148 16.6119 20.5148 17.0493V18.0178C20.5148 20.5352 18.4152 22.5833 15.8334 22.5833H10.6909C8.1049 22.5833 6 20.5301 6 18.0064C6 17.569 6.36401 17.215 6.81242 17.215C7.26083 17.215 7.62483 17.569 7.62483 18.0064C7.62483 19.6573 9.00067 20.9984 10.6909 20.9984H15.8334C17.5194 20.9984 18.89 19.6614 18.89 18.0178V17.0493ZM27.6052 11.9893C27.4797 11.6918 27.1832 11.4984 26.854 11.4984H14.1782C13.7298 11.4984 13.3647 11.8545 13.3647 12.2919C13.3647 12.7293 13.7298 13.0844 14.1782 13.0844H24.8873L23.1981 14.7249C22.8795 15.0337 22.8795 15.5349 23.196 15.8457C23.3543 16.0011 23.5632 16.0794 23.771 16.0794C23.9789 16.0794 24.1857 16.0011 24.345 15.8478L27.428 12.8538C27.6601 12.6274 27.7308 12.2857 27.6052 11.9893ZM24.5486 10.8408C24.3418 10.8408 24.135 10.7636 23.9768 10.6113L23.1992 9.86099C22.8806 9.55325 22.8784 9.051 23.1939 8.74121C23.5104 8.42833 24.0232 8.42627 24.3429 8.73503L25.1194 9.4843C25.4391 9.79306 25.4412 10.2943 25.1258 10.6051C24.9665 10.7615 24.7575 10.8408 24.5486 10.8408Z" fill="#130F26"/>
</g>
</g>
</svg>
