<svg width="26" height="26" viewBox="0 0 26 26" fill="none" xmlns="http://www.w3.org/2000/svg">
<path fill-rule="evenodd" clip-rule="evenodd" d="M13.0834 2.16675V7.75008L13.0834 7.80449V7.8045V7.80451V7.80452C13.0833 8.22858 13.0832 8.6407 13.1289 8.9806C13.1804 9.3638 13.3059 9.80108 13.6692 10.1643C14.0324 10.5275 14.4697 10.653 14.8529 10.7046C15.1928 10.7503 15.6049 10.7502 16.0289 10.7501H16.0289H16.0289H16.029L16.0834 10.7501H21.6667V17.3334C21.6667 20.3975 21.6667 21.9296 20.7148 22.8815C19.7629 23.8334 18.2308 23.8334 15.1667 23.8334H10.8334C7.76924 23.8334 6.23718 23.8334 5.28528 22.8815C4.33337 21.9296 4.33337 20.3975 4.33337 17.3334V8.66675C4.33337 5.60262 4.33337 4.07055 5.28528 3.11865C6.23718 2.16675 7.76924 2.16675 10.8334 2.16675H13.0834ZM15.0834 2.16999V7.75008C15.0834 8.24976 15.0855 8.52391 15.1111 8.71411L15.1121 8.72139L15.1193 8.72239C15.3095 8.74796 15.5837 8.75008 16.0834 8.75008H21.6635C21.6547 8.25689 21.6222 7.94241 21.5018 7.65173C21.3368 7.25356 21.0237 6.94044 20.3975 6.31421L17.5192 3.43595C16.893 2.80972 16.5799 2.4966 16.1817 2.33168C15.891 2.21127 15.5766 2.17877 15.0834 2.16999ZM8.75004 14.0834C8.75004 13.5311 9.19776 13.0834 9.75004 13.0834L16.25 13.0834C16.8023 13.0834 17.25 13.5311 17.25 14.0834C17.25 14.6357 16.8023 15.0834 16.25 15.0834L9.75004 15.0834C9.19776 15.0834 8.75004 14.6357 8.75004 14.0834ZM9.75004 17.4167C9.19776 17.4167 8.75004 17.8645 8.75004 18.4167C8.75004 18.969 9.19776 19.4167 9.75004 19.4167H14.0834C14.6357 19.4167 15.0834 18.969 15.0834 18.4167C15.0834 17.8645 14.6357 17.4167 14.0834 17.4167H9.75004Z" fill="black"/>
</svg>
