<svg width="26" height="26" viewBox="0 0 26 26" fill="none" xmlns="http://www.w3.org/2000/svg">
<path fill-rule="evenodd" clip-rule="evenodd" d="M2.16663 12.9998C2.16663 7.01675 7.01687 2.1665 13 2.1665C18.983 2.1665 23.8333 7.01675 23.8333 12.9998C23.8333 16.2971 22.3603 19.2503 20.0364 21.2372C19.5477 19.9127 18.6931 18.7481 17.5657 17.883C16.2558 16.878 14.651 16.3332 13 16.3332C11.349 16.3332 9.74408 16.878 8.43425 17.883C7.30681 18.7481 6.4522 19.9127 5.96354 21.2372C3.63966 19.2503 2.16663 16.2971 2.16663 12.9998ZM18.3178 22.4284C18.3188 22.4319 18.3198 22.4353 18.3208 22.4387C16.7492 23.3265 14.9337 23.8332 13 23.8332C11.0662 23.8332 9.25073 23.3265 7.67913 22.4387C7.68201 22.4291 7.68476 22.4194 7.68737 22.4097C8.00073 21.2402 8.69123 20.2068 9.65177 19.4697C10.6123 18.7327 11.7892 18.3332 13 18.3332C14.2107 18.3332 15.3876 18.7327 16.3481 19.4697C17.3087 20.2068 17.9992 21.2402 18.3126 22.4097C18.3142 22.416 18.316 22.4222 18.3178 22.4284ZM10.75 9.74984C10.75 8.5072 11.7573 7.49984 13 7.49984C14.2426 7.49984 15.25 8.5072 15.25 9.74984C15.25 10.9925 14.2426 11.9998 13 11.9998C11.7573 11.9998 10.75 10.9925 10.75 9.74984ZM13 5.49984C10.6527 5.49984 8.74996 7.40263 8.74996 9.74984C8.74996 12.097 10.6527 13.9998 13 13.9998C15.3472 13.9998 17.25 12.097 17.25 9.74984C17.25 7.40263 15.3472 5.49984 13 5.49984Z" fill="black"/>
<rect x="2.66663" y="2.6665" width="20.6667" height="20.6667" rx="10.3333" stroke="white"/>
</svg>
