<svg width="27" height="26" viewBox="0 0 27 26" fill="none" xmlns="http://www.w3.org/2000/svg">
<path fill-rule="evenodd" clip-rule="evenodd" d="M6 23.5V8C6 6.11438 6 5.17157 6.58579 4.58579C7.17157 4 8.11438 4 10 4H21.1667C21.9295 4 22.5678 4 23.1122 4.01648C20.8085 4.21312 19 6.14536 19 8.5V12.667L18.893 23.4643L15.75 22.4167L12.5 23.5L9.25 22.4167L6 23.5ZM26.75 12.6667H21V8.5C21 7.11929 22.1193 6 23.5 6H24.25C25.6307 6 26.75 7.11929 26.75 8.5V12.6667ZM8.25 8.33333C8.25 7.78105 8.69772 7.33333 9.25 7.33333H15.75C16.3023 7.33333 16.75 7.78105 16.75 8.33333C16.75 8.88562 16.3023 9.33333 15.75 9.33333H9.25C8.69772 9.33333 8.25 8.88562 8.25 8.33333ZM8.25 12.6667C8.25 12.1144 8.69772 11.6667 9.25 11.6667H11.4167C11.969 11.6667 12.4167 12.1144 12.4167 12.6667C12.4167 13.219 11.969 13.6667 11.4167 13.6667H9.25C8.69772 13.6667 8.25 13.219 8.25 12.6667ZM8.25 17C8.25 16.4477 8.69772 16 9.25 16H13.5833C14.1356 16 14.5833 16.4477 14.5833 17C14.5833 17.5523 14.1356 18 13.5833 18H9.25C8.69772 18 8.25 17.5523 8.25 17Z" fill="black"/>
</svg>
