<svg width="24" height="24" viewBox="0 0 24 24" fill="none" xmlns="http://www.w3.org/2000/svg">
<path fill-rule="evenodd" clip-rule="evenodd" d="M14.0607 12.6464L16.3079 11.8973L16.308 11.8973L16.308 11.8973C18.6612 11.1129 19.8378 10.7207 19.8378 9.99997C19.8378 9.27921 18.6612 8.88701 16.3079 8.10261L7.79478 5.26488C6.13899 4.71295 5.3111 4.43699 4.87408 4.87401C4.43706 5.31102 4.71303 6.13892 5.26496 7.79471L8.10268 16.3079L8.10268 16.3079L8.10269 16.3079C8.88709 18.6611 9.27929 19.8377 10 19.8377C10.7208 19.8377 11.113 18.6611 11.8974 16.3079L12.6465 14.0606L8.29294 9.70708C7.90242 9.31656 7.90242 8.68339 8.29294 8.29287C8.68346 7.90234 9.31663 7.90234 9.70715 8.29287L14.0607 12.6464Z" fill="#00B4D8"/>
</svg>
